<svg xmlns="http://www.w3.org/2000/svg" viewBox="0 0 1726.12 595.975">
  <g>
    <g>
      <path d="M1635.114,246.464h-90.8v-18.1a11.534,11.534,0,0,1,11.528-11.538h67.739a11.534,11.534,0,0,1,11.534,11.534h0Z" fill="#e0e0dc"/>
      <path d="M1645.967,310.8l-3.8,2.947-28.529,23.011L1601.8,226.81h24.056a9.114,9.114,0,0,1,4.394,1.111,9.234,9.234,0,0,1,4.856,8.138Z" fill="#a3a3a0"/>
      <path d="M1660.324,317.27c-18.25-13.765-8.462,147.494-8.462,147.494,13.094,2.837,25.181,8.114,38.571,7.655,21.51-.861,23.2-6.461,22.718-32.734l-34.237-15.566S1678.575,331.035,1660.324,317.27Z" fill="#e0e0dc"/>
      <path d="M1666.651,538.345c.16.8-.221,26.95-.221,27.76-.009,5.18.2,22.97-3.04,29.87H1514.311c-5.74-5.63-10.291-22.93-6.91-32.86,1.119-3.29,3.259-16.72,5.789-34.47,2.6-18.28,5.6-41.13,8.29-62.17v-.01c1.29-10.09,2.51-19.76,3.581-28.31,1.22-9.79,2.24-18.12,2.949-23.91.11-.89.21-1.71.311-2.48.48-4.02.76-6.31.76-6.31l-7.51-1.7v-.01l-1.77-.4-12.4-2.81s-2.131,1.64-5.32,3.82a96.594,96.594,0,0,1-14.95,8.64c-7.381,3.19-13.83,3.72-13.33-4.61a33.774,33.774,0,0,1,.62-4.51,90.494,90.494,0,0,1,2.96-10.83c2.41-7.28,5.829-15.72,9.66-24.37.189-.4.369-.8.55-1.2v-.01c3.429-7.69,7.169-15.5,10.81-22.76.41-.83.819-1.64,1.219-2.45.39-.76.77-1.52,1.161-2.27v-.01c1.89-3.73,3.729-7.24,5.449-10.47,2.371-4.44,4.5-8.32,6.25-11.37.321-.56.66-1.11,1.01-1.64a29.3,29.3,0,0,1,2.931-3.73,36.077,36.077,0,0,1,9.949-7.5l.02-.01a60.371,60.371,0,0,1,20.451-6.03h.01c.5-.05.96-.1,1.4-.14,2.48-.25,4.01-.25,4.01-.25l2.19-1.68,8-6.13,17.56-13.45.92.11,1.361.16,1.649.2,10.881,1.31h.01l.96.12h.03l11.8,1.42,5.971.71,2.46.3h.01l18.059,14.45,11.031,8.83.009.01,14.61,11.7.051.03.01.01,1.5,1.2,8.9,40.43,1.6,7.24-7.1,71.11v.05l-3.03,30.31-3.3,33.06a56.678,56.678,0,0,0,3.71,26.54Z" fill="#fafaf5"/>
      <rect x="1609.516" y="475.489" width="2.694" height="42.416" transform="translate(469.851 1737.535) rotate(-64.537)" fill="#a3a3a0"/>
      <rect x="1586.446" y="485.516" width="2.695" height="28.598" transform="translate(318.532 1576.792) rotate(-57.788)" fill="#a3a3a0"/>
      <path d="M1529.614,411.623V374.667l-13.123,38.373Z" fill="#a3a3a0"/>
      <path d="M1612.777,311h-8.948l-2.026-20.817,8.723-2.546Z" fill="#e6b48a"/>
      <path d="M1580,275.5l22.772,14.682L1603.829,311l-41.376-19.981Z" fill="#fafaf5"/>
      <path d="M1616.05,281.9l-6.515,6.788,3.242,22.3,19.831-14.018Z" fill="#fafaf5"/>
      <path d="M1613.221,284.236l-35.086-9.31,5.838-41.539,35.69,5.016Z" fill="#e6b48a"/>
      <path d="M1578.135,274.928l35.118,9.032s-3.145,8.189-13.28,6.765-21.838-16.285-21.838-16.285Z" fill="#e6b48a"/>
      <path d="M1675.668,433.378l-3.853,5.179,6.435-.512,42.7-23.625-2.582-4.667Z" fill="#3d5f84"/>
      <path d="M1693.945,469.451l6.954,2.765c7.507,2.985,15.87-1.065,18.678-9.045l5.345-15.189c3.638-10.327-1.289-21.833-11-25.7h-.008l-20.548-8.171-10.429,29.639c-3.637,10.327,1.29,21.833,11.005,25.7h.006Z" fill="#e6b48a"/>
      <path d="M1578.121,410.378l-57.224-10.8c-10.738-4.1-23.127-8.81-32.137-6.562s-15.839,7.6-16.319,20.25,8.233,19.134,14.333,22.43,30.9,3.107,30.9,3.107l56.876-5.007Z" fill="#e6b48a"/>
      <rect x="1569.578" y="368.339" width="116.045" height="82.828" transform="translate(931.664 1937.055) rotate(-79.634)" fill="#162941"/>
      <path d="M1603.066,437.733l-37.619-2.667,1.351-16.046c.848-10.054,9.164-17.665,18.577-17l37.619,2.667-1.351,16.043c-.846,10.055-9.163,17.665-18.576,17h0Z" fill="#e6b48a"/>
      <path d="M1631.59,236.936l-8.745-5.168.549-.926,8.74,5.168Z" fill="#192636"/>
      <path d="M1611.933,269.821l-35.15-6.107V226.227c0-13.7,11.636-24.8,25.99-24.8s25.989,11.106,25.989,24.8v29.54c0,10.252-7.243,15.88-16.828,14.053Z" fill="#e6b48a"/>
      <path d="M1584.856,244.965s.839,14.856,16.947,16.567,12.831-5.415,12.831-5.415l4.131-.142s.344,6.2,4.084,5.77S1626,253.4,1626,253.4l2.775-6.071s7,14.512-.008,22.835-33.79,5.66-43.906-2.981-8.264-26.594-8.264-26.594Z" fill="#192636"/>
      <path d="M1623.87,252.761l-16.57-.731s7.7,12.387,16.565.726Z" fill="#fafaf5"/>
      <path d="M1628.77,232.91v13.552a5.317,5.317,0,0,1-1.539.234c-3.415,0-6.192-3.143-6.192-7.008,0-3.886,2.776-7.008,6.192-7.008a5.317,5.317,0,0,1,1.539.234Z" fill="#dc9a64"/>
      <path d="M1603.829,239.9a7.425,7.425,0,1,1-7.426-7.425,7.425,7.425,0,0,1,7.426,7.425Z" fill="#dc9a64"/>
      <path d="M1603.829,233.367a2.345,2.345,0,1,1-2.345-2.345h0A2.345,2.345,0,0,1,1603.829,233.367Z" fill="#192636"/>
      <path d="M1624.352,233.367a2.345,2.345,0,1,1-2.345-2.345h0A2.345,2.345,0,0,1,1624.352,233.367Z" fill="#192636"/>
      <path d="M1616.693,244.349a2.091,2.091,0,0,1-.344-.028l-4.255.028-.006-1.877,4.754-.061-.007-.058.067-.246.013-2.425,1.877.008-.008,2.422a2.006,2.006,0,0,1-.64,1.649,2.074,2.074,0,0,1-1.447.585Z" fill="#192636"/>
      <path d="M1611.22,237.685c-.04-.17-.08-.33-.129-.49a3.54,3.54,0,0,0-.181-.55,7.226,7.226,0,0,0-6.77-4.71,5,5,0,0,0-.77.05h-.009a5.265,5.265,0,0,0-.98.18,6.889,6.889,0,0,0-2.511,1.17,6.03,6.03,0,0,0-.67.55,7.37,7.37,0,0,0-1.08,1.27c-.039.07-.079.13-.12.2a4.743,4.743,0,0,0-.409.77,7.02,7.02,0,0,0-.681,3.04,7.216,7.216,0,0,0,4.131,6.53,7.043,7.043,0,0,0,2.869.69,1.7,1.7,0,0,0,.23.01,7.243,7.243,0,0,0,7.08-8.71Zm-7.08,7.63a1.986,1.986,0,0,1-.349-.02,5.71,5.71,0,0,1-1.9-.41,6.133,6.133,0,0,1-2.71-9.36,3.987,3.987,0,0,1,.53-.63,5.956,5.956,0,0,1,1.141-.93,5.894,5.894,0,0,1,1.639-.72,5.2,5.2,0,0,1,1.311-.21,1.929,1.929,0,0,1,.339-.02,6.135,6.135,0,0,1,5.761,4.02,5.818,5.818,0,0,1,.39,2.13A6.152,6.152,0,0,1,1604.14,245.315Z" fill="#192636"/>
      <path d="M1625.111,233.105a4.86,4.86,0,0,0-.76.37.09.09,0,0,1-.01.05,1.007,1.007,0,0,1-.03.25,5.624,5.624,0,0,1,1.54-.23Zm0,0a4.86,4.86,0,0,0-.76.37.09.09,0,0,1-.01.05,1.007,1.007,0,0,1-.03.25,5.624,5.624,0,0,1,1.54-.23Zm0,0a4.86,4.86,0,0,0-.76.37.09.09,0,0,1-.01.05,1.007,1.007,0,0,1-.03.25,5.624,5.624,0,0,1,1.54-.23Zm3.659-.09-.01-.01a6.025,6.025,0,0,0-.75-.26.075.075,0,0,0-.05-.01,6.471,6.471,0,0,0-1.829-.27.665.665,0,0,0-.141-.01,6.75,6.75,0,0,0-1.639.2.169.169,0,0,0-.1.02,7.139,7.139,0,0,0-4.8,3.94,5.113,5.113,0,0,0-.379,1.01,3.7,3.7,0,0,0-.17.67,7.045,7.045,0,0,0-.141,1.39,2.6,2.6,0,0,0,.031.41v.11a6.36,6.36,0,0,0,.36,1.81v.01a7.2,7.2,0,0,0,2.71,3.59c0,.01,0,.01.009.01a7.178,7.178,0,0,0,1.63.84,5.737,5.737,0,0,0,1.44.36h.01a6.04,6.04,0,0,0,1.05.09,6.945,6.945,0,0,0,1.89-.26c.011-.01.011-.01.02-.01a2.86,2.86,0,0,0,.57-.18,1.293,1.293,0,0,0,.28-.1.01.01,0,0,0,.01-.01,7.224,7.224,0,0,0,0-13.34Zm0,12.16h-.01a6.074,6.074,0,0,1-2.76.66,6.142,6.142,0,0,1-2.389-.48h-.01a6.155,6.155,0,0,1-2.231-9.73,6.3,6.3,0,0,1,2.2-1.59c.01,0,.01-.01.02-.01s.01,0,.01-.01a5.927,5.927,0,0,1,.71-.24,5.624,5.624,0,0,1,1.54-.23.747.747,0,0,1,.149-.01,6.105,6.105,0,0,1,2.76.66h.01a6.148,6.148,0,0,1,0,10.98Zm-3.659-12.07a4.86,4.86,0,0,0-.76.37.09.09,0,0,1-.01.05,1.007,1.007,0,0,1-.03.25,5.624,5.624,0,0,1,1.54-.23Zm0,0a4.86,4.86,0,0,0-.76.37.09.09,0,0,1-.01.05,1.007,1.007,0,0,1-.03.25,5.624,5.624,0,0,1,1.54-.23Z" fill="#192636"/>
      <path d="M1619.625,237.876l-3.663-1.677a1.764,1.764,0,0,0-1.49,0l-3.663,1.677-.448-.98,3.663-1.677a2.882,2.882,0,0,1,2.387,0l3.662,1.677Z" fill="#192636"/>
      <rect x="1587.383" y="222.092" width="1.078" height="21.666" transform="translate(943.704 1702.868) rotate(-74.679)" fill="#192636"/>
      <path d="M1617.132,246.376c1.362,2.406-2.777,6.258-8.3,9.383s-10.322,4.34-11.686,1.932,2.007-6.89,7.526-10.014,11.1-3.707,12.459-1.3Z" fill="#192636"/>
      <path d="M1614.44,246.389c-1.316,2.268,3.2,5.633,8.41,8.509s9.125,4.176,10.44,1.908-1.839-6.439-7.045-9.315-10.49-3.37-11.8-1.1Z" fill="#192636"/>
      <path d="M1546.841,301.808,1526.1,305.3l18.673-71.64a6.875,6.875,0,0,1,6.874-6.875h34.082Z" fill="#e0e0dc"/>
      <path d="M1585.745,223.081l-6.427,101.891-33.432-23.88Z" fill="#e0e0dc"/>
      <path d="M1599.96,186.608h-18.141a29.891,29.891,0,0,0-29.891,29.891v10.933h77.924V216.5a29.891,29.891,0,0,0-29.891-29.891Z" fill="#e0e0dc"/>
      <path d="M1629.482,209.129h-77.774a1.543,1.543,0,0,0-1.545,1.541v5.1a1.545,1.545,0,0,0,1.545,1.545h77.772a1.544,1.544,0,0,0,1.546-1.542h0v-5.1a1.544,1.544,0,0,0-1.543-1.545h0Z" fill="#192636"/>
      <path d="M1541.809,280.32l18.676-13.985,1.927,1.693-18.679,13.982Z" fill="#a3a3a0"/>
      <path d="M1543.611,265.445l19.678-14.4,1.855,1.77-19.678,14.4Z" fill="#a3a3a0"/>
      <path d="M1634.723,230.542l-.866,94.343,12.08-14.083Z" fill="#e0e0dc"/>
    </g>
    <g>
      <path d="M1461.741,156.6c-3.387-18.74,7.485-37.15-25.036-48.4l-.687,2.8c.213.027-8.693,96.1-9,110.2-.246,11.488,28.557,24.631,28.557,24.631C1457.255,240.588,1466.138,180.937,1461.741,156.6Z" fill="#192636"/>
      <g>
        <path d="M1525.574,390.193a23.89,23.89,0,0,1-32.329-9.87l-14.223-26.741L1477.686,351l-12.47-23.426-29.834-56.144a23.783,23.783,0,0,1,.662-23.616,21.254,21.254,0,0,1,3.7-4.614,22.326,22.326,0,0,1,5.542-4.091,24.089,24.089,0,0,1,8.5-2.663l.032.008.043-.024a23.909,23.909,0,0,1,5.708.1,17.4,17.4,0,0,1,2.628.469,23.651,23.651,0,0,1,14.627,10.625c.276.455.551.909.793,1.355l.476.926,3.926,7.365a.033.033,0,0,1,.024.041.034.034,0,0,1,.026.042c.05.082.066.157.092.2l8.569,16.1,1.278,2.389,4.159,7.844,1.2,2.265,38.111,71.718A23.862,23.862,0,0,1,1525.574,390.193Z" fill="#3d5f84"/>
        <path d="M1443.2,225.861s37.062,30.264,63.536,69.263,25.05,97.924,25.05,97.924h-92.732Z" fill="#162941"/>
        <g>
          <g>
            <path d="M1526.131,595.975H1406.12l-2.98-102.53-.1-3.57h96.219s6.93,14.71,13.93,38.77A363.8,363.8,0,0,1,1526.131,595.975Z" fill="#3d5f84"/>
            <path d="M1369.9,454.034c-12.878,22.341-18.48,35.321-18.48,35.321h147.842l1.025-58.31,3.883-14.608-5.124-29.605s4.042-73.987-6.761-95.362c-5.338-10.562-50.438-67.67-50.438-67.67H1401.6s-57.675,33.382-53.426,68.891c4,33.442,5.338,39.634,5.338,39.634s11.358,38.419,17.97,68.275c.784,3.539-3.436,12.9-2.812,16.121,1.692,8.741,7.633,10.074,7.412,14.324C1375.642,439.824,1373.626,447.544,1369.9,454.034Z" fill="#e0e0dc"/>
            <path d="M1486.318,452.92l-13.659-.347c.029-1.117,2.819-112.062.024-144.043-2.178-24.916-38.6-69.226-52.454-84.2l10.027-9.28c2.163,2.335,53.008,57.624,56.039,92.29C1489.157,340.084,1486.436,448.33,1486.318,452.92Z" fill="#fafaf5"/>
            <polygon points="1440.612 217.757 1461.972 231.68 1458.477 239.519 1471.028 275.767 1435.092 231.787 1440.612 217.757" fill="#fafaf5"/>
            <path d="M1443.2,225.861l27.829,49.906s-71.349-42.965-71.775-43.25.711-7.206.711-7.206Z" fill="#e6b48a"/>
            <path d="M1347.3,495.512l151.962-5.634,1.025-58.31h-124.2c-.444,8.779-2.46,16.5-6.183,22.989C1357.025,476.9,1347.3,495.512,1347.3,495.512Z" fill="#3d5f84"/>
            <path d="M1471.01,489.875v106.1H1312.63a208.973,208.973,0,0,1,20.35-75.58c.581-1.21,1.16-2.38,1.74-3.52,2.351-4.64,4.64-8.74,6.73-12.24,2.25-3.76,4.27-6.85,5.9-9.21.849-1.24,1.6-2.28,2.21-3.11,1.179-1.61,1.86-2.44,1.86-2.44Z" fill="#3d5f84"/>
            <path d="M1382.47,430.205v59.67l-.369.38c-.06.06-.881.89-2.25,2.57-.361.45-.76.96-1.19,1.53-5.221,6.79-15.291,22.36-23.041,49.06-1.14,3.97-2.24,8.17-3.26,12.64-.41,1.77-.8,3.58-1.18,5.43a287.257,287.257,0,0,0-4.859,34.49h-2.551a284.091,284.091,0,0,1,5.66-38.44c.391-1.8.79-3.55,1.221-5.27,1.1-4.54,2.289-8.81,3.52-12.82,7.11-23.14,15.849-37.59,21.209-44.97,1.291-1.78,2.38-3.15,3.2-4.13.149-.17.279-.33.409-.47.161-.19.321-.37.46-.52.19-.2.351-.37.461-.5v-58.65Z" fill="#162941"/>
          </g>
          <polygon points="1407.335 475.807 1349.545 492.353 1361.842 463.54 1407.335 475.807" fill="#162941"/>
          <path d="M1375.793,421.522h23.624a0,0,0,0,1,0,0v40.77a21.21,21.21,0,0,1-21.21,21.21h-23.624a0,0,0,0,1,0,0v-40.77A21.21,21.21,0,0,1,1375.793,421.522Z" transform="translate(1868.754 -910.967) rotate(91.641)" fill="#e6b48a"/>
          <path d="M1277.263,383.062a23.89,23.89,0,0,0,33.75-1.879L1331.2,358.6l1.912-2.187,17.695-19.777,42.358-47.414a23.781,23.781,0,0,0,4.987-23.092,21.243,21.243,0,0,0-2.494-5.363,22.283,22.283,0,0,0-4.407-5.294,24.073,24.073,0,0,0-7.617-4.612h-.033l-.035-.035a23.988,23.988,0,0,0-5.568-1.263,17.4,17.4,0,0,0-2.665-.171,23.647,23.647,0,0,0-16.737,6.832c-.376.376-.752.751-1.094,1.127l-.683.785-5.568,6.217c-.033,0-.033.035-.033.035a.034.034,0,0,0-.035.034c-.069.068-.1.137-.137.171l-12.16,13.6-1.811,2.016-5.909,6.627-1.708,1.913-54.109,60.565A23.861,23.861,0,0,0,1277.263,383.062Z" fill="#3d5f84"/>
        </g>
        <g>
          <rect x="1399.964" y="175.539" width="43.234" height="50.322" fill="#e6b48a"/>
          <polygon points="1471.028 275.767 1396.001 231.36 1396.001 212.572 1429.887 228.371 1428.531 238.832 1471.028 275.767" fill="#fafaf5"/>
          <polygon points="1443.199 206.391 1416.584 203.096 1443.199 219.335 1443.199 206.391" fill="#dc9a64"/>
          <path d="M1464.3,154.08v31.393c0,14.885-9.494,21.3-21.105,23.619a69.213,69.213,0,0,1-15.084,1.058,125.694,125.694,0,0,1-26.564-4.036V154.08c0-17.863,14.026-32.385,31.36-32.385a30.863,30.863,0,0,1,22.2,9.494,32.674,32.674,0,0,1,8.8,17.664v.1c.065.364.1.727.132,1.091A27.339,27.339,0,0,1,1464.3,154.08Z" fill="#e6b48a"/>
          <path d="M1464.3,165.535v16.354a6.43,6.43,0,0,1-1.857.282c-4.122,0-7.474-3.794-7.474-8.459,0-4.691,3.352-8.459,7.474-8.459A6.43,6.43,0,0,1,1464.3,165.535Z" fill="#dc9a64"/>
          <path d="M1436.479,131.944h5.133a22.692,22.692,0,0,1,22.692,22.692v7.972a0,0,0,0,1,0,0h-50.517a0,0,0,0,1,0,0v-7.972A22.693,22.693,0,0,1,1436.479,131.944Z" fill="#e6b48a"/>
          <circle cx="1398.315" cy="168.913" r="14.307" transform="translate(290.117 1038.232) rotate(-45)" fill="#e6b48a"/>
          <path d="M1391.612,183.43a4.91,4.91,0,1,0,4.91-4.911A4.91,4.91,0,0,0,1391.612,183.43Z" fill="#fff"/>
          <circle cx="1425.23" cy="173.969" r="8.963" fill="#dc9a64"/>
          <g>
            <path d="M1432.927,188.34l20,.784S1442.427,203.254,1432.927,188.34Z" fill="#fff"/>
            <path d="M1434.193,166.082a2.831,2.831,0,1,1-2.831-2.831A2.831,2.831,0,0,1,1434.193,166.082Z" fill="#192636"/>
            <path d="M1458.966,166.082a2.831,2.831,0,1,1-2.831-2.831A2.831,2.831,0,0,1,1458.966,166.082Z" fill="#192636"/>
            <path d="M1440.618,179.339l-.006-2.266L1447.3,177l-.006-.07.081-.3.012-2.923,2.263.009-.013,2.923a2.41,2.41,0,0,1-.77,1.992,2.507,2.507,0,0,1-2.163.672Z" fill="#192636"/>
          </g>
        </g>
        <path d="M1275.889,388.358l73.907,66.747a14.608,14.608,0,0,0,18.534.863h0a14.609,14.609,0,0,0,2.963-20.447L1311.7,355.733a24.336,24.336,0,0,0-34.063-4.936h0A24.337,24.337,0,0,0,1275.889,388.358Z" fill="#e6b48a"/>
        <path d="M1350.808,264.939v128.1h100.5s-4.065-49.531-10.691-90.523c-.1-.581-.206-1.127-.308-1.708v-.034c-.239-1.333-.512-2.665-.854-4C1430.5,258.414,1396,227.841,1396,227.841c-8.608,2.494-16.773,7.823-23.741,13.7-.649.581-1.3,1.128-1.947,1.708a129.359,129.359,0,0,0-12.263,12.5c-.581.682-1.161,1.332-1.674,1.981-2.6,3.143-4.407,5.6-5.124,6.626-.033,0-.033.035-.033.035a.034.034,0,0,0-.035.034c-.069.068-.1.137-.137.171C1350.877,264.836,1350.808,264.939,1350.808,264.939Z" fill="#3d5f84"/>
        <rect x="1472.071" y="520.148" width="30.044" height="2.563" transform="translate(346.39 1608.689) rotate(-62.948)" fill="#162941"/>
        <rect x="1457.353" y="537.846" width="27.314" height="2.561" transform="translate(380.526 1664.015) rotate(-66.018)" fill="#162941"/>
        <polygon points="1350.808 336.646 1366.966 317.328 1350.808 357.101 1350.808 336.646" fill="#162941"/>
        <path d="M1356.376,257.731a5.285,5.285,0,0,1,.444.409,45.7,45.7,0,0,1,7.242,7.516,48.465,48.465,0,0,1,9.633,32.657l2.562.2a50.264,50.264,0,0,0-17.66-42.289,7.08,7.08,0,0,1-.547-.478C1357.469,256.432,1356.889,257.082,1356.376,257.731Z" fill="#162941"/>
        <polygon points="1337.076 280.208 1343.429 291.754 1345.684 290.524 1338.887 278.192 1337.076 280.208" fill="#162941"/>
        <polygon points="1329.459 288.748 1345.445 301.729 1347.05 299.747 1331.167 286.835 1329.459 288.748" fill="#162941"/>
        <polygon points="1324.778 341.319 1331.201 358.604 1333.113 356.417 1327.17 340.431 1324.778 341.319" fill="#162941"/>
        <path d="M1370.313,243.247l7.686,6.32,20.154,16.567,42.153,34.638c-.239-1.333-.512-2.665-.854-4l-43.793-36-12.024-9.906h-.033l-.035-.035-11.307-9.291C1371.611,242.12,1370.962,242.667,1370.313,243.247Z" fill="#162941"/>
        <rect x="1398.436" y="260.299" width="16.768" height="2.561" transform="matrix(0.628, -0.778, 0.778, 0.628, 319.276, 1191.533)" fill="#162941"/>
        <polygon points="1493.357 339.643 1494.145 342.178 1464.664 348.648 1463.877 346.113 1493.357 339.643" fill="#a3a3a0"/>
        <polygon points="1489.735 352.63 1490.522 355.165 1459.433 361.843 1458.645 359.309 1489.735 352.63" fill="#a3a3a0"/>
        <polygon points="1401.839 400.134 1401.051 402.669 1430.531 409.138 1431.319 406.603 1401.839 400.134" fill="#a3a3a0"/>
        <polygon points="1412.601 414.649 1411.813 417.184 1435.763 422.334 1436.551 419.799 1412.601 414.649" fill="#a3a3a0"/>
        <polygon points="1444.963 393.048 1371.062 398.702 1369.101 393.048 1444.963 393.048" fill="#162941"/>
        <path d="M1500.365,479.85l69.9-44.3a4.93,4.93,0,0,0,1.526-6.8L1510.354,331.8a4.931,4.931,0,0,0-6.8-1.525l-69.9,44.3a4.932,4.932,0,0,0-1.526,6.805l61.441,96.946a4.93,4.93,0,0,0,6.8,1.526Z" fill="#6fd5d5"/>
        <path d="M1503.955,350.828l6.78-4.3a1.42,1.42,0,0,0,.439-1.957l-4.3-6.78a1.419,1.419,0,0,0-1.957-.439l-6.78,4.3a1.418,1.418,0,0,0-.44,1.957h0l4.3,6.78a1.417,1.417,0,0,0,1.955.44h0Z" fill="#192636"/>
        <path d="M1542.6,418.115l20.268-3.336-5.756-34.979a18.444,18.444,0,0,0-21.193-15.2l-20.269,3.336,5.757,34.972a18.439,18.439,0,0,0,21.191,15.2h0Z" fill="#e6b48a"/>
      </g>
      <path d="M1385.177,179.458c.063,2.72,9.558-13.595,9.384-14.817s19.019,9.941,20.236,8.108-6.225-27.911,7.044-33.354c1.632-.67,4.309-6,17.212-7.49,17.082-1.979,18.61,2.157,20.713,5.4,2.68,4.128,2.164-.807,2.164-.807s-.947-29.809-36.434-27.3C1385.771,112,1384.482,149.365,1385.177,179.458Z" fill="#6a482c"/>
      <path d="M1439.646,123a38.184,38.184,0,0,0,4.764,4.465,6.793,6.793,0,0,0,.817.4,5.507,5.507,0,0,0,3.885.353c5.633-1.4,11.606,1.053,12.556,7.008.893,4.685-.322,9.763.743,14.327.236,1.042,1.176,1.519,2.02,2.019,1.4.891,3.224,1.109,4.723,1.758a6.148,6.148,0,0,1,3.087,3.968,5.841,5.841,0,0,0-3.371-3.457c-1.667-.453-3.41-.5-4.991-1.241a4.46,4.46,0,0,1-2.829-2.357c-2.362-5.319.4-15.543-5.7-17.884-2.532-.953-5.042.114-7.807.7a11.339,11.339,0,0,1-5.275-.677c-2.673-1.172-9.888-6.612-15.957-6.455L1439.646,123Z" fill="#6a482c"/>
      <path d="M1425.629,131.859a45.167,45.167,0,0,0-3.474,5.724,7.529,7.529,0,0,0-.083,6.352c1.426,3.193,2.949,6.94,2.9,10.49a6.8,6.8,0,0,1-.859,3.153,15.6,15.6,0,0,1-5.432,5.88,11.346,11.346,0,0,0,2.605-3.717c.209-.473.423-.955.619-1.444a7.387,7.387,0,0,0,.031-5.327c-1.194-3.178-3.58-6.336-5.638-8.972a5.823,5.823,0,0,1-1.452-3.5,18.708,18.708,0,0,1,.059-2.591,7.511,7.511,0,0,1,10.721-6.045Z" fill="#6a482c"/>
      <path d="M1490.73,273.655l-.129.06s-61.151,52.25-120.29-30.47c-.121-.17,2.35-2.57,5.819-5.12a.152.152,0,0,0,.05-.04c.77-.56,1.721-1.09,2.55-1.66.02-.02.051-.03.071-.05.7-.49,1.48-.97,2.189-1.45a.356.356,0,0,0,.081-.05,43.611,43.611,0,0,1,6.97-4.01c.26-.1.5-.18.709-.25-8.88-21.29-16.02-43.05-19.39-60.53a101.172,101.172,0,0,1-2.1-18.69,57.8,57.8,0,0,1,.391-6.89c.19-1.6.44-3.12.76-4.59,3.8-17.84,16.66-34.31,55.109-33.35,33.25.83,35.841,19.66,35.841,19.66-8.31-13.94-27.921-11.8-30.371-11.91-23.72-1.03-30.38,20.85-31.12,23.91-2.089,8.68-1.5,18.45.461,28.07q.539,2.715,1.24,5.4c.109.47.23.93.359,1.39.29,1.11.6,2.2.921,3.29.919,3.14,1.94,6.21,3.019,9.17a134.393,134.393,0,0,0,11.691,23.43c2.809,4.55,5.659,8.71,8.189,12.1.74.98,1.44,1.89,2.1,2.72.539.68,1.059,1.3,1.53,1.87.069.07.129.14.18.2.879,1.03,1.669,1.87,2.329,2.51a79.753,79.753,0,0,1,10.741,13.97c.739,1.18,1.44,2.33,2.079,3.44,2.171,3.77,3.68,6.98,3.93,8.47.05.27.08.4.11.4.131,0-.03-3.76.171-8.4a64.83,64.83,0,0,1,.809-8.27c.1-.65.23-1.28.371-1.89.07-.34-4.981-9.9-4.9-10.23v-6.53s17.24,10.54,20.091,12.93C1487.561,252.5,1490.73,273.655,1490.73,273.655Z" fill="#172c43"/>
      <g>
        <path d="M1451.911,132.081l.875-.094a35.516,35.516,0,0,0-2.914-14.455,15.6,15.6,0,0,0-2.855-1.142C1449.9,120.314,1451.738,126.024,1451.911,132.081Z" fill="#4c3320"/>
        <path d="M1440.957,131.7l-.966.1c.287-4.467-2.309-14.859-5.5-17.786.473-.045,1.756.038,2.212.038C1440.042,116.39,1441.251,126.935,1440.957,131.7Z" fill="#4c3320"/>
      </g>
      <path d="M1422.831,271.155l-.881,2.86c-29.7-9.09-41.419-25.74-45.77-35.93.77-.56,1.721-1.09,2.55-1.66C1382.68,246.035,1393.76,262.255,1422.831,271.155Z" fill="#192636"/>
      <path d="M1448.1,236.1s-2.331,11.464-1.351,18.56,15.573,17.494,15.573,17.494Z" fill="#192636"/>
      <path d="M1408.947,132.963c-2.512,4.829-4.426,10.273-4.27,15.534.347,5.968,2.454,12.5,6.6,16.84,2.759,3.351,6.535,4.138,7.806,9.049,1.471,10.471-12.625,14.629-20.323,19.5-1.807,1.355-2.069,1.132-2.23,2.943a9.8,9.8,0,0,0,1.456,5.03c3.146,5.42,8.887,9.229,15.371,11.622a36.067,36.067,0,0,1-13.616-4.746c-5.426-3.372-11.213-9.334-8.983-15.878,1.672-3.5,5.453-6.223,8.224-8.747,2.8-2.589,6.579-5.218,8.214-8.04a1.045,1.045,0,0,0-.027.644c.1.576.458.709-.006.311-8.567-6.538-10.716-17.039-10.846-26.43-.263-4.672.859-9.4,2.183-13.878a28.293,28.293,0,0,1,2.81-6.839l7.642,3.082Z" fill="#6a482c"/>
      <g>
        <path d="M1422.855,138.66a4.051,4.051,0,0,1-1.332.885,63.036,63.036,0,0,0-16.8-14.7,14.336,14.336,0,0,1,1.784-2C1409.219,123.671,1414.451,127.907,1422.855,138.66Z" fill="#4c3320"/>
        <path d="M1416.449,144.192l-.628,1.213c-2.25-2.76-6.321-4.95-10.461-6.76a60.121,60.121,0,0,0-6.873-2.429c.22-.819.571-1.585.862-2.389C1404.61,133.588,1413.929,141.082,1416.449,144.192Z" fill="#4c3320"/>
        <path d="M1414.319,150.6l-.268,1.718-17.686.159a18.836,18.836,0,0,0-.082-2.566C1395.959,148.552,1414.319,150.6,1414.319,150.6Z" fill="#4c3320"/>
      </g>
      <path d="M1458.238,123.942c-7.261-7.73-18.825-9-28.851-7.848-9.888.917-19.834,5.108-25.282,13.757-6.8,10.61-7.128,23.569-6.019,36.089-4.254-12.178-4.891-26.986,2-38.608,5.872-10.167,17.531-15.318,28.94-15.619,10.686-.542,23.515,2.287,29.211,12.229Z" fill="#192636"/>
      <path d="M1399.571,171.7c-2.631-2.22-17.551-15.76-14.431-35.02l2.961.48c-2.161,13.36,5.49,24,10.23,29.14Q1398.87,169.01,1399.571,171.7Z" fill="#192636"/>
      <path d="M1400.851,176.375c-1.481-.31-10.671-2.35-15.53-6.3l1.889-2.33c3.441,2.79,9.72,4.59,12.72,5.34C1400.22,174.2,1400.531,175.285,1400.851,176.375Z" fill="#192636"/>
      <path d="M1380.99,234.925a.356.356,0,0,0,.081-.05,43.611,43.611,0,0,1,6.97-4.01c.26-.1.5-.18.709-.25a60.845,60.845,0,0,0,36.48,20.85C1448.98,255.4,1394.25,258.375,1380.99,234.925Z" fill="#192636"/>
    </g>
    <g>
      <path d="M166.25,128.755s-.87,1.54-2.24,3.95c-.419.76-.9,1.6-1.4,2.51-4.959,8.78-13.31,23.71-14.43,26.44-1.61,3.9-8.55,20.49-9.259,20.08s-4.241-14.11-2.52-23.27a35.07,35.07,0,0,1,8.739-17.69,38.026,38.026,0,0,1,4.69-4.29A42.838,42.838,0,0,1,166.25,128.755Z" fill="#442f27"/>
      <rect x="155.101" y="192.425" width="43.997" height="51.209" transform="translate(356.144 434.463) rotate(179.487)" fill="#e6a168"/>
      <path d="M183.421,125.575a55.977,55.977,0,0,0-18.051,4.74h-.01c-.319.14-.649.29-.97.43-1.77.81-3.51,1.71-5.2,2.67h-.019c-1.061.61-2.08,1.25-3.091,1.91a49.514,49.514,0,0,0-7.33,5.83c-4.039,3.93-7.029,8.44-8.18,13.33-.029.11-.06.22-.08.32-.06.28-.12.57-.17.85v.01a1.514,1.514,0,0,0-.029.21.433.433,0,0,1-.01.05,17.876,17.876,0,0,0-.24,3.75v.27l.06,6.4a79.619,79.619,0,0,1,9.32-19.44c.61-.93,1.25-1.83,1.92-2.71.6-.8,1.229-1.59,1.88-2.36a49.621,49.621,0,0,1,5.94-6.02c.55-.48,1.109-.94,1.68-1.37.229-.19.459-.37.7-.54.86-.64,1.75-1.26,2.659-1.83.091-.06.17-.12.261-.17a.01.01,0,0,0,.01-.01,42.26,42.26,0,0,1,18.909-6.3h.01l.69-.06C183.87,125.535,183.64,125.555,183.421,125.575Zm24.469,3.7a33.314,33.314,0,0,0-6.179-2.16h-.021c-.219-.05-.45-.11-.67-.16q-1.5-.345-2.97-.6h-.009a55.347,55.347,0,0,0-13.88-.83c.449-.02.889-.04,1.32-.04,12.379-.11,16.8,5.97,17.37,19.34a120.46,120.46,0,0,1-.411,14v.02c-.05.63-.1,1.29-.159,1.94-.13,1.58-.721,7.53-1.37,14.4-.111,1.19-.231,2.42-.341,3.65v.03c-.14,1.48-.279,2.97-.419,4.44v.05c-.021.23-.041.45-.06.68,0,0-.011.02,0,.02-.081.84-.151,1.68-.221,2.5-.11,1.22-.209,2.38-.31,3.51v.05c-.329,4.06-.57,7.49-.62,9.39v.37a5.666,5.666,0,0,0,0,.81l.01,1.06.021,1.99v.22l.029,3.02v.59c.01.01.01.01,0,.01v.21l.02,1.54v.01l.011,1.42v.42l.01.82-5.19.63-1.661.2h-.01l-5.339.65h-.011l-3.38.41h-.01l-.219.03-2.771.34-4.289.52-.63.07-14.3,1.74a14.125,14.125,0,0,1-6.151-.09,16.373,16.373,0,0,1-8.119-4.9,26.238,26.238,0,0,1-6.61-17.38l-.01-1.12-.12-13.34-.05-5.06-.07-8.35c-.161.45-.3.9-.44,1.35-.93,2.91-1.7,5.83-2.351,8.73a2.275,2.275,0,0,0-.05.24v.02a99.718,99.718,0,0,0-2.4,25.89,67.506,67.506,0,0,0,1.541,10.13.185.185,0,0,0,.02.07v.01c.349,1.85.79,3.65,1.31,5.45a.2.2,0,0,1,.019.07v.01a23.741,23.741,0,0,0,4.87,9.39l.01.01a15.948,15.948,0,0,0,1.31,1.28v.01l.021.02a18.552,18.552,0,0,0,6.659,3.57,32.726,32.726,0,0,0,4.62,1.08,73.044,73.044,0,0,0,9.26.86c1.851.08,3.82.12,5.93.14.76.01,1.541.01,2.34.01A98.177,98.177,0,0,0,194.52,232c.571-.14,1.141-.27,1.711-.41.25-.06.509-.13.759-.2H197c.61-.15,1.211-.3,1.81-.47l.1-.03c.109-.02.2-.04.31-.07a158.411,158.411,0,0,0,18.44-6.32c.839-.34,1.659-.69,2.43-1.02l.08-.03c.159-.07.329-.14.48-.21.01,0,.01-.01.02-.01C222.341,219.425,243.89,146,207.89,129.275Z" fill="#20405e"/>
      <path d="M166.065,238.077V372.953H278.821V298.071a59.945,59.945,0,0,0-59.894-59.994H166.065Z" fill="#172c43"/>
      <path d="M252.81,277.059l24.673,68.947s.557-2.315,1.337-6.079V298.071a59.8,59.8,0,0,0-3.106-19.1,40.748,40.748,0,0,0-22.9-1.913Z" fill="#192636"/>
      <rect x="38.051" y="349.229" width="121.313" height="169.965" transform="translate(-345.66 405.563) rotate(-73.504)" fill="#162941"/>
      <path d="M217.791,459.015v.01l-.051,1.94-.019.76-.021.77-.159,6.49-.3,12.27-.069,2.91-.21,8.46-.31,12.53-.021,1.08-.06,2.34-2.149,87.4H102.39c-.9-18.69-3.13-66.91-3.63-98.48-.08-5.64-.12-10.76-.08-15.08,0-.76,0-1.54.031-2.32q.088-10.245.359-21.08Z" fill="#20405e"/>
      <path d="M252.7,595.975H137.661l.639-23.19.33-11.71.01-.34v-.23l.5-17.72.031-1.13.029-1.17.221-7.85.49-17.44.06-2.34.089-3.13.231-8.23.06-2.3.5-17.93v-.01l.529-19.52v-.01l.07-2.36.011-.34h88.33c.519.9,1.029,1.79,1.509,2.7h.01c3.74,6.69,7,13.19,9.841,19.53.089.19.169.39.25.58C255.94,514.435,260.711,545.215,252.7,595.975Z" fill="#20405e"/>
      <path d="M139.942,541.672h1.5v-82.65H116.072v63.189c0,10.748,10.686,19.462,23.87,19.462Z" fill="#20405e"/>
      <path d="M102.582,461.725v19.53h138.57c-2.84-6.336-6.1-12.838-9.843-19.53Z" fill="#172c43"/>
      <rect x="210.065" y="460.965" width="8.434" height="23.197" fill="#20405e"/>
      <path d="M240.185,513.366l-2.672.752c.066.159,5.67,14.245,2.305,58.673h2.845c3.421-44.852-2.2-58.769-2.477-59.423Z" fill="#20405e"/>
      <path d="M97.586,329.91s7.376,58.777,6.9,75.736c-.161,5.74-.83,13.7-1.648,21.735-.444,4.358-2.489,9.444-4.2,13.147-1.359,2.936.448,18.5.448,18.5H228.993s1.947-6.613-1.209-17.072c-.655-2.168-6.293-7.825-7.016-10.205-2.223-7.349-3.96-13.064-6.331-20.819-7.529-24.618,24.824-83.107,24.824-83.107l7.2-58.177L211.63,237.365l-41.174.369S97.578,295.961,97.578,329.91Z" fill="#6fd5d5"/>
      <path d="M113.005,459.023h11.6c-.026-.986-1.989-98.954.475-127.15,1.92-21.967,34.035-61.033,46.242-74.234l-8.842-8.185c-1.907,2.059-46.734,50.805-49.406,81.368-2.523,28.867-.182,124.151-.078,128.2Z" fill="#6fd5d5"/>
      <path d="M226.537,354.133l1.247-2.858L211.2,332.3l-1.989,1.639Z" fill="#3d5f84"/>
      <path d="M229.342,347.808l1.549-2.986L218.885,318.9l-1.989,1.64Z" fill="#3d5f84"/>
      <path d="M142.1,540.521h-1.417c-13.211,0-23.96-8.766-23.96-19.538V481.26H113.9v39.723c0,11.657,11.256,21.211,25.372,21.811l-1.063,30h2.8Z" fill="#20405e"/>
      <path d="M143.713,515.863l.595-2.252-40.944-7.195-.594,2.251Z" fill="#20405e"/>
      <rect x="104.711" y="499.193" width="39.3" height="2.304" fill="#20405e"/>
      <path d="M105.355,346l-.694,2.232,34.833,7.173.695-2.233Z" fill="#3d5f84"/>
      <path d="M107.365,355.411l-.694,2.232,34.834,7.172.694-2.232Z" fill="#3d5f84"/>
      <path d="M158.778,408.5l-.695,2.233,27.344,7.564.694-2.232Z" fill="#3d5f84"/>
      <path d="M166.109,419.294l-.694,2.233,21.517,5.87.7-2.233Z" fill="#3d5f84"/>
      <path d="M209.841,480.246a14.28,14.28,0,0,0,24.153,10.336l60.476-71.409a23.446,23.446,0,0,0,6.5-10.871,22.44,22.44,0,0,0,.873-6.325,23.82,23.82,0,0,0-43.277-13.734l-.874,1.6-2.288,4.186h-.03l-2.02,3.674-.271.512-1.594,2.891-39.032,70.926a14.164,14.164,0,0,0-2.62,8.221Z" fill="#6fd5d5"/>
      <path d="M202.581,481.261c2.5,15.24,12.8,29.133,28.914,31.147l7.679.963,2.952-20.42a20.748,20.748,0,0,0-18.01-23.16l-9.788-1.2Z" fill="#e6b48a"/>
      <path d="M210.716,297.381l40.689,95.673,1.025,2.439.933,2.2.181.425,1.055,2.433,3.312,7.8a23.4,23.4,0,0,0,43.067-18.308l-47.2-110.98a23.4,23.4,0,1,0-43.069,18.319Z" fill="#6fd5d5"/>
      <path d="M251.5,401.1l3.1-.543,22.889-3.975-1.808-2.529-22.136,4.065-.452.09Z" fill="#3d5f84"/>
      <path d="M251.405,393.054l1.024,2.444,2.976-1.475,16.6-8.282-2.47-1.928-11.837,6.023Z" fill="#3d5f84"/>
      <path d="M199.485,481.26a52.829,52.829,0,0,0,6.591,17.965c8.418,14.008,32.981,15.588,34.017,15.645l.178-3.006c-.234-.012-24.018-1.548-31.623-14.2a49.8,49.8,0,0,1-6.068-16.4Z" fill="#20405e"/>
      <path d="M170.377,228.523l.082,9.215-19.641,31.62,5.527-15.308-2.507-8.625Z" fill="#6fd5d5"/>
      <path d="M211.634,237.365l-60.815,32,19.641-31.624,25.153-3.261Z" fill="#1d2d4b"/>
      <path d="M222.44,247.38l-5.3-25.393-45.174,21.082,1.949,11.3-23.095,14.995Z" fill="#6fd5d5"/>
      <path d="M72.4,491.49l9.768-16.534L58.217,460.8a15.687,15.687,0,0,0-21.484,5.528h0l-9.768,16.52,23.954,14.161A15.687,15.687,0,0,0,72.4,491.481h0Z" fill="#e6b48a"/>
      <path d="M254.168,277.586c5.289-10.822-25.91-41.892-25.91-41.892l-1.771-2.895-4.04-6.6-1.769-2.905-.012-.011-10.79-17.646L178.9,216.179l-7.94,2.695a.008.008,0,0,1-.008.01h-.013l-11.781,4.009h-.01l-7.216,2.461-7.327,2.494s-.245.425-.668,1.2v.011a208.69,208.69,0,0,0-10.711,22.961c-.468,1.18-.924,2.394-1.369,3.614-.851,2.305-1.648,4.678-2.372,7.06q-.618,1.954-1.135,3.933v.011c-4.543,16.969,6.415,28.6,18.56,25.872C251.414,269,238.863,308.9,254.168,277.586Z" fill="#20405e"/>
      <path d="M146.91,211.6s9.256,14.754,16.215,12.666S178.3,212.43,178.3,212.43Z" fill="#172c43"/>
      <path d="M136.4,212.765a56.424,56.424,0,0,0,1.336,5.527,39.28,39.28,0,0,0,14.2,7.06,29.559,29.559,0,0,0,5.611.858c.446.022.879.034,1.314.034,9.461,0,16.2-5.624,20.042-10.066a32.1,32.1,0,0,0,3.8-5.323l-2.94-1.594a31.9,31.9,0,0,1-8.808,9.62h-.01a20.816,20.816,0,0,1-11.781,4.01s0,.011-.011,0c-.467.011-.947,0-1.425-.022-9.355-.513-17.058-6.166-21.323-10.1Z" fill="#172c43"/>
      <path d="M189.863,212.013c.226-.082,5.673-2.058,16.123-8.573,10.646-6.634,17.041-17.42,17.308-17.876l-2.881-1.689c-.064.106-6.266,10.542-16.193,16.732-10.091,6.291-15.428,8.243-15.481,8.261Z" fill="#172c43"/>
      <path d="M180.474,212.841c.241.014,6.027.321,18.19-1.6,12.391-1.956,22.489-9.39,22.912-9.706l-1.993-2.68c-.1.073-9.888,7.265-21.44,9.086-11.746,1.856-17.42,1.569-17.472,1.568Z" fill="#172c43"/>
      <path d="M203.187,208.763l-14.435-6.172L182.7,213.777s7.8,1.734,20.493-5.012Z" fill="#172c43"/>
      <path d="M139.656,162.143V196.9c0,16.483,18.745,23.684,27.32,21.912,10.91-2.254,34.049-8.728,34.049-24.951,0,0-1.861-21.229-1.861-27.14s-27.918-32.195-33.273-33.21-27.048,10.612-26.232,28.632Z" fill="#e6b48a"/>
      <path d="M166.684,202.611c2.306,0,5.383-.8,8.374-4.08l-1.6-1.463c-4.759,5.212-9.483,2.878-9.53,2.854l-.99,1.93A9.09,9.09,0,0,0,166.684,202.611Z" fill="#172c43"/>
      <path d="M139.66,174.829v18.1a7.058,7.058,0,0,0,2.056.312c4.565,0,8.277-4.2,8.277-9.365,0-5.194-3.712-9.366-8.277-9.366a7.092,7.092,0,0,0-2.056.312Z" fill="#e6a168"/>
      <path d="M173,184.169a9.924,9.924,0,1,0,9.924-9.924h0A9.924,9.924,0,0,0,173,184.169Z" fill="#e6a168"/>
      <path d="M173,175.432a3.135,3.135,0,1,0,3.134-3.135A3.134,3.134,0,0,0,173,175.432Z" fill="#172c43"/>
      <path d="M145.568,175.432A3.135,3.135,0,1,0,148.7,172.3a3.135,3.135,0,0,0-3.135,3.135Z" fill="#172c43"/>
      <path d="M165.882,190.11l.006-2.508-7.4-.085.007-.077-.091-.328-.01-3.237-2.506.009.015,3.236a2.674,2.674,0,0,0,.85,2.206,2.778,2.778,0,0,0,2.4.744Z" fill="#172c43"/>
      <rect x="108.358" y="461.712" width="20.897" height="19.548" fill="#3d5f84"/>
      <rect x="162.299" y="460.965" width="8.434" height="23.197" fill="#20405e"/>
      <path d="M128.351,266.627s-.011.011,0,.011a20.648,20.648,0,0,0,4.086,3.418c5.233,3.4,12.4,5.167,20.421,5.167a62.5,62.5,0,0,0,14.35-1.736c20.956-4.967,53.77-14.966,54.108-15.067l-.979-3.189c-.319.1-33.036,10.054-53.9,15-12.672,3-24.7,1.892-32.179-2.985a16.549,16.549,0,0,1-4.766-4.554q-.617,1.955-1.135,3.933Z" fill="#172c43"/>
      <path d="M131.853,255.637c2.764,3.074,7.394,5.947,15.132,6.485,2.238.144,4.253.212,6.069.212,11.8,0,15.1-2.817,15.477-3.189l-1.158-1.2-1.114-1.235c-.044.033-3.909,3.106-19.051,2.071-7.917-.532-11.936-3.8-13.985-6.759-.468,1.18-.925,2.394-1.371,3.614Z" fill="#172c43"/>
      <path d="M220.665,223.28l-25.1,8.777,29.445-1.678Z" fill="#172c43"/>
      <path d="M230.521,239.4l-18.887,5.828,15.877-10.757Z" fill="#172c43"/>
      <path d="M142.552,227.667l14.616,8.93h-17.13Z" fill="#172c43"/>
      <path d="M147.47,532.416l-40.084,1.114,31.253,27.556Z" fill="#172c43"/>
      <path d="M185.008,124.464l-18.114,12.65L165,138.432l-8.472,5.921c-14.585-2.507-16.392,12.331-16.2,11.194a29.4,29.4,0,0,1,8.993-16.424,36.11,36.11,0,0,1,3.529-2.977,45.817,45.817,0,0,1,5.836-3.7C171.072,125.729,185.008,124.464,185.008,124.464Z" fill="#442f27"/>
      <path d="M203.336,200.822c10.091-21.714,13.577-44.956,12.907-53.237-1.128-13.961-13.7-23.858-29.233-23.556-13.483.262-20.3,4.617-24.348,6.459-.884.4,2.022-.483,1.716.439h0c-3.678,19.272,27.277,8.405,30.475,34.973Z" fill="#442f27"/>
      <path d="M156.529,144.351s35.238-4.279,38.324,21.549c-.273-9.143-7.65-25.066-15.606-28.626-10.622-4.74-21.606,5.961-22.718,7.077Z" fill="#35261e"/>
      <path d="M140.316,155.663c0-3.609,4-12.71,7.168-14.128,4.229-1.887,9.384,2.484,9.384,2.484C154.294,147.052,142.789,145.6,140.316,155.663Z" fill="#35261e"/>
      <path d="M177.682,129.46c-2.975,1.346-14.225,9.976-14.225,9.976,6.28-2.994,10.87-7.337,19.876-8.345,20.869-2.336,22.489,55.892,23.014,62.155-.147-1.755-.838-31.73-2.252-41.781C200.1,123.037,185.747,125.812,177.682,129.46Z" fill="#35261e"/>
      <path d="M166.18,137.305a9.529,9.529,0,0,1-2.449,1.82c-.041-.29-4.774-5.772-10.6-3.056a32.154,32.154,0,0,0-7.989,4.706,38.026,38.026,0,0,1,4.69-4.29,18.363,18.363,0,0,1,6.86-2.908C161.921,132.412,166.671,136.815,166.18,137.305Z" fill="#35261e"/>
      <path d="M203.855,199.882c5.389-19.056,18.768-55.648.017-70.078a39.754,39.754,0,0,0-9.508-5.041,28.721,28.721,0,0,1,10.9,2.837c24.292,13.61,10.929,54.2-1.413,72.282Z" fill="#172c43"/>
      <path d="M194.853,165.9s1.311,9.612.71,16.295c-2.094,23.254,1.72,23.733,3.409,21.763,1.239-1.445,4.886-3.973,4.948-4.258.293-1.356-4.675-28.124-4.675-28.124Z" fill="#3f2c24"/>
    </g>
    <g>
      <path d="M295.29,124.405l104.316-.088V104.993a12.9,12.9,0,0,0-12.9-12.9H308.073c-7.124,0-8.064,6.2-8.707,11.843Z" fill="#e0e0dc"/>
      <path d="M275.207,223.048l55.4-30.17V102.939H305.153a9.646,9.646,0,0,0-4.65,1.176C297.335,105.823,302.143,100.5,275.207,223.048Z" fill="#a3a3a0"/>
      <path d="M302.554,102.9s-1.936,80.447-11.811,97.693-15.8,25.933-15.8,25.933l24.311-122.071Z" fill="#e0e0dc"/>
      <path d="M270.326,302.776c5.184-.508,25.844-1.986,30.763-3.7,0,0,81.5-122.425,28.1-116.915s-52.749,60.531-83.078,102.826c-9.667,29.607,11.062,18.869,24.213,17.785Z" fill="#fafaf5"/>
      <path d="M463.421,595.975H273.471l19.82-175.4v-.01l.159-1.43v-22.9l1.1-11.4.78-8.08.961-9.98-4.651-26.66-1.12-6.43-1.84-10.56s-.17-3.87-.339-10.28c-.091-3.29-.18-7.25-.24-11.71-.051-2.62-.081-5.42-.111-8.36-.019-3.16-.029-6.48-.019-9.91-.01-.6-.01-1.2,0-1.81,0-.91.01-1.83.019-2.75.02-3.94.07-8,.161-12.1.07-3.5.169-7.04.3-10.57.25-6.79.61-13.56,1.12-20.01.62-7.93,1.461-15.38,2.591-21.81,1.829-10.45,4.409-18.21,8.01-20.95a1.467,1.467,0,0,1,.219-.16c0-.01.011-.01.011-.01a4.993,4.993,0,0,1,1.52-.75c1.779-.52,3.4-1.04,4.879-1.59.88-.31,1.71-.64,2.5-.97a29.2,29.2,0,0,0,8.28-5.04,26.036,26.036,0,0,0,3.47-3.78c2.851-3.72,5.27-8.48,8.96-14.97.2-.34.391-.69.6-1.04.26-.45.52-.92.8-1.39H365.95v.01s4.17,1.8,9.91,4.3c12.44,5.42,32.231,14.09,32.65,14.54a49.52,49.52,0,0,1,6.021,8.22c.64,1.06,1.28,2.18,1.9,3.36a123.472,123.472,0,0,1,7.34,16.88c4.73,13.22,8.91,30.14,11.87,50.59v.01c.031.17.05.34.07.52v.02c.2,1.33.391,2.69.571,4.05.39,2.94.75,5.95,1.1,9.03v.02c.151,1.41.3,2.84.441,4.27V279q1.065,10.68,1.679,22.38.54,10.395.661,21.59c.019,1.09.029,2.18.029,3.29q.045,6.615-.089,13.49-.105,6.84-.4,13.96-.238,6.42-.639,13.06c.04.39.079.76.119,1.15-.009.01,0,.01,0,.01.651,6.1,1.31,12.34,1.991,18.67v.01c2.66,25.16,5.5,51.86,8.23,77.62C455.61,522.605,461.311,576.145,463.421,595.975Z" fill="#fafaf5"/>
      <path d="M313.305,244.815l2.613-.569-5.817-51.46-.711-3.323c-.96-.924-1.742-.25-2.63.532Z" fill="#a3a3a0"/>
      <path d="M287.987,204.464l.693,3.146,1.475,6.841Z" fill="#192636"/>
      <path d="M324.986,260.993l2.079,1.653,64.722-81.836c-.622-.658-1.262-1.3-1.9-1.92Z" fill="#a3a3a0"/>
      <path d="M331.559,163.057l11.994,7.04-5.664,22.726-10.757-1.864Z" fill="#e6b48a"/>
      <rect x="268.066" y="278.302" width="109.792" height="61.817" fill="#a3a3a0"/>
      <path d="M330.592,285.882a38.879,38.879,0,1,1-25.546-48.688h0a38.879,38.879,0,0,1,25.547,48.687Z" fill="#e6b48a"/>
      <path d="M275.325,338.427l119.366-37.215L374.991,238,258.852,275.713c-17.454,5.44-30.425,23.507-24.985,40.961a33.1,33.1,0,0,0,41.448,21.756l.006,0Z" fill="#fafaf5"/>
      <path d="M270.677,271.863l52.042,62.849,33.157-17.577Z" fill="#a3a3a0"/>
      <path d="M345.58,278.7c6.825,21.894,27.216,35.01,45.545,29.3S418.78,279.9,411.954,258.01s-27.216-35.01-45.545-29.3S338.754,256.8,345.58,278.7Z" fill="#e6b48a"/>
      <path d="M423.531,318.323c-5.132,14.511-30.424,23.036-47.289,13.783a34.83,34.83,0,0,1-13.784-47.289l30.464-102.8c70.029,10.335,35.741,121.8,30.609,136.308Z" fill="#fafaf5"/>
      <rect x="252.447" y="274.493" width="20.932" height="2.667" transform="matrix(0.95, -0.312, 0.312, 0.95, -72.938, 95.806)" fill="#a3a3a0"/>
      <path d="M332.362,174.7l33.584-11.524V119.84H328.719Z" fill="#e6b48a"/>
      <path d="M328.719,146.406l22.917-2.837-22.917,13.986Z" fill="#192636"/>
      <path d="M372.042,336.346,270.677,271.864s25.75-29.434,46.257-27.262l88.613,30.672a34.829,34.829,0,0,1-33.5,61.072h-.005Z" fill="#fafaf5"/>
      <path d="M365.745,153.676,340.177,172.4l-2.288,20.426,38.436-24.715Z" fill="#fafaf5"/>
      <path d="M333.271,171.506l-3.311-6.013-8.981,14.956,6.153,10.508Z" fill="#fafaf5"/>
      <path d="M371.5,263.741l-38.232-12.733,12.075-3.764Z" fill="#a3a3a0"/>
      <path d="M398.463,344.251a33.244,33.244,0,0,0,11.2-1.782c7.089-2.532,12.2-7.751,15.209-15.515,7.7-19.942,8.23-40.943,9.343-62.29l-2.665-.042c-1.107,21.033-1.58,41.723-9.167,61.371-2.713,7.008-7.3,11.707-13.621,13.967-17.974,6.41-44.454-8.4-44.72-8.548l-1.314,2.319c.918.521,18.8,10.521,35.733,10.521Z" fill="#a3a3a0"/>
      <path d="M367.4,262.737l18.285-52.96,2.12,2.119-17.854,51.612Z" fill="#a3a3a0"/>
      <path d="M385.65,268.97l.845-2.527-71.3-25.152-1.055,3.368Z" fill="#a3a3a0"/>
      <path d="M304.966,103.519l6.408,12.641V102.311h-1.636a9.919,9.919,0,0,0-4.778,1.208Z" fill="#192636"/>
      <path d="M328.478,150.514l38.216-6.64V103.117c0-14.9-12.651-26.968-28.256-26.968s-28.256,12.074-28.256,26.968v32.118c0,11.146,7.875,17.266,18.3,15.279Z" fill="#e6b48a"/>
      <path d="M310.173,110.385v14.73a5.785,5.785,0,0,0,1.673.254c3.713,0,6.732-3.417,6.732-7.619,0-4.225-3.019-7.619-6.732-7.619a5.785,5.785,0,0,0-1.673.254Z" fill="#e6a168"/>
      <path d="M358.19,108.685s-.131,13.508-5.4,19.437-20.306,3.163-20.306,3.163-2.484-6.317-7.633-5.231a11.669,11.669,0,0,0-8.066,5.577l-2.662-2.514s-14.732,14.653-2.088,22.456c16.982,10.481,39.7.288,46.152-6.974s4.674-35.913,4.674-35.913Z" fill="#192636"/>
      <path d="M324.805,123.377c-1.481,2.616,2.182,7.491,8.182,10.888s12.065,4.03,13.546,1.415-2.179-7.5-8.179-10.889-12.065-4.03-13.546-1.414Z" fill="#192636"/>
      <path d="M327.732,123.39c1.43,2.466-2,7-7.659,10.127s-11.406,3.664-12.836,1.2,2-7,7.659-10.128,11.406-3.664,12.836-1.2Z" fill="#192636"/>
      <path d="M360.1,111.568h9.258V80.5H353.432V104.9a6.665,6.665,0,0,0,6.665,6.665h0Z" fill="#192636"/>
      <path d="M355.753,114.9a12.888,12.888,0,1,0,0-.006v.006Z" fill="#fcab67"/>
      <path d="M408.853,193.593h9.7l-18.893-83.18a7.475,7.475,0,0,0-7.475-7.474l-37.006-.224c6.611,108.231,21.186,100.7,37.85,116.388Z" fill="#e0e0dc"/>
      <path d="M337.29,117.985a8.073,8.073,0,1,0,8.073-8.073h0a8.073,8.073,0,0,0-8.073,8.071v0Z" fill="#e6a168"/>
      <path d="M317.1,130.91l18.01-.789s-8.37,13.466-18.01.789Z" fill="#fafaf5"/>
      <path d="M337.29,110.885a2.55,2.55,0,1,0,2.55-2.55h0a2.55,2.55,0,0,0-2.55,2.55Z" fill="#192636"/>
      <path d="M314.977,110.885a2.55,2.55,0,1,0,2.55-2.55h0a2.55,2.55,0,0,0-2.549,2.55Z" fill="#192636"/>
      <path d="M325.241,122.243a2.221,2.221,0,0,0,.374-.031l4.624.031.007-2.041-5.168-.068.007-.062-.073-.267L325,117.172l-2.041.007.01,2.633a2.186,2.186,0,0,0,.695,1.8,2.267,2.267,0,0,0,1.574.636Z" fill="#192636"/>
      <path d="M339.644,54.375h16.73a34,34,0,0,1,34,34v14.564H305.653V88.375a34,34,0,0,1,34-34h-.009Z" fill="#e0e0dc"/>
      <path d="M306.053,83.74h84.556a1.68,1.68,0,0,1,1.68,1.68v5.548a1.68,1.68,0,0,1-1.68,1.68H306.053a1.68,1.68,0,0,1-1.68-1.68V85.423a1.68,1.68,0,0,1,1.68-1.68Z" fill="#192636"/>
      <rect x="391.252" y="142.666" width="2.788" height="33.682" transform="translate(-7.586 298.891) rotate(-41.31)" fill="#a3a3a0"/>
      <rect x="388.981" y="125.532" width="2.789" height="34.331" transform="translate(9.57 309.259) rotate(-43.704)" fill="#a3a3a0"/>
      <path d="M352.564,575.184h2.583l-.065-86.649-2.583-.024Z" fill="#a3a3a0"/>
      <path d="M319.629,419.282,305.071,575.2h2.567L322.2,419.282Z" fill="#a3a3a0"/>
      <path d="M388.475,428.467l24.613,146.738H415.7L391.085,428.467Z" fill="#a3a3a0"/>
    </g>
    <g>
      <path d="M1386.624,377.877l-21.75,30.831-46.819-27.1a23.649,23.649,0,0,1-8.609-32.316q.429-.739.909-1.446l11.7-17.215Z" fill="#192636"/>
      <path d="M1368.27,320.924v.011l-7.972.583-6.928.5-32.152,2.332-11.479-24.191-12.386-26.1s-9.024-118.13,7.28-110.254,57.936,141.758,57.936,141.758l1.221,3.288,1.957,5.289,1.166,3.167Z" fill="#e0e0dc"/>
      <path d="M1400.641,423.072l-40.124,20.53s-18.485-23.364-19.156-24.324c0,0-9.088-5.26-12.9-11.078-25.115-38.288-49.883-95.18-22.614-114.562a24.383,24.383,0,0,1,2.166-1.407c16.615-9.632,32.449-3.475,46.315,10.413.77.769,1.539,1.561,2.3,2.386q1.7,1.813,3.332,3.783c.715.836,1.418,1.7,2.1,2.584.792.979,1.562,1.99,2.32,3.013v.011c14.6,19.651,20.684,45.514,27.722,68.012l2.66,12.666.12.594.716,3.365Z" fill="#e0e0dc"/>
      <path d="M1370.083,421.52l7.524-3.859a18.111,18.111,0,0,1,24.38,7.848h0l12.66,24.681a23.854,23.854,0,0,1-10.338,32.109l-23.64,12.119-20.925-40.8a23.854,23.854,0,0,1,10.338-32.11Z" fill="#e6b48a"/>
      <path d="M1283.686,167.342H1162.579V58.7a14.957,14.957,0,0,1,14.955-14.957h91.194A14.955,14.955,0,0,1,1283.685,58.7V167.342Z" fill="#e0e0dc"/>
      <rect x="1201.314" y="70.184" width="71.591" height="102.565" fill="#a3a3a0"/>
      <path d="M1174.392,540.014h-14.657c-25.93,0-33.986,14.214-36.179,35.266H1233.8c-11.688-21.052-33.478-35.266-59.408-35.266Z" fill="#192f47"/>
      <path d="M1242.894,432.342H1121.776l.994,142.934h120.124Z" fill="#192f47"/>
      <path d="M1242.048,521.223h3.072V490.3l26.709-10.238-.824-47.712h-3.072l.824,45.6-26.709,10.238Z" fill="#192636"/>
      <path d="M1141.988,170.468s-28.435,9.9-57.011,39.409c-35.851,37.02-49.923,67.216-49.923,67.216l64.941,33.175,37.742-41.731Z" fill="#fafaf5"/>
      <path d="M1374.831,595.975h-252.18l.119-20.7v-.09l.12-20.55.511-89.16.13-22.51.06-10.62.1-17.04.05-8.43,6.26-13.6-3.679-19.35L1130,277.1l11.38-101.26.6-5.36v-.01h.01l20.591-11.4,1.279-.71,34.9-19.31,2.551-1.41,9.579-5.3.06-.03h42.891l.01.01h.009l13.471,8.38,4.379,2.72,1.191.74,10.789,6.71,15.091,9.38,5.439,3.38.02.01,1.13.71c6.681,4.04,9.63,30.38,10.9,56.96v.04c1.391,29.45.71,59.18.71,59.18l-.02.13-.169,1.09-1.081,7.11-2.75,18.08-.049.34-6.59,43.2-1.961,12.91-1.1,7.21,4.67,13.48,4.79,13.81-1.1,22.74-.069,1.46-.031.63,29.93,81.92,12.721,34.81,1.449,3.97Z" fill="#fafaf5"/>
      <path d="M1248.236,170.468h-13.883l-3.016-36.816,21.473-1.336Z" fill="#e6b48a"/>
      <rect x="1210.983" y="82.389" width="42.891" height="49.923" fill="#e6b48a"/>
      <path d="M1253.846,132.312h-42.893s12.913,16.947,25.093,16.947,17.8-16.947,17.8-16.947Z" fill="#e6b48a"/>
      <rect x="1052.55" y="418.752" width="109.029" height="152.753" transform="translate(378.513 1464.642) rotate(-77.173)" fill="#162941"/>
      <path d="M1057.188,390.725c.446,1.085.891,2.131,1.318,3.158,7.306,17.15,13.255,28.836,13.255,28.836L1115.383,415s.368-12.779,0-26.809c-.019-1.259-.058-2.558-.1-3.9-.232-7.158,4.728-15.931,4.728-15.931-4-49.316-23.536-122.607-67.341-108.906-33.732,10.527-24.911,76.935-8.453,120.9,2.441,6.52,12.966,10.371,12.966,10.371Z" fill="#fafaf5"/>
      <path d="M1205.966,127.95l27.85,17.88.533,24.638-35.6-31.4Z" fill="#fafaf5"/>
      <path d="M1253.874,127.113l-7.416,16.515,1.778,26.84,19.186-29.684Z" fill="#fafaf5"/>
      <rect x="1097.326" y="263.207" width="2.906" height="27.779" transform="matrix(0.863, -0.505, 0.505, 0.863, 10.487, 592.878)" fill="#a3a3a0"/>
      <rect x="1090.198" y="275.077" width="2.906" height="26.69" transform="translate(199.935 981.048) rotate(-52.637)" fill="#a3a3a0"/>
      <path d="M1057.188,390.725c.446,1.085.891,2.131,1.318,3.158,3.643-4.593,12.092-13.526,24.591-16.413,13.953-3.217,27.847,7.015,32.285,10.716-.019-1.259-.058-2.558-.1-3.9-6.2-4.709-19.282-12.809-32.925-9.651-12.36,2.851-20.848,10.951-25.169,16.085Z" fill="#a3a3a0"/>
      <rect x="1206.312" y="326.81" width="2.909" height="57.931" transform="translate(328.237 1256.721) rotate(-62.103)" fill="#a3a3a0"/>
      <rect x="1185.995" y="336.553" width="2.909" height="57.931" transform="translate(308.851 1243.985) rotate(-62.105)" fill="#a3a3a0"/>
      <rect x="1131.046" y="262.633" width="26.431" height="2.907" transform="translate(96.155 793.755) rotate(-39.806)" fill="#a3a3a0"/>
      <rect x="1150.207" y="258.468" width="2.905" height="15.036" transform="translate(602.996 1312.903) rotate(-75.347)" fill="#a3a3a0"/>
      <path d="M1321.168,486.77l-2.273,1.812,38.394,86.7h3.718Z" fill="#a3a3a0"/>
      <rect x="1212.652" y="498.334" width="2.908" height="76.947" fill="#a3a3a0"/>
      <path d="M1223.133,112.2l-12.6-6.1v8.354Z" fill="#e6a168"/>
      <path d="M1250.286,112.233l-44.32-7.7V57.267c0-17.273,14.671-31.275,32.769-31.275s32.768,14,32.768,31.275V94.513c0,12.927-9.132,20.023-21.218,17.719Z" fill="#e6b48a"/>
      <path d="M1271.5,57.267l.326,133.884,26.984-30.782Z" fill="#e0e0dc"/>
      <path d="M1271.514,65.7V82.781a6.709,6.709,0,0,1-1.94.295c-4.306,0-7.808-3.962-7.808-8.836,0-4.9,3.5-8.836,7.808-8.836a6.675,6.675,0,0,1,1.94.3Z" fill="#e6a168"/>
      <path d="M1226.894,112c20.151,14.778,48.4.664,48.4.664l-8.361-25.234-3.082,2.91s-2.414-5-9.356-6.467c-5.972-1.25-8.861,6.058-8.861,6.058a55.405,55.405,0,0,1-11.317.689Z" fill="#192636"/>
      <path d="M1254.553,80.762c1.718,3.034-2.53,8.687-9.488,12.627s-14,4.673-15.712,1.643,2.53-8.687,9.488-12.627,13.991-4.675,15.709-1.641Z" fill="#192636"/>
      <path d="M1251.153,80.777c-1.658,2.859,2.319,8.118,8.882,11.745s13.227,4.249,14.885,1.39-2.319-8.118-8.881-11.745-13.227-4.248-14.885-1.389Z" fill="#192636"/>
      <path d="M1213.43,70.184a14.944,14.944,0,1,1-14.944-14.944h0a14.944,14.944,0,0,1,14.944,14.944Z" fill="#fcab67"/>
      <path d="M1207.844,203.364l-49.2-31.659-37.129,8.879,20.47-21.976,20.524-93.618a8.668,8.668,0,0,1,8.668-8.668h42.976Z" fill="#e0e0dc"/>
      <path d="M1240.067,74.508a9.362,9.362,0,1,1-9.362-9.362,9.362,9.362,0,0,1,9.362,9.362Z" fill="#e6a168"/>
      <path d="M1263.481,89.5l-20.886-.916s9.707,15.617,20.886.916Z" fill="#fafaf5"/>
      <path d="M1240.067,66.265a2.957,2.957,0,1,1-2.957-2.957,2.957,2.957,0,0,1,2.957,2.957Z" fill="#192636"/>
      <path d="M1265.943,66.265a2.957,2.957,0,1,1-2.957-2.957,2.957,2.957,0,0,1,2.957,2.957Z" fill="#192636"/>
      <path d="M1254.04,79.443a2.617,2.617,0,0,1-.433-.036l-5.363.036-.008-2.366,5.993-.08-.008-.072.085-.31.011-3.054,2.366.008-.011,3.053a2.536,2.536,0,0,1-.806,2.082,2.628,2.628,0,0,1-1.825.738Z" fill="#192636"/>
      <path d="M1232.116,0h-19.4a39.424,39.424,0,0,0-39.424,39.424v16.9l40.839,4.509L1253.83,47l17.71,9.324v-16.9A39.424,39.424,0,0,0,1232.116,0Z" fill="#e0e0dc"/>
      <path d="M1271.075,34.054h-98.059A1.948,1.948,0,0,0,1171.068,36v6.433a1.948,1.948,0,0,0,1.948,1.948h98.059a1.948,1.948,0,0,0,1.948-1.948V36a1.948,1.948,0,0,0-1.948-1.948Z" fill="#192636"/>
      <rect x="1160.779" y="110.596" width="39.062" height="3.232" transform="translate(316.862 924.727) rotate(-48.69)" fill="#a3a3a0"/>
      <rect x="1163.661" y="91.93" width="39.783" height="3.232" transform="translate(298.751 885.173) rotate(-46.338)" fill="#a3a3a0"/>
      <path d="M1214.148,63.312l-56.712,107.182,50.408,32.87Z" fill="#e0e0dc"/>
      <path d="M1068.475,432.9l1.285-8.358a18.111,18.111,0,0,1,20.653-15.148h0l27.416,4.215a23.853,23.853,0,0,1,19.95,27.2l-4.038,26.259-45.317-6.969a23.85,23.85,0,0,1-19.95-27.2v0h0Z" fill="#e6b48a"/>
      <path d="M1314.8,422.089h-3.312l.921-24.306-9.7-26.878,14.244-90.211-.694-60.377h3.037l1.073,61.044-13.833,89.493,9.765,26.991Z" fill="#a3a3a0"/>
      <path d="M1363.8,308.839l-3.277,2.7L1352,318.582l-2.1-2.54,8.324-6.884,4.355-3.607Z" fill="#a3a3a0"/>
      <path d="M1366.92,317.3l-.968.616-5.652,3.606-12,7.643-1.782-2.783,6.851-4.365,10.479-6.686,1.9-1.2Z" fill="#a3a3a0"/>
      <path d="M1396.493,403.249a75.6,75.6,0,0,0-16.494.6,50.8,50.8,0,0,0-17.33,6.532l-1.825-2.76a53.74,53.74,0,0,1,18.583-7.026,76.592,76.592,0,0,1,16.351-.715Z" fill="#a3a3a0"/>
    </g>
    <path d="M203.706,176.473c-2.154,3.274-3.925,7.034-4.2,10.814-.19,4.3.84,9.132,3.487,12.548,1.73,2.6,4.377,3.444,4.927,7.055.284,7.609-10.119,9.552-15.992,12.477-1.394.838-1.565.659-1.813,1.944a7.044,7.044,0,0,0,.673,3.71c1.856,4.114,5.688,7.265,10.157,9.456a25.971,25.971,0,0,1-9.405-4.4c-3.639-2.814-7.346-7.51-5.268-12.034,1.455-2.385,4.363-4.057,6.534-5.661,2.2-1.649,5.1-3.254,6.474-5.156a.759.759,0,0,0-.066.459c.032.421.276.542-.027.223-5.657-5.313-6.424-12.993-5.828-19.73a29.877,29.877,0,0,1,2.584-9.78c.647-1.532,1.273-2.975,2.053-4.55l5.71,2.626Z" fill="#442f27"/>
    <path d="M136.738,173.332s.684,5.563,1.482,6.709a3.968,3.968,0,0,0,1.417,1.409l.019-14.206Z" fill="#3f2c24"/>
    <g>
      <path d="M542.687,43.143s4.5,37.459,5.593,40.8,17.312-34.6,17.431-37.22S542.687,43.143,542.687,43.143Z" fill="#e6b48a"/>
      <path d="M513.74,4.885c-.03.01-.05.02-.079.03-.951.41-1.9.84-2.83,1.31-.29.14-.591.29-.881.44l-.01.01a56.548,56.548,0,0,0-8.67,5.45h-.01c-.39.29-.78.6-1.15.9-.019.02-.049.04-.069.06a55.863,55.863,0,0,0-7.47,7.22c-.121.13-.23.26-.351.4a.01.01,0,0,1-.01.01,56.594,56.594,0,0,0-11.619,22.99c-.5,2.01-3.133,22.857-3.54,30.53C476,94.057,481.62,111.415,494.86,120.1v.01h.01c0,.01,0,.01.01,0l.021.01a36.9,36.9,0,0,0,16.529,5.61h.01a61.014,61.014,0,0,0,11.05.13c.21-.02.44-.03.661-.05h.02c.43-.05.87-.09,1.309-.13.01-.01.01,0,.01,0,.2-.02.421-.05.63-.07h.02c.31-.03.63-.07.941-.11h.01c.22-.02.419-.05.639-.08,1.16-.15,2.331-.32,3.551-.54,1.13-.18,2.29-.4,3.469-.64l.081-.01c1.71-.35,3.529-.77,5.349-1.24,1.02-.26,2.04-.53,3.03-.82,1.4-.39,2.77-.81,4.111-1.25h.01c16.129-5.27,27.909-13.6,35.119-25.56a.01.01,0,0,0,.01-.01c5.571-9.23,8.06-20.64,8.41-34.48C591.22,6.815,546.831-9.285,513.74,4.885Zm-30.909,41.95c.26-1,.5-1.97.76-2.94,0-.01.01-.02.01-.03.49-1.8.99-3.54,1.519-5.22,1.06-3.44,2.191-6.66,3.37-9.64.081-.17.161-.38.25-.62.87-2.12,1.76-4.14,2.681-6.03a6.971,6.971,0,0,1,1.549-2.01,13.141,13.141,0,0,1,1.681-1.29h.01a16.964,16.964,0,0,1,1.709-.98,40.235,40.235,0,0,1,14.62-3.64,56.163,56.163,0,0,1,6.25-.12,50.49,50.49,0,0,1,7.081.74c13.8,2.37,27.33,10.58,30.449,28.95,1.42,8.35.7,18.78-3.13,31.73,0,.02-.01.03-.01.05-.029.1-.059.2-.089.3a21.439,21.439,0,0,1-1.14,3.01c-.011,0-.011.01-.011.02a18.988,18.988,0,0,1-1.21,2.17c-.009.01-.009.03-.019.04-.25.36-.4.54-.4.54-.169.5-.349.99-.55,1.47a.623.623,0,0,1-.049.14,41.214,41.214,0,0,1-10.031,14.98.262.262,0,0,1-.059.05c-.081.07-.17.16-.28.26-.561.54-1.14,1.04-1.73,1.52-.66.55-1.341,1.08-2.03,1.58-.99.71-2,1.38-3.031,1.99-.23.14-.449.27-.679.4-.3.17-.591.33-.891.49-.47.25-.94.5-1.42.73-.38.19-.77.37-1.159.54-.31.14-.631.28-.95.4-.4.17-.8.32-1.2.47a37.283,37.283,0,0,1-7.33,1.97.057.057,0,0,0-.039.01h-.02c-.3.05-.6.09-.9.13-.57.07-1.13.13-1.7.18-.34.03-.679.05-1.02.07-.589.04-1.2.05-1.8.05h-.14c-.1,0-.2-.01-.31-.01a32,32,0,0,1-8.46-1.18h-.01C501.351,107.645,482.831,46.845,482.831,46.835Z" fill="#172c43"/>
      <path d="M537.788,98.768a39.641,39.641,0,0,1-8.356,5.98,36.686,36.686,0,0,1-4.73,2.14,37.267,37.267,0,0,1-7.332,1.966,34.166,34.166,0,0,1-3.676.39c-.594.041-1.208.051-1.8.051.092,0,.195,0,.307-.01C518.968,108.885,542.519,94.4,537.788,98.768Z" fill="#172c43"/>
      <path d="M448.365,203.249s-11.032-33.434,15.713-52.9,81.464-20.52,81.464-20.52Z" fill="#192f47"/>
      <path d="M660.8,204.961v89.932H525.376V132.925h63.371A71.991,71.991,0,0,1,660.8,204.858v.1Z" fill="#172c43"/>
      <path d="M660.8,204.961v13.162c-5.669-1.764-14.468-4.6-14.816-5.255-.512-.976-27.119-51.041-27.119-51.041s17.6,16.793,27.279,21.475a46.959,46.959,0,0,0,12.5,4.145,71.993,71.993,0,0,1,2.15,17.518Z" fill="#192636"/>
      <path d="M385.533,274.445a25.293,25.293,0,0,0,35.585,3.614l.024-.019,24.836-20.291,2.355-1.972L470.1,238.005l52.119-42.613a25.18,25.18,0,0,0,9.02-23.331,22.552,22.552,0,0,0-1.724-6.02,23.59,23.59,0,0,0-3.737-6.263,25.479,25.479,0,0,0-7.207-6.079h-.035l-.032-.042a25.361,25.361,0,0,0-5.615-2.24,18.473,18.473,0,0,0-2.759-.614,25.05,25.05,0,0,0-18.636,4.387c-.456.332-.91.663-1.331,1l-.844.708-6.848,5.586-.083.06c-.084.06-.129.126-.172.156l-14.957,12.213-2.226,1.81-7.27,5.957-2.1,1.72L389.087,238.83a25.265,25.265,0,0,0-3.609,35.548h0c.017.023.036.044.054.067Z" fill="#283d62"/>
      <path d="M415.085,345.359s44.133-5.279,40.564-20.274-35.522,8.824-40.564,20.274Z" fill="#192636"/>
      <path d="M384.162,275.033l53.8,91.15a15.469,15.469,0,0,0,27.787-13.264l-37.163-98.382c-4.855-13.378-18.431-21.029-31.806-16.179a25.436,25.436,0,0,0-15.213,32.6c.031.086.063.171.1.257Z" fill="#e6b48a"/>
      <path d="M455.651,325.086s-3.789-3.994-15.38,1.134-25.19,19.139-25.19,19.139l-35.3-77.024s-8.157-17.92,13.461-29.5,33.136,5.557,36.545,14.949l25.862,71.291Z" fill="#283d62"/>
      <path d="M434.8,362.711l.3-.9a24.063,24.063,0,0,1,30.441-15.21h.007l18.118,6.047a22.458,22.458,0,0,1,14.192,28.411h0l-7.918,23.727L448.99,391.122A22.458,22.458,0,0,1,434.8,362.709Z" fill="#e6b48a"/>
      <path d="M526.057,124.353s-39.242,32.045-67.274,73.338-26.521,103.683-26.521,103.683h98.187Z" fill="#172c42"/>
      <path d="M601.57,365.949c13.636,23.653,19.566,37.4,19.566,37.4H464.6L463.512,341.6l-4.11-15.468,5.427-31.346s-4.28-78.339,7.159-100.972c5.652-11.183,53.406-71.65,53.406-71.65h42.613s61.068,35.345,56.569,72.942c-4.237,35.41-5.652,41.966-5.652,41.966S606.9,277.755,599.9,309.367c-.829,3.746,3.64,13.66,2.979,17.069-1.792,9.255-3.213,12.256-2.979,16.756.47,9.3-2.266,15.881,1.678,22.753Z" fill="#3d5f84"/>
      <path d="M478.3,364.768l14.461-.368c-.03-1.183-2.984-118.654-.025-152.516,2.306-26.382,40.875-73.3,55.54-89.151l-10.617-9.83c-2.29,2.473-56.126,61.015-59.335,97.719-3.031,34.669-.149,149.281-.024,154.142Z" fill="#6fd5d5"/>
      <path d="M566.64,595.975H446.88c-7.729-49.6-3.66-96.64,2.521-131.75a434.44,434.44,0,0,1,11.15-47.8c2.4-8.06,4.05-12.52,4.05-12.52H566.48l.01,12.52Z" fill="#162941"/>
      <path d="M654,595.975H488.051l4.73-140.51.2-6.18,1.111-32.86.419-12.52H621.14s.431.71,1.2,2.09c1.139,2.06,3.039,5.59,5.4,10.43C641.3,444.365,669.811,515.705,654,595.975Z" fill="#162941"/>
      <path d="M629.781,571.507c6.11-110.528-30.2-158.781-37.833-167.606-.4-.47-.759-.833-.976-1.086v-62.1h-2.713V403.9l.4.4c.469.47,45.138,45.681,38.41,167.065-.035.642-.078,1.282-.114,1.924h2.72c.034-.594.074-1.186.1-1.78Z" fill="#162941"/>
      <path d="M629.8,416.43H459.4l.695-12.649.241-4.133.989-17.852.214-4.024.521-9.374.228-4.039,1.228-22.2H595.018a63.386,63.386,0,0,0,1.671,11.862c.067.321.148.643.228.95.267,1.017.562,2.019.882,3a45.545,45.545,0,0,0,3.772,8.531c1.4,2.434,2.782,4.827,4.105,7.168,2.487,4.387,5.028,8.866,7.474,13.2.79,1.4,1.578,2.782,2.341,4.146,7.877,13.957,14.308,25.425,14.308,25.425Z" fill="#1d2d4b"/>
      <path d="M597.8,357.969,462.058,368.4l.228-4.039,134.4-10.335c.067.32.148.642.228.949.267,1.017.562,2.019.882,3Z" fill="#162941"/>
      <path d="M615.491,391.009l-68.56-4.1h-.022l-16.06-.977h-.027L461.327,381.8l.214-4.025,85.091,5.109h.014l.4.013,66.112,3.971c.789,1.4,1.578,2.782,2.34,4.146Z" fill="#162941"/>
      <path d="M547.788,386.742l-.856.174h-.023l-86.817,16.863.241-4.132,70.485-13.707h.027l15.779-3.062h.013l.388-.08.014.093Z" fill="#162941"/>
      <path d="M526.7,115.774l-22.614,14.745,3.7,8.3L494.5,177.2l38.05-46.567Z" fill="#6fd5d5"/>
      <path d="M523.962,124.353,494.5,177.2s75.547-45.492,76-45.793-.753-7.63-.753-7.63Z" fill="#1d2d4b"/>
      <path d="M561.93,389l62.3,17.519L610.1,376.013Z" fill="#192636"/>
      <path d="M626.891,364.675l-.717-25-43.149,1.236A22.456,22.456,0,0,0,561.22,364h0l.716,25,43.151-1.237a22.457,22.457,0,0,0,21.805-23.091Z" fill="#e6b48a"/>
      <path d="M699.657,290.8a25.293,25.293,0,0,1-35.715-1.96h0l-.016-.018L653.535,277.21l-2.032-2.286-8.959-10.017-2.019-2.313-18.738-20.941-44.85-50.212A25.141,25.141,0,0,1,571.655,167a22.821,22.821,0,0,1,2.634-5.683,23.765,23.765,0,0,1,4.668-5.6,25.572,25.572,0,0,1,8.077-4.881h.026l.04-.04a25.488,25.488,0,0,1,5.9-1.337,18.121,18.121,0,0,1,2.822-.174,25.058,25.058,0,0,1,17.714,7.221c.4.4.8.8,1.164,1.2l.722.829,5.9,6.579c.026,0,.026.039.026.039a.039.039,0,0,1,.04.038v0h0a1.369,1.369,0,0,1,.149.174l12.877,14.4,1.912,2.126,6.258,7.02,1.805,2.02,57.3,64.133a25.266,25.266,0,0,1-1.973,35.677v0l-.059.052Z" fill="#283d62"/>
      <path d="M494.5,177.194l79.445-47.019V110.282L538.063,127.01l1.433,11.076Z" fill="#6fd5d5"/>
      <path d="M700.535,295.732l-77.681,71.35a15.469,15.469,0,0,1-22.761-20.736l63.58-83.589c8.515-11.4,23.668-13.926,35.072-5.408a24.575,24.575,0,0,1,5.688,34.285q-.287.4-.587.787Z" fill="#e6b48a"/>
      <path d="M621.787,165.729V301.362H515.378s4.3-52.445,11.321-95.848c.108-.614.217-1.193.325-1.808v-.036c.253-1.411.542-2.822.9-4.232,9.474-40.618,46.006-72.989,46.006-72.989,9.113,2.64,17.76,8.282,25.136,14.5.688.615,1.375,1.194,2.062,1.809A136.93,136.93,0,0,1,614.117,156c.614.722,1.229,1.41,1.774,2.1,2.747,3.328,4.666,5.931,5.427,7.018a.034.034,0,0,1,.034.034h0a.036.036,0,0,1,.037.035h0c.073.072.109.145.146.182.18.252.253.361.253.361Z" fill="#283d62"/>
      <path d="M521.161,537.17l-2.706-.191-2.589,36.308h2.722Z" fill="#162941"/>
      <rect x="476.132" y="421.402" width="2.715" height="31.826" transform="translate(-146.649 265.003) rotate(-27.052)" fill="#162941"/>
      <rect x="493.16" y="441.586" width="2.712" height="28.921" transform="translate(-142.704 240.465) rotate(-23.991)" fill="#162941"/>
      <path d="M621.787,241.656,604.678,221.2l17.109,42.107Z" fill="#192636"/>
      <path d="M615.892,158.092a5.539,5.539,0,0,0-.471.435,48.312,48.312,0,0,0-7.668,7.962,51.314,51.314,0,0,0-10.2,34.578l-2.713.216a53.22,53.22,0,0,1,18.7-44.777,6.773,6.773,0,0,0,.578-.506c.615.722,1.229,1.41,1.773,2.1Z" fill="#1d2d4b"/>
      <path d="M636.327,181.893,629.6,194.118l-2.387-1.3,7.2-13.059Z" fill="#1d2d4b"/>
      <path d="M644.389,190.94l-16.924,13.742-1.7-2.1,16.818-13.672Z" fill="#1d2d4b"/>
      <path d="M649.347,246.6l-6.8,18.3-2.024-2.316,6.292-16.927Z" fill="#1d2d4b"/>
      <path d="M659.749,260.5,653.53,277.21l-2.031-2.286,5.723-15.359Z" fill="#1d2d4b"/>
      <path d="M601.135,142.767,593,149.458,571.659,167l-44.634,36.672c.253-1.411.542-2.822.9-4.233L574.3,161.318l12.73-10.489h.036l.037-.035,11.971-9.838c.687.615,1.374,1.193,2.061,1.809Z" fill="#1d2d4b"/>
      <rect x="561.122" y="153.299" width="2.711" height="17.751" transform="translate(22.935 389.276) rotate(-38.91)" fill="#192636"/>
      <path d="M470.854,244.829l-.834,2.684,31.214,6.85.834-2.684Z" fill="#1d2d4b"/>
      <path d="M474.689,258.578l-.835,2.684,32.919,7.066.834-2.684Z" fill="#1d2d4b"/>
      <path d="M567.754,308.877l.835,2.684-31.214,6.85-.834-2.683Z" fill="#1d2d4b"/>
      <path d="M556.36,324.247l.834,2.684-25.358,5.452L531,329.7Z" fill="#1d2d4b"/>
      <path d="M522.094,301.375l78.249,5.99,2.077-5.987Z" fill="#192636"/>
      <path d="M620.064,161.234s-109.2,54.158-150.049,44.409c-22.385-5.336-11.514-32.05,2.888-55.081.722-1.163,1.458-2.314,2.194-3.45,6.1-9.374,12.529-17.891,17.183-23.789.935-1.189,1.805-2.26,2.58-3.223,2.554-3.155,4.146-5,4.146-5l78.388-26.678,25.116,42.844,2.032,3.464Z" fill="#172c43"/>
      <path d="M494.86,120.1l31.216,5.06a97.555,97.555,0,0,1-23.849,7.757c-14.152,2.748-18.726,2-18.726,2Z" fill="#192636"/>
      <path d="M527.082,115.425c-21.548,0-30.33-13.326-30.707-13.916l3.379-2.161-1.689,1.08,1.685-1.085c.347.535,8.776,13.1,29.906,12,21.758-1.12,34.538-10.066,34.665-10.157l2.338,3.262c-.552.4-13.786,9.718-36.8,10.9q-1.425.072-2.782.072Z" fill="#192636"/>
      <path d="M564.8,88.954c-18.481,22.136-38.892,22.171-39.753,22.164l.034-4.02c.192,0,19.442-.123,36.635-20.73,12.262-14.687,13.691-31.281,13.459-39.759a36.321,36.321,0,0,1,4.051,3.732A62.789,62.789,0,0,1,564.8,88.947Z" fill="#192636"/>
      <path d="M529.584,97.944,554.1,99.41c-2.687,3.789-28.073,15.533-28.073,15.533Z" fill="#192636"/>
      <path d="M492.28,99.506s6.522,10.618,18.139,13.4a77.758,77.758,0,0,0,19.444,2.443L520.2,99.506Z" fill="#192636"/>
      <path d="M517.5,17.313a22.84,22.84,0,0,1-3.338.256C515.322,17.456,516.428,17.364,517.5,17.313Z" fill="#e6b48a"/>
      <g>
        <path d="M549.738,80.115c-3.44,8.54-5.28,14.12-11.95,18.89-9.41,6.7-21.58,10.3-25.59,10.51-.11.01-.21.01-.31.01h-.14c-.1,0-.19-.01-.31-.01-16.94-1.85-29.76-11.07-30.85-29.77-.06-1.09-.12-2.15-.16-3.19-.13-3.01-.18-5.8-.18-8.33,0-6.27.31-10.94.52-13.4.11-1.27.19-1.95.19-1.95,0-1.28,1.11-4.86,2.63-8.75,0-.01.01-.02.01-.03,4.1-10.43,13.98-24.62,30.57-26.29,41.16-4.16,32.86,31.69,32.86,34.63Z" fill="#e6b48a"/>
        <path d="M491.9,65.745c0,6.14-4.18,11.14-9.33,11.14a7.355,7.355,0,0,1-2.14-.33c-.13-3.01-.18-5.8-.18-8.33,0-6.27.31-10.94.52-13.4a7.779,7.779,0,0,1,1.8-.22C487.718,54.605,491.9,59.565,491.9,65.745Z" fill="#e6a168"/>
        <path d="M518.5,65.436a11.8,11.8,0,1,0,11.8-11.8h0a11.8,11.8,0,0,0-11.8,11.8Z" fill="#e6a168"/>
        <path d="M522.671,84.849l-24.992-.06s12.368,19.163,24.992.06Z" fill="#fafaf5"/>
        <path d="M517.816,56.6a3.728,3.728,0,1,0,3.728-3.728h0a3.728,3.728,0,0,0-3.728,3.728Z" fill="#192636"/>
        <path d="M488.373,56.6a3.729,3.729,0,1,0,3.728-3.728h0a3.728,3.728,0,0,0-3.728,3.728Z" fill="#192636"/>
        <path d="M501.343,74.169a3.325,3.325,0,0,0,.546-.045L509,74.043l.153-2.951-7.743.088-1.892-.572,1.331,1.013.2-4.78-2.959-.355-.058,3.944a3.342,3.342,0,0,0,2.924,3.714,3.033,3.033,0,0,0,.381.024Z" fill="#192636"/>
      </g>
      <rect x="566.663" y="256.081" width="39.98" height="3.435" fill="#1d2d4b"/>
      <path d="M709.605,277.29a25.632,25.632,0,0,1-8.491,19.123l-51.766,58.111s-36.115-18.5-34.1-28.46l47.947-64.2a25.77,25.77,0,0,1,46.415,15.432Z" fill="#283d62"/>
      <path d="M604.539,134.73C591.7,142.766,566.107,158.6,547.306,169.1c-14.937,8.348-30.706,10.216-41.868,10.216a83.782,83.782,0,0,1-15.165-1.244l.788-3.931c.3.054,29.045,5.564,54.291-8.545,18.775-10.5,44.383-26.33,57.153-34.326Z" fill="#192636"/>
      <path d="M530.525,154.373c-.12.014-12.021,1.338-30.113,2.048-.576.027-1.163.04-1.752.04-9.615,0-18.99-3.008-25.756-5.9.717-1.163,1.458-2.314,2.193-3.449,6.759,2.807,16.02,5.655,25.167,5.294,17.945-.695,29.695-2.006,29.82-2.019Z" fill="#192636"/>
      <path d="M514.842,24.517a22.84,22.84,0,0,1-3.338.256,13.015,13.015,0,0,0-3.031.461.094.094,0,0,0-.051.01c-14.008,2.847-22.752,14.786-26.869,24.35a56.393,56.393,0,0,1,1.485-7.209c2.148-9.084,9.412-22.1,9.412-22.1S520.013,23.493,514.842,24.517Z" fill="#2f2735"/>
      <g>
        <path d="M528.818,11.087s-6.871,6.144-15.9,13.742l-.01-.011c-.369-.256-8.909-6.072-20.223-.768-.082.041-.164.082-.236.123A59.324,59.324,0,0,1,504.868,8.66c.01-.01.02-.01.03-.02A42.62,42.62,0,0,1,510.387,4.6c.143,0,.3.01.44.021.922.03,1.823.122,2.7.235l.226.031a31.432,31.432,0,0,1,3.635.758A34.97,34.97,0,0,1,528.818,11.087Z" fill="#542f33"/>
        <path d="M548.28,83.942,544,45.482c-.594-4.076-1.607-22.794-31.087-20.653l-.01-.011c-.84-1.618-2.079-9-2.079-13.8v-6.4c.922.03,1.823.122,2.7.235l.226.031c5.7-1.546,12.7-1.976,21.3-.553C570.6,10.206,556.963,66.248,548.28,83.942Z" fill="#542f33"/>
      </g>
      <path d="M512.067,24.824c.265-10.5,9.639-19.943,20.107-20.448.686-.035,1.366-.061,2.045-.046-1.2.661-2.457,1.057-3.642,1.7-8.312,3.812-14.477,10.632-18.51,18.8Z" fill="#2f2735"/>
      <path d="M512.067,24.824s29.059-3.3,32.007,21.294c-.26-8.706-2.232-22.444-9.834-25.833-10.15-4.513-21.029,3.376-22.093,4.439A.444.444,0,0,0,512.067,24.824Z" fill="#2f2735"/>
      <path d="M513.53,4.851l.226.031c-1.014.276-2,.583-2.929.921A33.825,33.825,0,0,0,504.9,8.64,42.62,42.62,0,0,1,510.387,4.6c.143,0,.3.01.44.021C511.749,4.646,512.65,4.738,513.53,4.851Z" fill="#172c43"/>
      <path d="M486.8,34.106C492.95,7.786,515.65-4.834,541.391,3.6c25.543,9.066,22.077,41.83,14.9,62.484a88.854,88.854,0,0,1-8.01,17.861,113.423,113.423,0,0,0,6.062-18.427C558.834,46.438,562.6,16.44,539.716,8.3a45.02,45.02,0,0,0-27.087-.229C500.421,12.08,492.2,22.885,486.8,34.106Z" fill="#192636"/>
    </g>
  </g>
</svg>
