<svg xmlns="http://www.w3.org/2000/svg" width="1400.061" height="461.195" viewBox="0 0 1400.061 461.195">
  <path id="Path_2446" data-name="Path 2446" d="M-5236.231,2067.834l-.056-3c3.27-.061,6.614-.193,9.938-.394l.18,2.994C-5229.534,2067.638-5232.919,2067.772-5236.231,2067.834Zm-20.112-.515c-3.364-.24-6.74-.564-10.034-.961l.359-2.978c3.246.391,6.573.71,9.888.947Zm50.19-1.875-.409-2.972c3.234-.445,6.536-.959,9.813-1.529l.513,2.956C-5199.547,2064.474-5202.884,2064.994-5206.153,2065.444Zm-80.074-2.523c-3.283-.75-6.567-1.6-9.761-2.514l.83-2.883c3.14.9,6.37,1.735,9.6,2.472Zm109.666-3.114-.7-2.916c3.181-.768,6.423-1.6,9.638-2.482l.791,2.894C-5170.079,2058.189-5173.351,2059.031-5176.561,2059.807Zm-138.447-6.093c-3.1-1.3-6.19-2.715-9.179-4.195l1.331-2.689c2.934,1.452,5.965,2.838,9.01,4.118Zm167.388-2.249-.95-2.846c3.106-1.037,6.27-2.138,9.4-3.273l1.022,2.821C-5141.3,2049.311-5144.49,2050.42-5147.62,2051.465Zm28.187-10.591-1.154-2.769c3.027-1.262,6.108-2.586,9.157-3.935l1.214,2.743C-5113.285,2038.271-5116.386,2039.6-5119.433,2040.874Zm-222.232-1.436c-2.795-1.861-5.56-3.835-8.217-5.867l1.822-2.383c2.606,1.993,5.317,3.928,8.058,5.753Zm249.607-11.019-1.325-2.691c2.944-1.45,5.939-2.961,8.9-4.49l1.376,2.666C-5086.085,2025.441-5089.1,2026.96-5092.058,2028.419Zm-273.015-8.141c-2.37-2.368-4.692-4.848-6.9-7.37l2.256-1.977c2.167,2.473,4.444,4.9,6.767,7.225Zm299.615-5.893-1.47-2.615c2.864-1.61,5.775-3.279,8.654-4.961l1.513,2.59C-5059.653,2011.089-5062.58,2012.766-5065.458,2014.385Zm25.843-15.37-1.594-2.542c2.786-1.746,5.617-3.55,8.415-5.361l1.63,2.518C-5033.973,1995.449-5036.817,1997.261-5039.615,1999.015Zm-344.637-2.126c-1.856-2.782-3.649-5.666-5.33-8.574l2.6-1.5c1.648,2.852,3.407,5.681,5.228,8.409ZM-5014.5,1982.5l-1.7-2.472c2.712-1.864,5.467-3.785,8.189-5.708l1.731,2.45C-5009.007,1978.7-5011.773,1980.632-5014.5,1982.5Zm-384.051-12.264c-1.293-3.08-2.51-6.25-3.617-9.421l2.833-.989c1.086,3.113,2.281,6.224,3.55,9.248Zm408.5-5.241-1.792-2.407c2.644-1.968,5.33-3.992,7.982-6.015l1.819,2.385C-4984.7,1960.993-4987.395,1963.023-4990.048,1965Zm-417.6-23.589c-.713-3.263-1.34-6.6-1.863-9.914l2.964-.467c.513,3.258,1.129,6.535,1.83,9.74Zm-3.844-29.979c-.137-3.337-.181-6.729-.129-10.083l3,.046c-.05,3.3-.007,6.633.127,9.914Zm4.275-29.811-2.976-.377c.42-3.313.938-6.665,1.54-9.962l2.951.539C-5406.291,1875.063-5406.8,1878.36-5407.213,1881.619Zm6.109-29.119-2.881-.836c.95-3.274,1.973-6.505,3.039-9.6l2.837.976C-5399.16,1846.089-5400.167,1849.273-5401.1,1852.5Zm10.48-27.8-2.7-1.3c1.473-3.066,3.045-6.079,4.673-8.954l2.611,1.478C-5387.638,1818.738-5389.179,1821.69-5390.623,1824.7Zm1205.069-4.829c-2.22,0-4.507-.068-6.833-.2l.174-2.995c3.4.2,6.719.248,9.853.148l.1,3Q-4183.881,1819.867-4185.554,1819.867Zm23.322-2.57-.545-2.95c3.247-.6,6.523-1.273,9.735-2l.66,2.927C-4155.632,1816.009-4158.946,1816.689-4162.232,1817.3Zm-50.169-.16c-3.166-.587-6.488-1.28-9.874-2.061l.674-2.923c3.344.771,6.623,1.456,9.746,2.035Zm79.453-7.048-.888-2.866c3.16-.979,6.334-2.031,9.435-3.13l1,2.828C-4126.538,1808.033-4129.75,1809.1-4132.948,1810.089Zm-108.72-.179c-3.082-.917-6.309-1.919-9.593-2.978l.92-2.855c3.262,1.052,6.468,2.047,9.528,2.958Zm-28.568-9.468c-3.012-1.082-6.174-2.24-9.4-3.442l1.047-2.811c3.215,1.2,6.366,2.352,9.366,3.43Zm-1104.838-.943-2.36-1.852c2.078-2.65,4.284-5.243,6.556-7.709l2.206,2.033C-5370.892,1794.379-5373.046,1796.912-5375.075,1799.5Zm1270.347-.066-1.231-2.735c3.022-1.361,6.04-2.8,8.971-4.272l1.348,2.68C-4098.61,1796.6-4101.667,1798.055-4104.729,1799.433Zm-193.6-9.6c-2.947-1.156-6.079-2.395-9.307-3.682l1.111-2.787c3.223,1.285,6.349,2.522,9.291,3.676Zm220.252-4.572-1.585-2.547c2.821-1.756,5.614-3.588,8.3-5.446l1.707,2.467C-4072.384,1781.625-4075.217,1783.484-4078.079,1785.265Zm-248.118-6.6c-2.8-1.139-5.828-2.376-9.262-3.781l1.136-2.776c3.433,1.4,6.46,2.64,9.257,3.779Zm-1028-.12-1.864-2.351c2.6-2.059,5.334-4.073,8.139-5.985l1.69,2.479C-5348.976,1774.563-5351.656,1776.534-5354.2,1778.548Zm1300.492-11.117-1.958-2.273c2.526-2.177,4.987-4.427,7.314-6.685l2.09,2.153C-4048.628,1762.926-4051.133,1765.216-4053.7,1767.431Zm-300.267-.13c-3.57-1.463-6.511-2.667-9.257-3.789l1.135-2.777c2.747,1.123,5.689,2.327,9.26,3.79Zm-975.206-4.677-1.365-2.671c2.911-1.488,5.966-2.948,9.081-4.339l1.223,2.739C-5323.305,1759.723-5326.312,1761.159-5329.177,1762.624Zm947.413-6.645c-3.174-1.281-6.292-2.534-9.266-3.724l1.114-2.785c2.978,1.191,6.1,2.445,9.275,3.728Zm-919.99-4.895-.982-2.835c3.079-1.067,6.3-2.119,9.572-3.127l.883,2.867C-5295.521,1748.988-5298.708,1750.029-5301.755,1751.084Zm1269.026-5.445-2.363-1.848c2.062-2.636,4-5.331,5.772-8.01l2.5,1.652C-4028.629,1740.18-4030.618,1742.941-4032.729,1745.639Zm-376.879-.734c-3.143-1.228-6.276-2.445-9.315-3.616l1.079-2.8c3.043,1.173,6.182,2.391,9.329,3.621Zm-863.5-2.219-.724-2.911c3.151-.783,6.442-1.562,9.779-2.314l.66,2.927C-5266.705,1741.135-5269.974,1741.908-5273.1,1742.686Zm29.229-6.325-.559-2.948c3.177-.6,6.5-1.206,9.86-1.8l.519,2.955C-5237.408,1735.159-5240.711,1735.761-5243.875,1736.361Zm806.257-2.161c-3.144-1.172-6.3-2.337-9.376-3.462l1.03-2.817c3.083,1.128,6.244,2.295,9.394,3.469Zm-776.714-2.864-.457-2.965c3.182-.49,6.514-.989,9.9-1.482l.433,2.969C-5207.835,1730.35-5211.159,1730.847-5214.333,1731.336Zm29.66-4.232-.4-2.974c3.163-.422,6.5-.86,9.92-1.3l.384,2.975C-5178.181,1726.245-5181.514,1726.682-5184.673,1727.1Zm718.88-3.1c-3.155-1.105-6.332-2.2-9.44-3.268l.971-2.839c3.116,1.065,6.3,2.167,9.462,3.275Zm-689.136-.7-.366-2.978c3.127-.385,6.376-.781,9.933-1.213l.361,2.978C-5148.557,1722.527-5151.8,1722.923-5154.929,1723.308Zm29.786-3.6-.356-2.979,9.92-1.185.356,2.979Zm1107.852-.165-2.779-1.13a80.842,80.842,0,0,0,3.149-9.292l2.9.783A83.818,83.818,0,0,1-4017.291,1719.544Zm-1078.086-3.4-.36-2.978c3.5-.423,6.749-.817,9.925-1.2l.363,2.978C-5088.626,1715.327-5091.874,1715.721-5095.377,1716.144Zm601.181-1.724c-3.171-1.028-6.369-2.05-9.5-3.037l.9-2.862c3.144.99,6.35,2.014,9.529,3.045Zm-571.381-1.936-.373-2.977c3.358-.421,6.7-.843,9.92-1.255l.379,2.976C-5058.877,1711.64-5062.217,1712.062-5065.577,1712.484Zm29.746-3.832-.395-2.974c3.327-.441,6.662-.888,9.913-1.329l.4,2.973C-5029.164,1707.762-5032.5,1708.21-5035.832,1708.651Zm513.026-3.1c-3.2-.944-6.428-1.88-9.6-2.783l.822-2.885c3.18.905,6.419,1.844,9.627,2.791Zm-483.281-.979-.421-2.97c3.3-.468,6.628-.944,9.884-1.416l.43,2.969C-4999.452,1703.631-5002.781,1704.108-5006.086,1704.576Zm29.716-4.361-.451-2.966c3.285-.5,6.6-1.01,9.854-1.516l.461,2.964C-4969.764,1699.2-4973.083,1699.715-4976.371,1700.215Zm424.716-2.716c-3.22-.847-6.473-1.685-9.67-2.491l.733-2.909c3.208.808,6.471,1.649,9.7,2.5Zm-395.075-1.957-.484-2.961c3.278-.536,6.592-1.084,9.849-1.629l.5,2.959C-4940.13,1694.456-4943.447,1695-4946.729,1695.541Zm29.592-5.015-.519-2.955c3.27-.574,6.578-1.162,9.832-1.747l.531,2.953C-4910.552,1689.364-4913.864,1689.952-4917.137,1690.527Zm336.4-.188c-3.241-.742-6.518-1.472-9.74-2.171l.636-2.932c3.233.7,6.521,1.434,9.772,2.178Zm566.167-.551a56.705,56.705,0,0,0-1.169-9.659l2.936-.618a59.669,59.669,0,0,1,1.232,10.172Zm-873.025-4.634-.555-2.948c3.257-.613,6.554-1.241,9.8-1.866l.567,2.946C-4881.037,1683.912-4884.339,1684.541-4887.6,1685.155Zm277.548-.993c-3.261-.627-6.56-1.241-9.8-1.824l.531-2.953c3.257.585,6.567,1.2,9.84,1.831Zm-248.07-4.5-.5-2.958c3.286-.557,6.621-1.1,9.914-1.6l.456,2.965C-4851.532,1678.566-4854.852,1679.1-4858.122,1679.658Zm218.574-.607c-3.283-.505-6.606-1-9.876-1.456l.418-2.971c3.283.462,6.619.954,9.915,1.461Zm-188.953-3.717-.365-2.978c3.3-.4,6.658-.789,9.969-1.143l.319,2.983C-4821.874,1674.549-4825.212,1674.932-4828.5,1675.334Zm159.283-.26c-3.3-.376-6.644-.734-9.934-1.063l.3-2.985c3.3.331,6.659.69,9.974,1.067Zm-129.5-2.691-.227-2.991c3.316-.252,6.683-.481,10.007-.683l.181,2.995C-4792.063,1671.9-4795.415,1672.132-4798.716,1672.383Zm99.692-.084c-3.312-.239-6.665-.457-9.966-.648l.173-2.995c3.315.192,6.682.411,10.008.651Zm-69.8-1.5-.091-3c3.322-.1,6.7-.177,10.026-.228l.046,3C-4762.163,1670.623-4765.521,1670.7-4768.828,1670.8Zm39.911-.016c-3.317-.1-6.675-.17-9.982-.217l.043-3c3.322.048,6.695.121,10.026.218Zm705.94-8.64c-.892-1.448-1.867-2.891-2.9-4.29-.932-1.265-1.873-2.532-2.795-3.766l2.4-1.8c.927,1.239,1.871,2.512,2.808,3.783,1.079,1.465,2.1,2.978,3.036,4.5Zm-17.911-23.822c-2.138-2.653-4.271-5.24-6.34-7.688l2.292-1.936c2.084,2.466,4.232,5.071,6.385,7.742Zm-19.624-22.5c-2.415-2.513-4.784-4.868-7.041-7l2.06-2.182c2.292,2.164,4.7,4.553,7.145,7.1Z" transform="translate(5411.638 -1606.639)" fill="#a3a3a0"/>
</svg>
