<svg id="Insta" xmlns="http://www.w3.org/2000/svg" width="24" height="24" viewBox="0 0 24 24">
  <g id="Insta_Logo" data-name="Insta Logo" transform="translate(-1670.86 -170.86)">
    <path id="Path_14" data-name="Path 14" d="M1694.788,177.912a8.793,8.793,0,0,0-.558-2.913,6.137,6.137,0,0,0-3.509-3.51,8.8,8.8,0,0,0-2.913-.558c-1.28-.059-1.689-.072-4.948-.072s-3.668.014-4.948.072a8.8,8.8,0,0,0-2.912.558,6.137,6.137,0,0,0-3.51,3.51,8.8,8.8,0,0,0-.558,2.913c-.059,1.28-.072,1.689-.072,4.948s.014,3.668.072,4.948a8.8,8.8,0,0,0,.558,2.913,6.137,6.137,0,0,0,3.51,3.51,8.8,8.8,0,0,0,2.912.558c1.28.059,1.689.072,4.948.072s3.667-.014,4.948-.072a8.8,8.8,0,0,0,2.913-.558,6.137,6.137,0,0,0,3.509-3.51,8.793,8.793,0,0,0,.558-2.913c.058-1.28.072-1.689.072-4.948S1694.846,179.192,1694.788,177.912Zm-2.16,9.8a6.649,6.649,0,0,1-.413,2.228,3.977,3.977,0,0,1-2.277,2.278,6.646,6.646,0,0,1-2.228.413c-1.265.058-1.645.07-4.849.07s-3.584-.012-4.849-.07a6.643,6.643,0,0,1-2.228-.413,3.976,3.976,0,0,1-2.278-2.278,6.649,6.649,0,0,1-.413-2.228c-.057-1.265-.07-1.645-.07-4.849s.012-3.584.07-4.849a6.649,6.649,0,0,1,.413-2.228,3.976,3.976,0,0,1,2.278-2.278,6.651,6.651,0,0,1,2.228-.413c1.265-.058,1.645-.07,4.849-.07s3.584.012,4.849.07a6.654,6.654,0,0,1,2.228.413,3.977,3.977,0,0,1,2.277,2.278,6.649,6.649,0,0,1,.413,2.228c.058,1.265.07,1.645.07,4.849S1692.686,186.444,1692.628,187.709Z" transform="translate(0 0)" fill="#fafaf5"/>
    <path id="Path_15" data-name="Path 15" d="M1856.6,350.44a6.162,6.162,0,1,0,6.162,6.162A6.162,6.162,0,0,0,1856.6,350.44Zm0,10.162a4,4,0,1,1,4-4A4,4,0,0,1,1856.6,360.6Z" transform="translate(-173.742 -173.742)" fill="#fafaf5"/>
    <path id="Path_16" data-name="Path 16" d="M2195.63,300.1a1.44,1.44,0,1,1-1.44-1.44A1.44,1.44,0,0,1,2195.63,300.1Z" transform="translate(-504.924 -123.646)" fill="#fafaf5"/>
  </g>
  <g id="Insta_Logo-2" data-name="Insta Logo" transform="translate(-1670.86 -170.86)" opacity="0">
    <path id="Path_15-2" data-name="Path 15" d="M1856.6,350.44a6.162,6.162,0,1,0,6.162,6.162A6.162,6.162,0,0,0,1856.6,350.44Zm0,10.162a4,4,0,1,1,4-4A4,4,0,0,1,1856.6,360.6Z" transform="translate(-173.742 -173.742)" fill="#fafaf5"/>
    <path id="Path_16-2" data-name="Path 16" d="M2195.63,300.1a1.44,1.44,0,1,1-1.44-1.44A1.44,1.44,0,0,1,2195.63,300.1Z" transform="translate(-504.924 -123.646)" fill="#fafaf5"/>
  </g>
</svg>
