<svg xmlns="http://www.w3.org/2000/svg" width="520" height="520" viewBox="0 0 520 520">
  <g id="Group_686" data-name="Group 686" transform="translate(-1108 -239)">
    <path id="Rectangle_22" data-name="Rectangle 22" d="M0,0H56a56,56,0,0,1,56,56v56a0,0,0,0,1,0,0H0a0,0,0,0,1,0,0V0A0,0,0,0,1,0,0Z" transform="translate(1380 375)" fill="#ffcb66" opacity="0.5"/>
    <path id="Rectangle_3122" data-name="Rectangle 3122" d="M0,0H56a56,56,0,0,1,56,56v0a56,56,0,0,1-56,56h0A56,56,0,0,1,0,56V0A0,0,0,0,1,0,0Z" transform="translate(1516 375)" fill="#ffcb66"/>
    <path id="Rectangle_3123" data-name="Rectangle 3123" d="M0,0H56a56,56,0,0,1,56,56v0a56,56,0,0,1-56,56h0A56,56,0,0,1,0,56V0A0,0,0,0,1,0,0Z" transform="translate(1516 647)" fill="#ffcb66"/>
    <path id="Rectangle_3124" data-name="Rectangle 3124" d="M56,0h0a56,56,0,0,1,56,56v0a56,56,0,0,1-56,56H0a0,0,0,0,1,0,0V56A56,56,0,0,1,56,0Z" transform="translate(1244 239)" fill="#ffcb66" opacity="0.5"/>
    <path id="Rectangle_3125" data-name="Rectangle 3125" d="M0,0H56a56,56,0,0,1,56,56v0a56,56,0,0,1-56,56H0a0,0,0,0,1,0,0V0A0,0,0,0,1,0,0Z" transform="translate(1244 511)" fill="#ffcb66"/>
    <path id="Rectangle_3126" data-name="Rectangle 3126" d="M56,0h0a56,56,0,0,1,56,56v0a56,56,0,0,1-56,56H0a0,0,0,0,1,0,0V56A56,56,0,0,1,56,0Z" transform="translate(1220 487) rotate(180)" fill="#ffcb66"/>
    <rect id="Rectangle_3127" data-name="Rectangle 3127" width="112" height="112" rx="56" transform="translate(1516 239)" fill="#ffcb66" opacity="0.5"/>
    <path id="Rectangle_3128" data-name="Rectangle 3128" d="M56,0h0a56,56,0,0,1,56,56v0a56,56,0,0,1-56,56H0a0,0,0,0,1,0,0V56A56,56,0,0,1,56,0Z" transform="translate(1516 511)" fill="#ffcb66" opacity="0.5"/>
    <rect id="Rectangle_3129" data-name="Rectangle 3129" width="112" height="112" rx="56" transform="translate(1244 375)" fill="#ffcb66" opacity="0.5"/>
    <rect id="Rectangle_3130" data-name="Rectangle 3130" width="112" height="112" rx="56" transform="translate(1244 647)" fill="#ffcb66" opacity="0.5"/>
    <path id="Rectangle_3131" data-name="Rectangle 3131" d="M56,0h56a0,0,0,0,1,0,0V112a0,0,0,0,1,0,0H56A56,56,0,0,1,0,56v0A56,56,0,0,1,56,0Z" transform="translate(1380 239)" fill="#ffcb66"/>
    <rect id="Rectangle_3132" data-name="Rectangle 3132" width="112" height="112" rx="56" transform="translate(1380 511)" fill="#ffcb66"/>
    <path id="Rectangle_3133" data-name="Rectangle 3133" d="M56,0h0a56,56,0,0,1,56,56v56a0,0,0,0,1,0,0H0a0,0,0,0,1,0,0V56A56,56,0,0,1,56,0Z" transform="translate(1380 647)" fill="#ffcb66" opacity="0.5"/>
    <path id="Rectangle_3134" data-name="Rectangle 3134" d="M56,0h56a0,0,0,0,1,0,0V112a0,0,0,0,1,0,0H0a0,0,0,0,1,0,0V56A56,56,0,0,1,56,0Z" transform="translate(1108 239)" fill="#ffcb66" opacity="0.5"/>
    <rect id="Rectangle_3135" data-name="Rectangle 3135" width="112" height="112" rx="56" transform="translate(1108 511)" fill="#ffcb66" opacity="0.5"/>
    <path id="Rectangle_3136" data-name="Rectangle 3136" d="M56,26A30.034,30.034,0,0,0,26,56V86H56a30,30,0,0,0,0-60M56,0a56,56,0,1,1,0,112H0V56A56,56,0,0,1,56,0Z" transform="translate(1108 647)" fill="#2e9942"/>
  </g>
</svg>
