<svg id="Group_667" data-name="Group 667" xmlns="http://www.w3.org/2000/svg" xmlns:xlink="http://www.w3.org/1999/xlink" width="50" height="50" viewBox="0 0 50 50">
  <defs>
    <clipPath id="clip-path">
      <rect id="Rectangle_3072" data-name="Rectangle 3072" width="50" height="50" fill="none"/>
    </clipPath>
  </defs>
  <g id="Group_666" data-name="Group 666" clip-path="url(#clip-path)">
    <path id="Path_2730" data-name="Path 2730" d="M40,50H10A10,10,0,0,1,0,40V10A10,10,0,0,1,10,0H40A10,10,0,0,1,50,10V40A10,10,0,0,1,40,50" fill="#fafaf5"/>
    <path id="Path_2731" data-name="Path 2731" d="M29.931,35.687v2.33a.156.156,0,0,1-.15.16h-9.57a.156.156,0,0,1-.15-.16v-2.33a.154.154,0,0,1,.15-.15h9.57a.154.154,0,0,1,.15.15" fill="#2e9942"/>
    <path id="Path_2732" data-name="Path 2732" d="M25,17.029l1.385,2.807,3.1.45-2.242,2.185.53,3.085L25,24.1l-2.771,1.457.53-3.085-2.242-2.185,3.1-.45Z" fill="#ffcb66"/>
    <path id="Path_2733" data-name="Path 2733" d="M38.541,16.9a2.759,2.759,0,0,0-2.26-1.15h-.66c.09-.93.13-1.86.13-2.8v-.87A1.752,1.752,0,0,0,34,10.327H16a1.746,1.746,0,0,0-1.75,1.75v.87c0,.94.04,1.88.13,2.81H13.7a2.753,2.753,0,0,0-2.59,3.68l2.15,6a2.753,2.753,0,0,0,2.59,1.82h1.82a31.855,31.855,0,0,0,2.75,4.5v2.28h-.21a1.652,1.652,0,0,0-1.65,1.65v2.33a1.654,1.654,0,0,0,1.65,1.66h9.57a1.654,1.654,0,0,0,1.65-1.66v-2.33a1.652,1.652,0,0,0-1.65-1.65h-.21v-2.28a31.233,31.233,0,0,0,2.74-4.48l1.88-.02a2.75,2.75,0,0,0,2.57-1.83l2.13-6.01a2.759,2.759,0,0,0-.35-2.52m-22.69,8.86a1.266,1.266,0,0,1-1.18-.82l-2.15-6a1.248,1.248,0,0,1,1.18-1.68h.86a31.759,31.759,0,0,0,2.4,8.5Zm14.08,9.93v2.33a.156.156,0,0,1-.15.16h-9.57a.156.156,0,0,1-.15-.16v-2.33a.154.154,0,0,1,.15-.15h9.57a.154.154,0,0,1,.15.15m-8.01-3.43h6.15v1.78h-6.15Zm6.52-1.5h-6.89a30.488,30.488,0,0,1-5.8-17.81v-.87a.248.248,0,0,1,.25-.25H34a.254.254,0,0,1,.25.25v.87a30.4,30.4,0,0,1-5.81,17.81m9.04-11.84-2.13,6.01a1.262,1.262,0,0,1-1.17.83l-1.16.01a31.6,31.6,0,0,0,2.42-8.51l.85-.01h.01a1.247,1.247,0,0,1,1.18,1.67" fill="#142033"/>
    <path id="Path_2734" data-name="Path 2734" d="M22.226,26.307a.752.752,0,0,1-.739-.877l.463-2.7-1.959-1.909a.751.751,0,0,1,.415-1.28l2.708-.393L24.325,16.7a.78.78,0,0,1,1.344,0l1.212,2.454,2.707.393A.75.75,0,0,1,30,20.824l-1.96,1.909.463,2.7a.75.75,0,0,1-1.088.791L25,24.947l-2.421,1.274a.761.761,0,0,1-.35.086M25,23.35a.754.754,0,0,1,.349.086l1.426.749L26.5,22.6a.754.754,0,0,1,.216-.664l1.154-1.124-1.594-.231a.751.751,0,0,1-.565-.411L25,18.724l-.713,1.444a.749.749,0,0,1-.564.411l-1.594.231,1.153,1.124a.748.748,0,0,1,.216.664l-.272,1.587,1.425-.749A.754.754,0,0,1,25,23.35" fill="#142033"/>
  </g>
</svg>
