<svg id="Group_671" data-name="Group 671" xmlns="http://www.w3.org/2000/svg" xmlns:xlink="http://www.w3.org/1999/xlink" width="50" height="50" viewBox="0 0 50 50">
  <defs>
    <clipPath id="clip-path">
      <rect id="Rectangle_3074" data-name="Rectangle 3074" width="50" height="50" fill="none"/>
    </clipPath>
  </defs>
  <g id="Group_670" data-name="Group 670" clip-path="url(#clip-path)">
    <path id="Path_2743" data-name="Path 2743" d="M25.59,25.44a.01.01,0,0,1,.01.01v-.02a.01.01,0,0,1-.01.01m0,0a.01.01,0,0,1,.01.01v-.02a.01.01,0,0,1-.01.01m0,0a.01.01,0,0,1,.01.01v-.02a.01.01,0,0,1-.01.01m0,0a.01.01,0,0,1,.01.01v-.02a.01.01,0,0,1-.01.01m0,0a.01.01,0,0,1,.01.01v-.02a.01.01,0,0,1-.01.01m0,0a.01.01,0,0,1,.01.01v-.02a.01.01,0,0,1-.01.01m0,0a.01.01,0,0,1,.01.01v-.02a.01.01,0,0,1-.01.01m0,0a.01.01,0,0,1,.01.01v-.02a.01.01,0,0,1-.01.01m0,0a.01.01,0,0,1,.01.01v-.02a.01.01,0,0,1-.01.01m0,0a.01.01,0,0,1,.01.01v-.02a.01.01,0,0,1-.01.01m0,0a.01.01,0,0,1,.01.01v-.02a.01.01,0,0,1-.01.01m0,0a.01.01,0,0,1,.01.01v-.02a.01.01,0,0,1-.01.01m0,0a.01.01,0,0,1,.01.01v-.02a.01.01,0,0,1-.01.01m0,0a.01.01,0,0,1,.01.01v-.02a.01.01,0,0,1-.01.01m0,0a.01.01,0,0,1,.01.01v-.02a.01.01,0,0,1-.01.01m0,0a.01.01,0,0,1,.01.01v-.02a.01.01,0,0,1-.01.01m0,0a.01.01,0,0,1,.01.01v-.02a.01.01,0,0,1-.01.01m0,0a.01.01,0,0,1,.01.01v-.02a.01.01,0,0,1-.01.01m0,0a.01.01,0,0,1,.01.01v-.02a.01.01,0,0,1-.01.01m0,0a.01.01,0,0,1,.01.01v-.02a.01.01,0,0,1-.01.01m0,0a.01.01,0,0,1,.01.01v-.02a.01.01,0,0,1-.01.01m0,0a.01.01,0,0,1,.01.01v-.02a.01.01,0,0,1-.01.01M40,0H10A10,10,0,0,0,0,10V40A10,10,0,0,0,10,50H40A10,10,0,0,0,50,40V10A10,10,0,0,0,40,0M27.07,41.91a.75.75,0,0,1-1.5,0V39.5a14.475,14.475,0,0,1-5.41-1.35l-1.37,2.52a.761.761,0,0,1-.66.39.768.768,0,0,1-.36-.09.754.754,0,0,1-.3-1.02l1.37-2.51a14.574,14.574,0,0,1-4.41-4.12l-2.4,1.44a.67.67,0,0,1-.38.11.758.758,0,0,1-.65-.36.749.749,0,0,1,.26-1.03l2.38-1.44a14.226,14.226,0,0,1-1.76-5.82l-2.7.04H9.17a.75.75,0,0,1-.01-1.5l2.68-.04a14.272,14.272,0,0,1,1.41-5.99l-2.23-1.25a.752.752,0,0,1,.74-1.31l2.21,1.24a14.444,14.444,0,0,1,4.3-4.47l-1.24-2.12A.74.74,0,0,1,17.3,9.8a.748.748,0,0,1,1.02.26l1.24,2.11a14.612,14.612,0,0,1,6.01-1.66V8.1a.75.75,0,1,1,1.5,0v3.14a.7.7,0,0,1-.2.5.57.57,0,0,1-.26.19.6.6,0,0,1-.27.06h-.02a13,13,0,0,0-11.42,6.8A12.79,12.79,0,0,0,13.33,25c0,.14-.01.28,0,.41v.05q.015.45.06.9a12.987,12.987,0,0,0,1.9,5.54v.01c0,.01.01.01.02.02a13.158,13.158,0,0,0,4.86,4.54.01.01,0,0,0,.01.01c.01,0,.01.01.02.01s.03.01.04.02a12.865,12.865,0,0,0,6.08,1.52.732.732,0,0,1,.53.22.392.392,0,0,1,.08.1.076.076,0,0,1,.02.04.137.137,0,0,1,.05.08.442.442,0,0,1,.06.16c0,.05.01.1.01.15Zm3.38-16.06a.749.749,0,0,1,.53.22l2.3,2.3h1.78a1.381,1.381,0,0,1,1.15-.61,1.365,1.365,0,0,1,0,2.73,1.376,1.376,0,0,1-1.15-.62H32.97a.767.767,0,0,1-.53-.22l-2.3-2.3H27.09v2.39H29.6a.749.749,0,0,1,.53.22l2.7,2.7h5.49a1.365,1.365,0,1,1,1.14,2.11,1.376,1.376,0,0,1-1.14-.61h-5.8a.749.749,0,0,1-.53-.22l-2.7-2.7h-2.2v2.29a.743.743,0,0,1-.75.75,9.28,9.28,0,1,1,0-18.56.749.749,0,0,1,.75.75v2.56h1.77l1.65-1.66a.749.749,0,0,1,.53-.22h2.69a1.366,1.366,0,0,1,2.51.75,1.366,1.366,0,0,1-2.51.75H31.35L29.7,20.31a.767.767,0,0,1-.53.22H27.09v2.42h5.83l1.35-1.35a.749.749,0,0,1,.53-.22h3.52a1.365,1.365,0,1,1,1.14,2.11,1.376,1.376,0,0,1-1.14-.61H35.11l-1.35,1.35a.749.749,0,0,1-.53.22H27.09v1.4Zm-4.85-.4v-.02a.01.01,0,1,0,0,.02m-.01-.01a.01.01,0,0,1,.01.01v-.02a.01.01,0,0,1-.01.01m0,0a.01.01,0,0,1,.01.01v-.02a.01.01,0,0,1-.01.01m0,0a.01.01,0,0,1,.01.01v-.02a.01.01,0,0,1-.01.01m0,0a.01.01,0,0,1,.01.01v-.02a.01.01,0,0,1-.01.01m0,0a.01.01,0,0,1,.01.01v-.02a.01.01,0,0,1-.01.01m0,0a.01.01,0,0,1,.01.01v-.02a.01.01,0,0,1-.01.01m0,0a.01.01,0,0,1,.01.01v-.02a.01.01,0,0,1-.01.01m0,0a.01.01,0,0,1,.01.01v-.02a.01.01,0,0,1-.01.01m0,0a.01.01,0,0,1,.01.01v-.02a.01.01,0,0,1-.01.01m0,0a.01.01,0,0,1,.01.01v-.02a.01.01,0,0,1-.01.01m0,0a.01.01,0,0,1,.01.01v-.02a.01.01,0,0,1-.01.01m0,0a.01.01,0,0,1,.01.01v-.02a.01.01,0,0,1-.01.01m0,0a.01.01,0,0,1,.01.01v-.02a.01.01,0,0,1-.01.01m0,0a.01.01,0,0,1,.01.01v-.02a.01.01,0,0,1-.01.01m0,0a.01.01,0,0,1,.01.01v-.02a.01.01,0,0,1-.01.01m0,0a.01.01,0,0,1,.01.01v-.02a.01.01,0,0,1-.01.01m0,0a.01.01,0,0,1,.01.01v-.02a.01.01,0,0,1-.01.01m0,0a.01.01,0,0,1,.01.01v-.02a.01.01,0,0,1-.01.01m0,0a.01.01,0,0,1,.01.01v-.02a.01.01,0,0,1-.01.01m0,0a.01.01,0,0,1,.01.01v-.02a.01.01,0,0,1-.01.01" fill="#fafaf5"/>
    <path id="Path_2744" data-name="Path 2744" d="M25.59,25.44a.01.01,0,0,1,.01.01v-.02a.01.01,0,0,1-.01.01" fill="#142033"/>
    <path id="Path_2745" data-name="Path 2745" d="M39.46,32.04a1.359,1.359,0,0,0-1.14.62H32.83l-2.7-2.7a.749.749,0,0,0-.53-.22H27.09V27.35h3.05l2.3,2.3a.767.767,0,0,0,.53.22h2.09a1.366,1.366,0,0,0,2.51-.75,1.361,1.361,0,0,0-1.36-1.36,1.381,1.381,0,0,0-1.15.61H33.28l-2.3-2.3a.749.749,0,0,0-.53-.22H27.09v-1.4h6.14a.749.749,0,0,0,.53-.22l1.35-1.35h3.21a1.368,1.368,0,1,0,1.14-2.12,1.359,1.359,0,0,0-1.14.62H34.8a.749.749,0,0,0-.53.22l-1.35,1.35H27.09V20.53h2.08a.767.767,0,0,0,.53-.22l1.65-1.66h2.38a1.368,1.368,0,1,0,1.14-2.12,1.386,1.386,0,0,0-1.14.62H31.04a.749.749,0,0,0-.53.22l-1.65,1.66H27.09V16.47a.749.749,0,0,0-.75-.75,9.28,9.28,0,1,0,0,18.56.743.743,0,0,0,.75-.75V31.24h2.2l2.7,2.7a.749.749,0,0,0,.53.22h5.8a1.368,1.368,0,1,0,1.14-2.12M25.6,25.43v.02a.01.01,0,0,0-.01-.01v7.31a7.781,7.781,0,0,1,0-15.49v8.15l.01.01Z" fill="#142033"/>
    <path id="Path_2746" data-name="Path 2746" d="M25.59,17.26V32.75a7.781,7.781,0,0,1,0-15.49" fill="#2e9942"/>
    <path id="Path_2747" data-name="Path 2747" d="M27.07,8.1v3.14a.7.7,0,0,1-.2.5.57.57,0,0,1-.26.19.6.6,0,0,1-.27.06h-.02a13,13,0,0,0-11.42,6.8A12.79,12.79,0,0,0,13.33,25c0,.14-.01.28,0,.41v.05q.015.45.06.9a12.987,12.987,0,0,0,1.9,5.54v.01c0,.01.01.01.02.02a13.158,13.158,0,0,0,4.86,4.54.01.01,0,0,0,.01.01c.01,0,.01.01.02.01s.03.01.04.02a12.865,12.865,0,0,0,6.08,1.52.732.732,0,0,1,.53.22.392.392,0,0,1,.08.1.076.076,0,0,1,.02.04.137.137,0,0,1,.05.08.442.442,0,0,1,.06.16c0,.05.01.1.01.15v3.13a.75.75,0,0,1-1.5,0V39.5a14.475,14.475,0,0,1-5.41-1.35l-1.37,2.52a.761.761,0,0,1-.66.39.768.768,0,0,1-.36-.09.754.754,0,0,1-.3-1.02l1.37-2.51a14.574,14.574,0,0,1-4.41-4.12l-2.4,1.44a.67.67,0,0,1-.38.11.758.758,0,0,1-.65-.36.749.749,0,0,1,.26-1.03l2.38-1.44a14.226,14.226,0,0,1-1.76-5.82l-2.7.04H9.17a.75.75,0,0,1-.01-1.5l2.68-.04a14.272,14.272,0,0,1,1.41-5.99l-2.23-1.25a.752.752,0,0,1,.74-1.31l2.21,1.24a14.444,14.444,0,0,1,4.3-4.47l-1.24-2.12A.74.74,0,0,1,17.3,9.8a.748.748,0,0,1,1.02.26l1.24,2.11a14.612,14.612,0,0,1,6.01-1.66V8.1a.75.75,0,1,1,1.5,0" fill="#142033"/>
    <path id="Path_2748" data-name="Path 2748" d="M27.61,12.9a1.268,1.268,0,0,1-1.27,1.28A10.783,10.783,0,0,0,15.52,25v.33a1.276,1.276,0,0,1-1.2,1.35h-.07a1.3,1.3,0,0,1-.86-.32q-.045-.45-.06-.9v-.05c-.01-.13,0-.27,0-.41a12.79,12.79,0,0,1,1.57-6.21,13,13,0,0,1,11.42-6.8h.02a.6.6,0,0,0,.27-.06.57.57,0,0,0,.26-.19c.01,0,.01.01.02.01a1.287,1.287,0,0,1,.72,1.15" fill="#ffcb66"/>
  </g>
</svg>
