<svg xmlns="http://www.w3.org/2000/svg" width="56" height="56" viewBox="0 0 56 56">
  <g id="Group_429" data-name="Group 429" transform="translate(0)">
    <g id="Group_432" data-name="Group 432" transform="translate(0)">
      <g id="Path_1034" data-name="Path 1034" transform="translate(-83.883)" fill="#fafaf5">
        <path d="M 128.6830291748047 55.50001907348633 L 95.08302307128906 55.50001907348633 C 89.18302154541016 55.50001907348633 84.38301849365234 50.70001602172852 84.38301849365234 44.80000686645508 L 84.38301849365234 11.1999979019165 C 84.38301849365234 8.339357376098633 85.49639129638672 5.651327610015869 87.51805114746094 3.631077527999878 C 89.53855133056641 1.61196768283844 92.22517395019531 0.499997615814209 95.08302307128906 0.499997615814209 L 128.6830291748047 0.499997615814209 C 131.5449676513672 0.499997615814209 134.2330474853516 1.611927628517151 136.2520599365234 3.630947589874268 C 138.2710876464844 5.649977684020996 139.3830108642578 8.338047981262207 139.3830108642578 11.1999979019165 L 139.3830108642578 44.80000686645508 C 139.3830108642578 47.65785598754883 138.2710418701172 50.34448623657227 136.2519378662109 52.36498641967773 C 134.231689453125 54.38663864135742 131.5436553955078 55.50001907348633 128.6830291748047 55.50001907348633 Z M 94.13100433349609 22.04560852050781 C 93.39212799072266 22.04560852050781 92.79100799560547 22.646728515625 92.79100799560547 23.38560676574707 L 92.79100799560547 39.14400863647461 C 92.79100799560547 39.88288879394531 93.39212799072266 40.4840087890625 94.13100433349609 40.4840087890625 L 129.6137390136719 40.4840087890625 C 130.3526153564453 40.4840087890625 130.9537353515625 39.88288879394531 130.9537353515625 39.14400863647461 L 130.9537353515625 23.38560676574707 C 130.9537353515625 22.646728515625 130.3526153564453 22.04560852050781 129.6137390136719 22.04560852050781 L 122.4966125488281 22.04560852050781 L 122.4966125488281 16.84480857849121 C 122.4966125488281 16.10592842102051 121.8954925537109 15.504807472229 121.156623840332 15.504807472229 L 102.5870132446289 15.504807472229 C 101.84814453125 15.504807472229 101.2470245361328 16.10592842102051 101.2470245361328 16.84480857849121 L 101.2470245361328 22.04560852050781 L 94.13100433349609 22.04560852050781 Z M 128.2726287841797 37.80400848388672 L 122.4966125488281 37.80400848388672 L 122.4966125488281 24.72560691833496 L 128.2726287841797 24.72560691833496 L 128.2726287841797 37.80400848388672 Z M 119.8166275024414 37.80400848388672 L 116.6401443481445 37.80400848388672 L 116.6401443481445 33.94720840454102 C 116.6401443481445 33.20832824707031 116.0390090942383 32.60720825195312 115.3001327514648 32.60720825195312 L 108.4446182250977 32.60720825195312 C 107.6932220458984 32.60720825195312 107.104621887207 33.19580841064453 107.104621887207 33.94720840454102 L 107.104621887207 37.80400848388672 L 103.9270095825195 37.80400848388672 L 103.9270095825195 18.18480682373047 L 119.8166275024414 18.18480682373047 L 119.8166275024414 37.80400848388672 Z M 113.9590072631836 37.80400848388672 L 109.7846298217773 37.80400848388672 L 109.7846298217773 35.28720855712891 L 113.9590072631836 35.28720855712891 L 113.9590072631836 37.80400848388672 Z" stroke="none"/>
        <path d="M 128.6830291748047 55.00001907348633 C 131.4100341796875 55.00001907348633 133.9724578857422 53.93869781494141 135.8982543945312 52.01155853271484 C 137.8230133056641 50.08547592163086 138.8830108642578 47.52436828613281 138.8830108642578 44.80000686645508 L 138.8830108642578 11.1999979019165 C 138.8830108642578 8.471607208251953 137.8230895996094 5.909087657928467 135.8985137939453 3.98450756072998 C 133.9739227294922 2.059917688369751 131.4114227294922 0.999997615814209 128.6830291748047 0.999997615814209 L 95.08302307128906 0.999997615814209 C 92.35865783691406 0.999997615814209 89.79755401611328 2.05999755859375 87.87148284912109 3.984747648239136 C 85.94434356689453 5.910557746887207 84.88301849365234 8.472977638244629 84.88301849365234 11.1999979019165 L 84.88301849365234 44.80000686645508 C 84.88301849365234 50.42430877685547 89.45871734619141 55.00001907348633 95.08302307128906 55.00001907348633 L 128.6830291748047 55.00001907348633 M 94.13100433349609 21.54560852050781 L 100.7470245361328 21.54560852050781 L 100.7470245361328 16.84480857849121 C 100.7470245361328 15.83022785186768 101.5724411010742 15.004807472229 102.5870132446289 15.004807472229 L 121.156623840332 15.004807472229 C 122.1711883544922 15.004807472229 122.9966125488281 15.83022785186768 122.9966125488281 16.84480857849121 L 122.9966125488281 21.54560852050781 L 129.6137390136719 21.54560852050781 C 130.6283264160156 21.54560852050781 131.4537353515625 22.37102699279785 131.4537353515625 23.38560676574707 L 131.4537353515625 39.14400863647461 C 131.4537353515625 40.15858840942383 130.6283264160156 40.9840087890625 129.6137390136719 40.9840087890625 L 94.13100433349609 40.9840087890625 C 93.11643218994141 40.9840087890625 92.29100799560547 40.15858840942383 92.29100799560547 39.14400863647461 L 92.29100799560547 23.38560676574707 C 92.29100799560547 22.37102699279785 93.11643218994141 21.54560852050781 94.13100433349609 21.54560852050781 M 127.7726287841797 37.30400848388672 L 127.7726287841797 25.22560691833496 L 122.9966125488281 25.22560691833496 L 122.9966125488281 37.30400848388672 L 127.7726287841797 37.30400848388672 M 119.3166275024414 37.30400848388672 L 119.3166275024414 18.68480682373047 L 104.4270095825195 18.68480682373047 L 104.4270095825195 37.30400848388672 L 106.604621887207 37.30400848388672 L 106.604621887207 33.94720840454102 C 106.604621887207 32.9326286315918 107.4300384521484 32.10720825195312 108.4446182250977 32.10720825195312 L 115.3001327514648 32.10720825195312 C 116.3147125244141 32.10720825195312 117.1401443481445 32.9326286315918 117.1401443481445 33.94720840454102 L 117.1401443481445 37.30400848388672 L 119.3166275024414 37.30400848388672 M 113.4590072631836 37.30400848388672 L 113.4590072631836 35.78720855712891 L 110.2846298217773 35.78720855712891 L 110.2846298217773 37.30400848388672 L 113.4590072631836 37.30400848388672 M 128.6830291748047 56.00001907348633 L 95.08302307128906 56.00001907348633 C 88.90061187744141 56.00001907348633 83.88301849365234 50.98241806030273 83.88301849365234 44.80000686645508 L 83.88301849365234 11.1999979019165 C 83.88301849365234 5.006397724151611 88.90061187744141 -2.370605443502427e-06 95.08302307128906 -2.370605443502427e-06 L 128.6830291748047 -2.370605443502427e-06 C 134.8766174316406 -2.370605443502427e-06 139.8830108642578 5.006397724151611 139.8830108642578 11.1999979019165 L 139.8830108642578 44.80000686645508 C 139.8830108642578 50.98241806030273 134.8766174316406 56.00001907348633 128.6830291748047 56.00001907348633 Z M 94.13100433349609 22.54560852050781 C 93.66061401367188 22.54560852050781 93.29100799560547 22.92640686035156 93.29100799560547 23.38560676574707 L 93.29100799560547 39.14400863647461 C 93.29100799560547 39.60320663452148 93.66061401367188 39.9840087890625 94.13100433349609 39.9840087890625 L 129.6137390136719 39.9840087890625 C 130.0830230712891 39.9840087890625 130.4537353515625 39.60320663452148 130.4537353515625 39.14400863647461 L 130.4537353515625 23.38560676574707 C 130.4537353515625 22.92640686035156 130.0830230712891 22.54560852050781 129.6137390136719 22.54560852050781 L 121.9966125488281 22.54560852050781 L 121.9966125488281 16.84480857849121 C 121.9966125488281 16.38560676574707 121.6169281005859 16.00480842590332 121.156623840332 16.00480842590332 L 102.5870132446289 16.00480842590332 C 102.1278076171875 16.00480842590332 101.7470245361328 16.38560676574707 101.7470245361328 16.84480857849121 L 101.7470245361328 22.54560852050781 L 94.13100433349609 22.54560852050781 Z M 128.7726287841797 38.30400848388672 L 121.9966125488281 38.30400848388672 L 128.7726287841797 38.30400848388672 L 128.7726287841797 24.22560691833496 L 128.7726287841797 38.30400848388672 Z M 128.7726287841797 38.30400848388672 L 121.9966125488281 38.30400848388672 L 121.9966125488281 24.22560691833496 L 128.7726287841797 24.22560691833496 L 128.7726287841797 38.30400848388672 Z M 121.9966125488281 38.30400848388672 L 121.9966125488281 24.22560691833496 L 128.7726287841797 24.22560691833496 L 121.9966125488281 24.22560691833496 L 121.9966125488281 38.30400848388672 Z M 120.3166275024414 38.30400848388672 L 116.1401443481445 38.30400848388672 L 120.3166275024414 38.30400848388672 L 120.3166275024414 17.68480682373047 L 120.3166275024414 38.30400848388672 Z M 120.3166275024414 38.30400848388672 L 116.1401443481445 38.30400848388672 L 116.1401443481445 33.94720840454102 C 116.1401443481445 33.476806640625 115.7582244873047 33.10720825195312 115.3001327514648 33.10720825195312 L 108.4446182250977 33.10720825195312 C 107.9742202758789 33.10720825195312 107.604621887207 33.476806640625 107.604621887207 33.94720840454102 L 107.604621887207 38.30400848388672 L 103.4270095825195 38.30400848388672 L 103.4270095825195 17.68480682373047 L 120.3166275024414 17.68480682373047 L 120.3166275024414 38.30400848388672 Z M 116.1401443481445 38.30400848388672 L 116.1401443481445 33.94720840454102 L 116.1401443481445 38.30400848388672 Z M 114.4590072631836 38.30400848388672 L 109.2846298217773 38.30400848388672 L 114.4590072631836 38.30400848388672 L 114.4590072631836 34.78720855712891 L 114.4590072631836 38.30400848388672 Z M 114.4590072631836 38.30400848388672 L 109.2846298217773 38.30400848388672 L 114.4590072631836 38.30400848388672 L 114.4590072631836 34.78720855712891 L 114.4590072631836 38.30400848388672 Z M 114.4590072631836 38.30400848388672 L 109.2846298217773 38.30400848388672 L 109.2846298217773 34.78720855712891 L 114.4590072631836 34.78720855712891 L 114.4590072631836 38.30400848388672 Z M 109.2846298217773 38.30400848388672 L 109.2846298217773 34.78720855712891 L 114.4590072631836 34.78720855712891 L 109.2846298217773 34.78720855712891 L 109.2846298217773 38.30400848388672 Z M 109.2846298217773 38.30400848388672 L 109.2846298217773 34.78720855712891 L 114.4590072631836 34.78720855712891 L 109.2846298217773 34.78720855712891 L 109.2846298217773 38.30400848388672 Z M 107.604621887207 38.30400848388672 L 103.4270095825195 38.30400848388672 L 107.604621887207 38.30400848388672 L 107.604621887207 33.94720840454102 C 107.604621887207 33.476806640625 107.9742202758789 33.10720825195312 108.4446182250977 33.10720825195312 L 115.3001327514648 33.10720825195312 C 115.7582244873047 33.10720825195312 116.1401443481445 33.476806640625 116.1401443481445 33.94720840454102 C 116.1401443481445 33.476806640625 115.7582244873047 33.10720825195312 115.3001327514648 33.10720825195312 L 108.4446182250977 33.10720825195312 C 107.9742202758789 33.10720825195312 107.604621887207 33.476806640625 107.604621887207 33.94720840454102 L 107.604621887207 38.30400848388672 Z M 103.4270095825195 38.30400848388672 L 103.4270095825195 17.68480682373047 L 120.3166275024414 17.68480682373047 L 103.4270095825195 17.68480682373047 L 103.4270095825195 38.30400848388672 Z" stroke="none" fill="#fff"/>
      </g>
      <path id="Path_1035" data-name="Path 1035" d="M98.656,26.613H95.477a.84.84,0,0,1-.84-.84V23.364a.84.84,0,0,1,.84-.84h3.179a.84.84,0,0,1,.84.84v2.409a.84.84,0,0,1-.84.84m-2.339-1.68h1.5V24.2h-1.5Z" transform="translate(-82.593 2.703)" fill="#142033"/>
      <path id="Path_1036" data-name="Path 1036" d="M107.035,21.228h-3.179a.84.84,0,0,1-.84-.84v-2.41a.84.84,0,0,1,.84-.84h3.179a.84.84,0,0,1,.84.84v2.41a.84.84,0,0,1-.84.84m-2.339-1.68h1.5v-.729h-1.5Z" transform="translate(-81.587 2.057)" fill="#142033"/>
      <path id="Path_1037" data-name="Path 1037" d="M114.41,21.228h-3.179a.84.84,0,0,1-.84-.84v-2.41a.84.84,0,0,1,.84-.84h3.179a.84.84,0,0,1,.84.84v2.41a.84.84,0,0,1-.84.84m-2.339-1.68h1.5v-.729h-1.5Z" transform="translate(-80.702 2.057)" fill="#142033"/>
      <path id="Path_1038" data-name="Path 1038" d="M107.035,26.739h-3.179a.84.84,0,0,1-.84-.84V23.49a.84.84,0,0,1,.84-.84h3.179a.84.84,0,0,1,.84.84V25.9a.84.84,0,0,1-.84.84m-2.339-1.68h1.5V24.33h-1.5Z" transform="translate(-81.587 2.718)" fill="#142033"/>
      <path id="Path_1039" data-name="Path 1039" d="M114.41,26.739h-3.179a.84.84,0,0,1-.84-.84V23.49a.84.84,0,0,1,.84-.84h3.179a.84.84,0,0,1,.84.84V25.9a.84.84,0,0,1-.84.84m-2.339-1.68h1.5V24.33h-1.5Z" transform="translate(-80.702 2.718)" fill="#142033"/>
      <path id="Path_1040" data-name="Path 1040" d="M98.656,31.226H95.477a.84.84,0,0,1-.84-.84v-2.41a.84.84,0,0,1,.84-.84h3.179a.84.84,0,0,1,.84.84v2.41a.84.84,0,0,1-.84.84m-2.339-1.68h1.5v-.729h-1.5Z" transform="translate(-82.593 3.256)" fill="#142033"/>
      <path id="Path_1041" data-name="Path 1041" d="M128.606,20.831h-7.617v-5.7a.845.845,0,0,0-.84-.84h-18.57a.846.846,0,0,0-.84.84v5.7H93.123a.839.839,0,0,0-.84.84V37.429a.839.839,0,0,0,.84.84h35.483a.84.84,0,0,0,.84-.84V21.671a.84.84,0,0,0-.84-.84M100.739,36.589H93.963V22.511h6.776Zm12.713,0h-5.174V33.072h5.174Zm5.856,0h-4.176V32.232a.84.84,0,0,0-.84-.84h-6.856a.832.832,0,0,0-.84.84v4.357h-4.178V15.97h16.89Zm8.457,0H120.99V22.511h6.776Z" transform="translate(-82.875 1.715)" fill="#142033"/>
      <path id="Path_1042" data-name="Path 1042" d="M116.611,15.79V36.409h-1.725a1.414,1.414,0,0,1-.123-.571V16.473a1.307,1.307,0,0,1,.19-.683Z" transform="translate(-80.177 1.895)" fill="#ffcb66"/>
      <path id="Path_1043" data-name="Path 1043" d="M124.157,21.63V35.708h-1.782a.979.979,0,0,1-.021-.179V21.742a.422.422,0,0,1,.01-.112Z" transform="translate(-79.266 2.596)" fill="#2e9942"/>
      <path id="Path_1044" data-name="Path 1044" d="M122.787,26.613H119.61a.84.84,0,0,1-.84-.84V23.364a.84.84,0,0,1,.84-.84h3.177a.84.84,0,0,1,.84.84v2.409a.84.84,0,0,1-.84.84m-2.337-1.68h1.5V24.2h-1.5Z" transform="translate(-79.697 2.703)" fill="#142033"/>
      <path id="Path_1045" data-name="Path 1045" d="M122.787,31.226H119.61a.84.84,0,0,1-.84-.84v-2.41a.84.84,0,0,1,.84-.84h3.177a.84.84,0,0,1,.84.84v2.41a.84.84,0,0,1-.84.84m-2.337-1.68h1.5v-.729h-1.5Z" transform="translate(-79.697 3.256)" fill="#142033"/>
    </g>
  </g>
</svg>
