<svg xmlns="http://www.w3.org/2000/svg" width="57" height="57" viewBox="0 0 57 57">
  <g id="Group_425" data-name="Group 425" transform="translate(-111.345 -81.636)">
    <path id="Path_1014" data-name="Path 1014" d="M156.645,138.136h-33.6a11.2,11.2,0,0,1-11.2-11.2v-33.6a11.2,11.2,0,0,1,11.2-11.2h33.6a11.2,11.2,0,0,1,11.2,11.2v33.6a11.2,11.2,0,0,1-11.2,11.2" transform="translate(0)" fill="#fafaf5" stroke="#fff" stroke-width="1"/>
    <path id="Path_1015" data-name="Path 1015" d="M131.139,103.871a3.54,3.54,0,1,1,3.54-3.54,3.544,3.544,0,0,1-3.54,3.54m0-5.4A1.86,1.86,0,1,0,133,100.33a1.862,1.862,0,0,0-1.86-1.859" transform="translate(1.891 1.759)" fill="#142033"/>
    <path id="Path_1016" data-name="Path 1016" d="M131.023,115.738a2.458,2.458,0,1,1,2.458-2.458,2.462,2.462,0,0,1-2.458,2.458m0-3.237a.778.778,0,1,0,.778.778.78.78,0,0,0-.778-.778" transform="translate(2.006 3.442)" fill="#142033"/>
    <path id="Path_1017" data-name="Path 1017" d="M131.335,118.961a5.37,5.37,0,1,1,5.369-5.369,5.375,5.375,0,0,1-5.369,5.369m0-9.06a3.69,3.69,0,1,0,3.689,3.69,3.695,3.695,0,0,0-3.689-3.69" transform="translate(1.695 3.13)" fill="#142033"/>
    <path id="Path_1018" data-name="Path 1018" d="M124.555,124.189a1.526,1.526,0,0,1-1.525-1.525V94.814a1.525,1.525,0,0,1,3.051,0v27.849a1.526,1.526,0,0,1-1.525,1.525" transform="translate(1.342 1.338)" fill="#2e9942"/>
    <path id="Path_1019" data-name="Path 1019" d="M139.785,125.2H123.841a1.859,1.859,0,0,1-1.858-1.856V94.686a1.86,1.86,0,0,1,1.858-1.857h15.944a.84.84,0,0,1,0,1.68H123.841a.178.178,0,0,0-.178.177v28.659a.177.177,0,0,0,.178.176h15.944a.176.176,0,0,0,.177-.176V111.679a.84.84,0,0,1,1.68,0v11.666a1.858,1.858,0,0,1-1.857,1.856" transform="translate(1.216 1.283)" fill="#142033"/>
    <path id="Path_1020" data-name="Path 1020" d="M146.9,111.845a1.372,1.372,0,0,1-1.014-.451,1.56,1.56,0,0,1,.022-2.12c4.05-4.189,3.331-8.464,2.267-10.33a8.4,8.4,0,0,0-3.7-2.71,1.51,1.51,0,0,1-.987-1.845,1.408,1.408,0,0,1,1.744-1.045,10.987,10.987,0,0,1,5.373,4.051c2,3.513,1.939,9.211-2.713,14.022a1.373,1.373,0,0,1-.991.428" transform="translate(3.791 1.338)" fill="#ffcb66"/>
    <path id="Path_1021" data-name="Path 1021" d="M145.345,113.615c-4.676,0-8.1-8.369-8.1-12.723a8.1,8.1,0,1,1,16.191,0c0,4.355-3.418,12.723-8.1,12.723m0-19.14a6.423,6.423,0,0,0-6.415,6.416c0,3.958,3.233,11.043,6.415,11.043s6.415-7.085,6.415-11.043a6.423,6.423,0,0,0-6.415-6.416" transform="translate(3.049 1.279)" fill="#142033"/>
    <path id="Path_1022" data-name="Path 1022" d="M145.534,112.95h-1.749a.841.841,0,0,1-.841-.84v-1.5a.841.841,0,0,1,1.681,0v.661h.069v-.661a.84.84,0,0,1,1.68,0v1.5a.84.84,0,0,1-.84.84" transform="translate(3.732 3.316)" fill="#142033"/>
    <path id="Path_1023" data-name="Path 1023" d="M144.783,122.974a.781.781,0,0,1-.114-.008.839.839,0,0,1-.719-.945,6.941,6.941,0,0,0-.447-1.888,8.985,8.985,0,0,1-.482-1.945,2.8,2.8,0,0,1,.622-1.728,2.263,2.263,0,0,0,.53-1.417c-.017-.236-.021-.5-.026-.765a4.194,4.194,0,0,0-.2-1.606.84.84,0,0,1,1.416-.906,4.853,4.853,0,0,1,.469,2.485c0,.237.007.468.021.676a3.814,3.814,0,0,1-.8,2.448,1.825,1.825,0,0,0-.354.7,8.376,8.376,0,0,0,.405,1.541,6.741,6.741,0,0,1,.511,2.626.839.839,0,0,1-.831.727" transform="translate(3.741 3.509)" fill="#142033"/>
    <path id="Path_1024" data-name="Path 1024" d="M148.157,102.113a.806.806,0,0,1-.192-.022.839.839,0,0,1-.627-1.008,3.775,3.775,0,0,0-.778-2.811,1.255,1.255,0,0,0-.806-.562.84.84,0,0,1,0-1.68,2.79,2.79,0,0,1,2.124,1.2,5.384,5.384,0,0,1,1.1,4.235.84.84,0,0,1-.818.65" transform="translate(3.968 1.667)" fill="#142033"/>
  </g>
</svg>
