<svg xmlns="http://www.w3.org/2000/svg" width="57" height="57" viewBox="0 0 57 57">
  <g id="Group_423" data-name="Group 423" transform="translate(-46.684 -76.393)">
    <path id="Path_1007" data-name="Path 1007" d="M66.207,95.358a1.348,1.348,0,0,1-.2.291,1.109,1.109,0,0,1-1.557,0,1.124,1.124,0,0,1-.325-.773,1.064,1.064,0,0,1,.246-.683c.011.034.022.067.034.112.2.65.885.963,1.8,1.053" transform="translate(2.033 2.075)" fill="#fafaf5"/>
    <path id="Path_1008" data-name="Path 1008" d="M91.984,76.893h-33.6a11.2,11.2,0,0,0-11.2,11.2v33.6a11.2,11.2,0,0,0,11.2,11.2h33.6a11.2,11.2,0,0,0,11.2-11.2v-33.6a11.2,11.2,0,0,0-11.2-11.2m-1.971,31.046L78.253,119.7a1.568,1.568,0,0,1-2.218,0L61.3,104.949a1.5,1.5,0,0,1-.448-.885l-.941-6.821a1.6,1.6,0,0,1,.437-1.322l5.891-5.88a1.538,1.538,0,0,1,1.31-.448l6.821.941a1.526,1.526,0,0,1,.9.448l1.826,1.826a.838.838,0,0,1,.157.963,14.86,14.86,0,0,0,3.64-1.926,13.224,13.224,0,0,0-3.629.4.841.841,0,1,1-.347-1.646c5.354-1.154,5.779.19,5.914.638.706,2.218-5.522,4.368-7.437,4.973a30.1,30.1,0,0,1-5.4,1.2,2.651,2.651,0,0,1-.762,1.5,2.772,2.772,0,0,1-3.931,0,2.772,2.772,0,0,1,0-3.931,2.863,2.863,0,0,1,3.931,0,2.463,2.463,0,0,1,.526.75,25.53,25.53,0,0,0,5.13-1.12c.459-.146.9-.291,1.3-.437A.92.92,0,0,1,75.9,94L74.075,92.17l-6.754-.907-5.79,5.846.874,5.981.112.739,14.627,14.6.818-.818,10.774-10.786L78.387,96.482a.839.839,0,0,1,1.187-1.187l10.438,10.438a1.568,1.568,0,0,1,0,2.206m-4.8-1.534L76.618,115a.88.88,0,0,1-.571.246h-.022A.813.813,0,0,1,75.43,115a.825.825,0,0,1,0-1.187l8.59-8.59a.845.845,0,0,1,1.187,0,.863.863,0,0,1,.246.616.88.88,0,0,1-.246.571" transform="translate(0 0)" fill="#fafaf5" stroke="#fff" stroke-width="1"/>
    <path id="Path_1009" data-name="Path 1009" d="M70.009,109.221a.84.84,0,0,1-.594-1.434L78,99.2a.84.84,0,0,1,1.188,1.187l-8.59,8.59a.833.833,0,0,1-.594.246" transform="translate(2.638 2.646)" fill="#142033"/>
    <path id="Path_1010" data-name="Path 1010" d="M82.464,104.312l-7.93,7.93a1.063,1.063,0,0,1-1.5,0,.683.683,0,0,1-.078-.1.883.883,0,0,0,.572-.246l8.589-8.59a.88.88,0,0,0,.246-.571.673.673,0,0,1,.1.078,1.063,1.063,0,0,1,0,1.5" transform="translate(3.092 3.1)" fill="#2e9942"/>
    <path id="Path_1011" data-name="Path 1011" d="M88.651,104.374,78.213,93.935a.839.839,0,0,0-1.187,1.187l10.349,10.349L76.6,116.257l-.818.818-14.627-14.6-.112-.739L60.17,95.75,65.96,89.9l6.754.907,1.826,1.826a.92.92,0,0,0,.28.179c-.4.146-.84.291-1.3.437a25.53,25.53,0,0,1-5.13,1.12,2.463,2.463,0,0,0-.526-.75,2.863,2.863,0,0,0-3.931,0,2.783,2.783,0,0,0,1.96,4.749,2.811,2.811,0,0,0,1.971-.818,2.651,2.651,0,0,0,.762-1.5,30.1,30.1,0,0,0,5.4-1.2c1.915-.6,8.142-2.755,7.437-4.973-.134-.448-.56-1.792-5.914-.638a.841.841,0,1,0,.347,1.646,13.224,13.224,0,0,1,3.629-.4,14.861,14.861,0,0,1-3.64,1.926.838.838,0,0,0-.157-.963L73.9,89.623a1.526,1.526,0,0,0-.9-.448l-6.821-.941a1.538,1.538,0,0,0-1.31.448l-5.891,5.88a1.6,1.6,0,0,0-.437,1.322l.941,6.821a1.5,1.5,0,0,0,.448.885l14.739,14.75a1.568,1.568,0,0,0,2.218,0l11.76-11.76a1.568,1.568,0,0,0,0-2.206M66.677,96.366a1.109,1.109,0,0,1-1.557,0,1.124,1.124,0,0,1-.325-.773,1.064,1.064,0,0,1,.246-.683c.011.034.022.067.034.112.2.65.885.963,1.8,1.053a1.347,1.347,0,0,1-.2.291" transform="translate(1.362 1.359)" fill="#142033"/>
    <path id="Path_1012" data-name="Path 1012" d="M76.331,114.822l-.818.818-14.627-14.6-.112-.739a1.077,1.077,0,0,1,1.254.2l14.213,14.224c.034.034.056.067.09.1" transform="translate(1.631 2.794)" fill="#ffcb66"/>
    <path id="Path_1013" data-name="Path 1013" d="M82.455,102.825a.88.88,0,0,1-.246.571l-8.59,8.59a.88.88,0,0,1-.571.246h-.022a.812.812,0,0,1-.594-.246.825.825,0,0,1,0-1.187l8.59-8.59a.845.845,0,0,1,1.187,0,.863.863,0,0,1,.246.616" transform="translate(2.999 3.008)" fill="#142033"/>
  </g>
</svg>
