<svg xmlns="http://www.w3.org/2000/svg" width="87" height="63" viewBox="0 0 87 63">
  <g id="Group_709" data-name="Group 709" transform="translate(6020 4673)">
    <path id="Path_3028" data-name="Path 3028" d="M58.466,345.526a2.147,2.147,0,0,0-1.6-.663,2.237,2.237,0,0,0-1.6.663,2.292,2.292,0,0,0,1.6,3.9,2.108,2.108,0,0,0,1.6-.681,2.332,2.332,0,0,0,0-3.221m-5.729,0a2.219,2.219,0,0,0-1.623-.663,2.283,2.283,0,0,0,.036,4.565,2.119,2.119,0,0,0,1.6-.681,2.262,2.262,0,0,0,.646-1.6,2.213,2.213,0,0,0-.664-1.621" transform="translate(-6060.577 -4959.428)" fill="#142033"/>
    <path id="Path_3029" data-name="Path 3029" d="M200.53,134.642a2.12,2.12,0,0,0-1.605-.681,2.193,2.193,0,0,0-1.6.681,2.219,2.219,0,0,0-.682,1.636,2.12,2.12,0,0,0,.682,1.582,2.223,2.223,0,0,0,1.6.663,2.147,2.147,0,0,0,1.605-.663,2.187,2.187,0,0,0,.642-1.582,2.293,2.293,0,0,0-.642-1.636m-5.732,0a2.171,2.171,0,0,0-1.62-.681,2.143,2.143,0,0,0-1.566.681,2.219,2.219,0,0,0-.682,1.636,2.12,2.12,0,0,0,.682,1.582,2.212,2.212,0,0,0,1.6.663,2.136,2.136,0,0,0,1.6-.663,2.178,2.178,0,0,0,.646-1.582,2.25,2.25,0,0,0-.664-1.636" transform="translate(-6178.54 -4784.262)" fill="#142033"/>
    <path id="Path_3030" data-name="Path 3030" d="M273.937,298.615a2.136,2.136,0,0,0-1.6-.663,2.213,2.213,0,0,0-1.6.663,2.161,2.161,0,0,0-.682,1.618,2.327,2.327,0,0,0,2.284,2.284,2.119,2.119,0,0,0,1.6-.681,2.251,2.251,0,0,0,.646-1.6,2.221,2.221,0,0,0-.646-1.618m-5.729,0a2.207,2.207,0,0,0-1.623-.663,2.264,2.264,0,0,0-1.566,3.884,2.207,2.207,0,0,0,1.6.681,2.129,2.129,0,0,0,1.6-.681,2.264,2.264,0,0,0,.646-1.6,2.2,2.2,0,0,0-.664-1.618" transform="translate(-6239.494 -4920.466)" fill="#142033"/>
    <path id="Path_3031" data-name="Path 3031" d="M54.389,184.017a10.861,10.861,0,0,1-1.934,6.828,6.461,6.461,0,0,1-5.4,2.483H42.376a6.974,6.974,0,0,1-3.593-.919,6.631,6.631,0,0,1-1.285-.979,6.691,6.691,0,0,1-1.276.979,6.948,6.948,0,0,1-3.611.919H27.133a7.877,7.877,0,0,1-1.689,4.14,11.061,11.061,0,0,1-4.863,3.369,20.265,20.265,0,0,1-7.2,1.178,18.927,18.927,0,0,1-7.15-1.214,10.031,10.031,0,0,1-4.607-3.553A9.8,9.8,0,0,1,0,191.526a13.676,13.676,0,0,1,.256-2.615,10.806,10.806,0,0,1,.775-2.447,5.409,5.409,0,0,1,1.306-1.823,2.781,2.781,0,0,1,1.9-.7,2.4,2.4,0,0,1,1.237.3,2.874,2.874,0,0,1,.79.663,1.751,1.751,0,0,1,.368.7,6.756,6.756,0,0,0-1.692,2.191,8.2,8.2,0,0,0-.739,3.772,9.268,9.268,0,0,0,.35,2.5,5.435,5.435,0,0,0,1.327,2.284,7.02,7.02,0,0,0,2.781,1.675,14.509,14.509,0,0,0,4.754.642,15.343,15.343,0,0,0,4.755-.624,8.135,8.135,0,0,0,2.929-1.585,5.538,5.538,0,0,0,1.475-2.022,6.659,6.659,0,0,0,.332-1.106H21.742a4.989,4.989,0,0,1-2.3-.44,2.673,2.673,0,0,1-1.18-1.142,2.781,2.781,0,0,1-.293-1.473,4.158,4.158,0,0,1,.35-1.434,4.852,4.852,0,0,0,1.288.753,5.2,5.2,0,0,0,2.1.389H32.611a2.291,2.291,0,0,0,1.6-.554,3.329,3.329,0,0,0,.905-1.416,5.288,5.288,0,0,0,.293-1.712v-8.539a2.283,2.283,0,0,1,.5-1.492,1.96,1.96,0,0,1,1.6-.606,1.911,1.911,0,0,1,1.566.606,2.284,2.284,0,0,1,.5,1.492V186.3a5.293,5.293,0,0,0,.293,1.712,3.156,3.156,0,0,0,.941,1.416,2.324,2.324,0,0,0,1.566.554h4.679a2.108,2.108,0,0,0,1.234-.371,3.229,3.229,0,0,0,.905-.955,5.828,5.828,0,0,0,.606-1.362,8.5,8.5,0,0,0,.332-1.639,16.433,16.433,0,0,0,.093-1.712,11.648,11.648,0,0,0-.278-2.649,7.668,7.668,0,0,0-.866-2.172,7.114,7.114,0,0,0-1.62-1.841,1.94,1.94,0,0,1,.368-.681,2.4,2.4,0,0,1,.83-.66,2.7,2.7,0,0,1,1.27-.277,3.062,3.062,0,0,1,2.045.735,5.16,5.16,0,0,1,1.382,1.953,12.415,12.415,0,0,1,.775,2.685,17.568,17.568,0,0,1,.257,2.983" transform="translate(-6020 -4818.897)" fill="#142033"/>
    <path id="Path_3032" data-name="Path 3032" d="M368.54,180.142a8.858,8.858,0,0,1-1.014,4.544,6.032,6.032,0,0,1-2.6,2.468,7.7,7.7,0,0,1-3.352.753H346.026a17.322,17.322,0,0,1-.259,2.962,12.272,12.272,0,0,1-.79,2.742,5.385,5.385,0,0,1-1.382,1.989,3.043,3.043,0,0,1-2.063.735,2.72,2.72,0,0,1-1.291-.274,2.368,2.368,0,0,1-.812-.681,2.327,2.327,0,0,1-.368-.663,7.369,7.369,0,0,0,1.659-1.877,7.247,7.247,0,0,0,.848-2.227,13.228,13.228,0,0,0,.257-2.706V172.266a1.881,1.881,0,0,1,.591-1.528,2.541,2.541,0,0,1,3.02,0,1.881,1.881,0,0,1,.591,1.528v12.294h15.551a2.366,2.366,0,0,0,2.042-.994,5.975,5.975,0,0,0,.721-3.387q0-3.5-1.623-5.041a6.737,6.737,0,0,0-4.827-1.549c-.368,0-.775.009-1.216.021s-.866.03-1.273.054-.766.036-1.086.036a3.153,3.153,0,0,1-1.75-.443,2.645,2.645,0,0,1-1.013-1.193,4.978,4.978,0,0,1-.4-1.567,2.027,2.027,0,0,1,.127-.973c.112-.235.229-.362.35-.389a2.414,2.414,0,0,0,.959.829,4.156,4.156,0,0,0,1.991.389c.244,0,.564-.012.956-.039s.805-.042,1.234-.054.793-.018,1.089-.018a13.664,13.664,0,0,1,4.863.771,8.84,8.84,0,0,1,3.318,2.136,8.5,8.5,0,0,1,1.9,3.164,11.943,11.943,0,0,1,.606,3.83" transform="translate(-6301.54 -4813.476)" fill="#142033"/>
    <path id="Path_3033" data-name="Path 3033" d="M318.466,0a11.349,11.349,0,1,0,0,22.7h11.363V11.349A11.356,11.356,0,0,0,318.466,0m6.058,17.4h-6.058a6.051,6.051,0,1,1,6.058-6.051Z" transform="translate(-6275.004 -4673)" fill="#2e9942"/>
  </g>
</svg>
