<svg xmlns="http://www.w3.org/2000/svg" width="160" height="90" viewBox="0 0 160 90">
  <g id="Logo_Huryti" data-name="Logo Huryti" transform="translate(-671.45 -377.476)">
    <g id="Group_2" data-name="Group 2" transform="translate(689.97 377.476)">
      <path id="Path_1" data-name="Path 1" d="M769.95,382.9a18.577,18.577,0,0,0-31.7,13.117v18.54h18.57A18.539,18.539,0,0,0,769.95,382.9Zm-13.13,23h-9.9v-9.887a9.9,9.9,0,1,1,9.9,9.887Z" transform="translate(-738.25 -377.476)" fill="#2e9942"/>
    </g>
    <g id="Group_3" data-name="Group 3" transform="translate(671.45 413.879)">
      <path id="Path_2" data-name="Path 2" d="M676.692,550.084V516.8a11.037,11.037,0,0,0-.78-4.518q-.781-1.714-3.589-1.714h-.874v-1.621h6.74a6.986,6.986,0,0,1,3.4.686,3.8,3.8,0,0,1,1.716,2.368,17.788,17.788,0,0,1,.5,4.8v6.045a10.473,10.473,0,0,1,2.995-1.839,10.85,10.85,0,0,1,4.369-.841,16.692,16.692,0,0,1,4.056.5,10.062,10.062,0,0,1,3.651,1.744,8.734,8.734,0,0,1,2.652,3.459,13.781,13.781,0,0,1,1,5.641v18.572h-7.115V531.7a12.112,12.112,0,0,0-.873-5.049,5.582,5.582,0,0,0-5.242-3.49,6.014,6.014,0,0,0-3.183.873,12.281,12.281,0,0,0-2.309,1.745v24.305Z" transform="translate(-671.45 -508.952)" fill="#fafaf5"/>
      <path id="Path_3" data-name="Path 3" d="M808.93,581.631a14.8,14.8,0,0,1-5.9-1.091,7.959,7.959,0,0,1-3.9-3.584,13.839,13.839,0,0,1-1.373-6.669V559.569a11.025,11.025,0,0,0-.78-4.518q-.781-1.714-3.588-1.715h-.623v-1.619h6.49a6.986,6.986,0,0,1,3.4.685,3.8,3.8,0,0,1,1.715,2.368,17.784,17.784,0,0,1,.5,4.8v10.718a13.371,13.371,0,0,0,.78,5.049,5.415,5.415,0,0,0,2.122,2.679,5.728,5.728,0,0,0,3.026.81,5.261,5.261,0,0,0,2.5-.591,8.256,8.256,0,0,0,2-1.464,9.436,9.436,0,0,0,1.373-1.683V551.717h7.114v29.29h-4.43l-2.184-2.68h-.312a11.782,11.782,0,0,1-3.183,2.276A10.245,10.245,0,0,1,808.93,581.631Z" transform="translate(-759.132 -539.876)" fill="#fafaf5"/>
      <path id="Path_4" data-name="Path 4" d="M924.417,579.381V557.942a11.414,11.414,0,0,0-.748-4.519q-.747-1.713-3.557-1.713h-.625v-1.621h5.681a7.932,7.932,0,0,1,3.4.593,3.907,3.907,0,0,1,1.84,1.9,16.191,16.191,0,0,1,3.122-2.056,9.985,9.985,0,0,1,4.741-1.06,9.127,9.127,0,0,1,2.278.281,5.175,5.175,0,0,1,1.84.841,4.374,4.374,0,0,1,1.436,1.527c.333.6.582,1.028.75,1.279l-2.934,2.18a5.374,5.374,0,0,0-1.809-1.527,5.6,5.6,0,0,0-2.747-.654,7.961,7.961,0,0,0-3.4.685,6.6,6.6,0,0,0-2.34,1.745q.062.748.125,1.4c.04.437.063.8.063,1.092v21.065Z" transform="translate(-850.718 -538.248)" fill="#fafaf5"/>
      <path id="Path_5" data-name="Path 5" d="M1015.1,591.845v-2.057a10.215,10.215,0,0,0,5.241-1.246q2.123-1.248,3.557-4.986l1.248-3.427L1014.41,555.7a8.154,8.154,0,0,0-2.526-3.521,7.434,7.434,0,0,0-3.714-1.465v-1.247h5.429a8.563,8.563,0,0,1,4.835,1.34,8.16,8.16,0,0,1,3.028,3.646l7.177,16.329,7.675-20.691h3.245l-12.418,33.343a19.715,19.715,0,0,1-2.684,5.2,7.65,7.65,0,0,1-3.182,2.525,10.709,10.709,0,0,1-3.931.685Z" transform="translate(-914.813 -538.248)" fill="#fafaf5"/>
      <path id="Path_6" data-name="Path 6" d="M1143.477,557.216a8.589,8.589,0,0,1-6.146-2.15q-2.279-2.149-2.278-6.513V529.982h-3.993V527.3h3.993v-5.609l3.12-3.74h4V527.3h7.112v2.679h-7.112v18.759q0,3.242.934,4.518a3.19,3.19,0,0,0,2.746,1.277,7.626,7.626,0,0,0,2.807-.466,9.817,9.817,0,0,0,2-1.029l.813,1.559a14.7,14.7,0,0,1-3.059,1.776A12.149,12.149,0,0,1,1143.477,557.216Z" transform="translate(-1003.632 -515.461)" fill="#fafaf5"/>
      <path id="Path_7" data-name="Path 7" d="M1209.226,551.875V530.437a11.011,11.011,0,0,0-.782-4.519q-.778-1.712-3.588-1.714h-.871v-1.62h6.738a6.989,6.989,0,0,1,3.4.686,3.8,3.8,0,0,1,1.717,2.368,17.808,17.808,0,0,1,.5,4.8v21.437Zm3.369-32.781a3.759,3.759,0,0,1-3.09-1.34,4.83,4.83,0,0,1-1.092-3.147,3.057,3.057,0,0,1,.906-2.306,3.149,3.149,0,0,1,2.278-.873,3.848,3.848,0,0,1,3.118,1.34,4.651,4.651,0,0,1,1.125,3.084,3.085,3.085,0,0,1-.936,2.369A3.264,3.264,0,0,1,1212.6,519.094Z" transform="translate(-1056.339 -510.742)" fill="#fafaf5"/>
    </g>
  </g>
</svg>
