<svg xmlns="http://www.w3.org/2000/svg" width="98" height="63" viewBox="0 0 98 63">
  <g id="Group_704" data-name="Group 704" transform="translate(5849 4644)">
    <path id="Path_3018" data-name="Path 3018" d="M70.942,286.859a2.228,2.228,0,0,0-1.6.663,2.241,2.241,0,0,0,0,3.22,2.2,2.2,0,0,0,1.6.681,2.122,2.122,0,0,0,1.6-.681,2.331,2.331,0,0,0,0-3.22,2.15,2.15,0,0,0-1.6-.663" transform="translate(-5903.639 -4872.423)" fill="#142033"/>
    <path id="Path_3019" data-name="Path 3019" d="M42.9,286.859a2.282,2.282,0,0,0,.037,4.564,2.122,2.122,0,0,0,1.6-.681,2.254,2.254,0,0,0,.645-1.6,2.265,2.265,0,0,0-2.287-2.282" transform="translate(-5881.351 -4872.423)" fill="#142033"/>
    <path id="Path_3020" data-name="Path 3020" d="M186.93,111.429a2.2,2.2,0,0,0-1.6.681,2.231,2.231,0,0,0-.682,1.638,2.127,2.127,0,0,0,.682,1.583,2.227,2.227,0,0,0,1.6.662,2.15,2.15,0,0,0,1.6-.662,2.19,2.19,0,0,0,.646-1.583,2.3,2.3,0,0,0-.646-1.638,2.123,2.123,0,0,0-1.6-.681" transform="translate(-5995.947 -4732.73)" fill="#142033"/>
    <path id="Path_3021" data-name="Path 3021" d="M158.926,115.993a2.15,2.15,0,0,0,1.6-.662,2.19,2.19,0,0,0,.646-1.583,2.263,2.263,0,0,0-.664-1.638,2.181,2.181,0,0,0-1.623-.681,2.158,2.158,0,0,0-1.567.681,2.23,2.23,0,0,0-.682,1.638,2.128,2.128,0,0,0,.682,1.583,2.227,2.227,0,0,0,1.6.662" transform="translate(-5973.661 -4732.73)" fill="#142033"/>
    <path id="Path_3022" data-name="Path 3022" d="M40.5,148.8a5.155,5.155,0,0,0-1.383-1.951,3.063,3.063,0,0,0-2.047-.736,2.74,2.74,0,0,0-1.272.276,2.4,2.4,0,0,0-.83.663,1.968,1.968,0,0,0-.369.681,7.076,7.076,0,0,1,1.623,1.84,7.667,7.667,0,0,1,.867,2.172,11.625,11.625,0,0,1,.277,2.65,16.238,16.238,0,0,1-.092,1.711,8.62,8.62,0,0,1-.332,1.638,5.811,5.811,0,0,1-.608,1.362,3.209,3.209,0,0,1-.9.957,2.124,2.124,0,0,1-1.236.368H21.725a5.23,5.23,0,0,1-2.1-.386,4.877,4.877,0,0,1-1.291-.754,4.243,4.243,0,0,0-.351,1.435,2.783,2.783,0,0,0,.3,1.472,2.658,2.658,0,0,0,1.18,1.141,4.966,4.966,0,0,0,2.305.442h1.162a6.393,6.393,0,0,1-.332,1.1,5.543,5.543,0,0,1-1.475,2.024,8.134,8.134,0,0,1-2.932,1.582,15.311,15.311,0,0,1-4.758.626,14.5,14.5,0,0,1-4.758-.644A7.012,7.012,0,0,1,5.883,166.8a5.415,5.415,0,0,1-1.328-2.282,9.227,9.227,0,0,1-.35-2.5,8.2,8.2,0,0,1,.738-3.773,6.777,6.777,0,0,1,1.7-2.19,1.766,1.766,0,0,0-.369-.7,2.89,2.89,0,0,0-.793-.663,2.4,2.4,0,0,0-1.236-.294,2.777,2.777,0,0,0-1.9.7,5.384,5.384,0,0,0-1.309,1.822,10.724,10.724,0,0,0-.775,2.448A13.626,13.626,0,0,0,0,161.981,9.785,9.785,0,0,0,1.623,167.7a10.037,10.037,0,0,0,4.611,3.552,18.976,18.976,0,0,0,7.156,1.214,20.343,20.343,0,0,0,7.211-1.177,11.082,11.082,0,0,0,4.869-3.368,7.907,7.907,0,0,0,1.684-4.141h7.039a6.463,6.463,0,0,0,5.4-2.484,10.841,10.841,0,0,0,1.936-6.827,17.272,17.272,0,0,0-.258-2.981A12.3,12.3,0,0,0,40.5,148.8" transform="translate(-5849 -4760.352)" fill="#142033"/>
    <path id="Path_3023" data-name="Path 3023" d="M275.778,247.835a2.282,2.282,0,0,0,.037,4.564,2.122,2.122,0,0,0,1.6-.681,2.254,2.254,0,0,0,.645-1.6,2.264,2.264,0,0,0-2.287-2.282" transform="translate(-6066.686 -4841.349)" fill="#142033"/>
    <path id="Path_3024" data-name="Path 3024" d="M239.879,135.4a10.841,10.841,0,0,0,1.936-6.827,17.293,17.293,0,0,0-.258-2.981,12.3,12.3,0,0,0-.775-2.687,5.151,5.151,0,0,0-1.383-1.951,3.063,3.063,0,0,0-2.047-.736,2.74,2.74,0,0,0-1.272.276,2.408,2.408,0,0,0-.83.663,1.968,1.968,0,0,0-.369.681,7.072,7.072,0,0,1,1.623,1.84,7.667,7.667,0,0,1,.867,2.172,11.624,11.624,0,0,1,.277,2.65,16.239,16.239,0,0,1-.092,1.711,8.6,8.6,0,0,1-.332,1.638,5.811,5.811,0,0,1-.608,1.362,3.212,3.212,0,0,1-.9.957,2.126,2.126,0,0,1-1.236.368h-3.983a2.311,2.311,0,0,1-1.586-.552,3.233,3.233,0,0,1-.922-1.417,5.265,5.265,0,0,1-.295-1.711V117.867a5.6,5.6,0,0,0-.443-2.356,3.31,3.31,0,0,0-1.18-1.435,2.988,2.988,0,0,0-1.66-.479,2.858,2.858,0,0,0-1.475.35,2.8,2.8,0,0,0-.885.773,2.534,2.534,0,0,0-.369.681,7.2,7.2,0,0,1,.738.552,3.056,3.056,0,0,1,.775,1.086,4.783,4.783,0,0,1,.332,1.969v11.851a7.135,7.135,0,0,0,.9,3.607,6.7,6.7,0,0,0,2.471,2.5,6.969,6.969,0,0,0,3.6.92h3.983a6.463,6.463,0,0,0,5.4-2.484" transform="translate(-6025.421 -4734.456)" fill="#142033"/>
    <path id="Path_3025" data-name="Path 3025" d="M303.819,247.835a2.227,2.227,0,0,0-1.6.662,2.241,2.241,0,0,0,0,3.22,2.2,2.2,0,0,0,1.6.681,2.122,2.122,0,0,0,1.6-.681,2.331,2.331,0,0,0,0-3.22,2.15,2.15,0,0,0-1.6-.662" transform="translate(-6088.973 -4841.349)" fill="#142033"/>
    <path id="Path_3026" data-name="Path 3026" d="M364.538,147.876a8.492,8.492,0,0,0-1.9-3.165,8.822,8.822,0,0,0-3.32-2.135,13.7,13.7,0,0,0-4.869-.773q-.443,0-1.088.019t-1.236.055q-.59.037-.959.037a4.181,4.181,0,0,1-1.992-.386,2.434,2.434,0,0,1-.959-.828q-.185.037-.35.386a2.038,2.038,0,0,0-.129.975,4.978,4.978,0,0,0,.406,1.564,2.675,2.675,0,0,0,1.014,1.2,3.17,3.17,0,0,0,1.752.442q.479,0,1.088-.037t1.273-.055q.664-.018,1.217-.018a6.762,6.762,0,0,1,4.832,1.546q1.623,1.546,1.623,5.042a5.973,5.973,0,0,1-.719,3.386,2.377,2.377,0,0,1-2.047.993H342.648V143.827a1.886,1.886,0,0,0-.59-1.527,2.549,2.549,0,0,0-3.025,0,1.884,1.884,0,0,0-.59,1.527v15.642a13.225,13.225,0,0,1-.258,2.7,6.823,6.823,0,0,1-2.508,4.1,2.319,2.319,0,0,0,.369.663,2.361,2.361,0,0,0,.812.681,2.719,2.719,0,0,0,1.291.276,3.045,3.045,0,0,0,2.066-.736,5.38,5.38,0,0,0,1.383-1.987,12.339,12.339,0,0,0,.793-2.742,17.379,17.379,0,0,0,.258-2.963h15.528a7.718,7.718,0,0,0,3.356-.754,6.037,6.037,0,0,0,2.6-2.466,8.868,8.868,0,0,0,1.014-4.545,11.893,11.893,0,0,0-.609-3.828" transform="translate(-6116.147 -4756.037)" fill="#142033"/>
    <path id="Path_3027" data-name="Path 3027" d="M324.409,0a11.35,11.35,0,1,0,0,22.7h11.374V11.35A11.362,11.362,0,0,0,324.409,0m6.064,17.4h-6.064a6.051,6.051,0,1,1,6.064-6.051Z" transform="translate(-6098.127 -4644)" fill="#2e9942"/>
  </g>
</svg>
