<svg xmlns="http://www.w3.org/2000/svg" width="112" height="63" viewBox="0 0 112 63">
  <g id="Logo_Huryti" data-name="Logo Huryti" transform="translate(-671.45 -377.476)">
    <g id="Group_2" data-name="Group 2" transform="translate(684.414 377.476)">
      <path id="Path_1" data-name="Path 1" d="M760.44,381.276a13,13,0,0,0-22.19,9.182v12.978h13a12.977,12.977,0,0,0,9.191-22.16Zm-9.191,16.1h-6.931v-6.921a6.931,6.931,0,1,1,6.931,6.921Z" transform="translate(-738.25 -377.476)" fill="#2e9942"/>
    </g>
    <g id="Group_3" data-name="Group 3" transform="translate(671.45 402.958)">
      <path id="Path_2" data-name="Path 2" d="M675.119,537.744v-23.3a7.726,7.726,0,0,0-.546-3.163q-.547-1.2-2.512-1.2h-.612v-1.135h4.718a4.89,4.89,0,0,1,2.381.48,2.663,2.663,0,0,1,1.2,1.658,12.442,12.442,0,0,1,.349,3.359v4.231a7.331,7.331,0,0,1,2.1-1.287,7.6,7.6,0,0,1,3.058-.589,11.681,11.681,0,0,1,2.839.349,7.044,7.044,0,0,1,2.556,1.221A6.115,6.115,0,0,1,692.5,520.8a9.647,9.647,0,0,1,.7,3.949v13h-4.98V524.875a8.475,8.475,0,0,0-.611-3.534,3.907,3.907,0,0,0-3.669-2.443,4.21,4.21,0,0,0-2.228.611,8.6,8.6,0,0,0-1.616,1.222v17.014Z" transform="translate(-671.45 -508.952)" fill="#142033"/>
      <path id="Path_3" data-name="Path 3" d="M804.081,572.657a10.365,10.365,0,0,1-4.129-.763,5.573,5.573,0,0,1-2.73-2.509,9.689,9.689,0,0,1-.961-4.668v-7.5a7.718,7.718,0,0,0-.546-3.163q-.547-1.2-2.512-1.2h-.436v-1.133h4.543a4.889,4.889,0,0,1,2.381.48,2.658,2.658,0,0,1,1.2,1.657,12.452,12.452,0,0,1,.349,3.359v7.5a9.36,9.36,0,0,0,.546,3.534,3.791,3.791,0,0,0,1.486,1.876,4.009,4.009,0,0,0,2.118.567,3.683,3.683,0,0,0,1.747-.414,5.775,5.775,0,0,0,1.4-1.025,6.6,6.6,0,0,0,.961-1.178V551.717h4.98v20.5h-3.1l-1.529-1.876h-.219a8.25,8.25,0,0,1-2.228,1.593A7.171,7.171,0,0,1,804.081,572.657Z" transform="translate(-769.222 -543.428)" fill="#142033"/>
      <path id="Path_4" data-name="Path 4" d="M922.938,570.406V555.4a7.99,7.99,0,0,0-.524-3.163q-.523-1.2-2.49-1.2h-.438V549.9h3.977a5.553,5.553,0,0,1,2.381.415,2.736,2.736,0,0,1,1.288,1.33,11.337,11.337,0,0,1,2.185-1.439,6.99,6.99,0,0,1,3.319-.742,6.391,6.391,0,0,1,1.595.2,3.622,3.622,0,0,1,1.288.589,3.063,3.063,0,0,1,1,1.069c.233.422.407.72.525.9l-2.054,1.526a3.76,3.76,0,0,0-1.266-1.069,3.918,3.918,0,0,0-1.922-.458,5.571,5.571,0,0,0-2.381.479,4.624,4.624,0,0,0-1.638,1.221c.029.349.058.677.087.981s.044.561.044.764v14.745Z" transform="translate(-871.348 -541.613)" fill="#142033"/>
      <path id="Path_5" data-name="Path 5" d="M1013.019,579.131v-1.44a7.149,7.149,0,0,0,3.669-.872,6.62,6.62,0,0,0,2.49-3.49l.874-2.4-7.514-17.1a5.708,5.708,0,0,0-1.768-2.465,5.206,5.206,0,0,0-2.6-1.026v-.873h3.8a5.994,5.994,0,0,1,3.385.938,5.713,5.713,0,0,1,2.12,2.552l5.024,11.43,5.373-14.484h2.271l-8.693,23.34a13.8,13.8,0,0,1-1.879,3.642,5.354,5.354,0,0,1-2.228,1.768,7.494,7.494,0,0,1-2.751.48Z" transform="translate(-942.82 -541.613)" fill="#142033"/>
      <path id="Path_6" data-name="Path 6" d="M1139.752,545.437a5.408,5.408,0,0,1-5.9-6.064v-13h-2.8V524.5h2.8v-3.926l2.184-2.618h2.8V524.5h4.979v1.876h-4.979V539.5a5.584,5.584,0,0,0,.654,3.163,2.233,2.233,0,0,0,1.922.894,5.34,5.34,0,0,0,1.965-.326,6.869,6.869,0,0,0,1.4-.72l.569,1.091a10.286,10.286,0,0,1-2.142,1.243A8.5,8.5,0,0,1,1139.752,545.437Z" transform="translate(-1041.86 -516.209)" fill="#142033"/>
      <path id="Path_7" data-name="Path 7" d="M1207.653,539.741V524.734a7.711,7.711,0,0,0-.547-3.164q-.545-1.2-2.512-1.2h-.61v-1.134h4.717a4.89,4.89,0,0,1,2.38.48,2.663,2.663,0,0,1,1.2,1.657,12.469,12.469,0,0,1,.349,3.36v15.006Zm2.359-22.947a2.63,2.63,0,0,1-2.163-.938,3.38,3.38,0,0,1-.765-2.2,2.141,2.141,0,0,1,.634-1.614,2.2,2.2,0,0,1,1.595-.611,2.693,2.693,0,0,1,2.182.938,3.256,3.256,0,0,1,.787,2.159,2.159,2.159,0,0,1-.655,1.659A2.284,2.284,0,0,1,1210.012,516.794Z" transform="translate(-1100.632 -510.948)" fill="#142033"/>
    </g>
  </g>
</svg>
