<svg xmlns="http://www.w3.org/2000/svg" width="57" height="57" viewBox="0 0 57 57">
  <g id="Group_427" data-name="Group 427" transform="translate(0.5 0.5)">
    <g id="Group_433" data-name="Group 433" transform="translate(0 0)">
      <path id="Path_1025" data-name="Path 1025" d="M211.087,89.177h5.678a5.043,5.043,0,0,1-4.682,4.211c-2.486,0-4.547-2.206-4.827-5.051a4.931,4.931,0,0,1-.034-.582l1.68-10.08a.552.552,0,0,1,.045-.134h6.25c.011,0,.056.045.078.134L216.9,87.5h-5.813a.84.84,0,1,0,0,1.68" transform="translate(-173.993 -63.506)" fill="#fafaf5"/>
      <path id="Path_1026" data-name="Path 1026" d="M222.353,65.01h-33.6a11.19,11.19,0,0,0-11.2,11.2v33.6a11.2,11.2,0,0,0,11.2,11.2h33.6a11.2,11.2,0,0,0,11.2-11.2V76.21a11.2,11.2,0,0,0-11.2-11.2M200.759,97.725V89.84a.8.8,0,0,1,.235-.571.787.787,0,0,1,.6-.269.846.846,0,0,1,.84.84v7.885a.846.846,0,0,1-.84.84.787.787,0,0,1-.6-.269.8.8,0,0,1-.235-.571m21.4-7.918v.034a.191.191,0,0,1-.011.078.247.247,0,0,1-.011.09,7.024,7.024,0,0,1-5.656,6.5v12.925h2.822a.84.84,0,1,1,0,1.68h-7.325a.84.84,0,0,1,0-1.68H214.8V96.5c-3.214-.459-5.7-3.573-5.7-7.314a.546.546,0,0,1,.011-.134l1.691-10.147a1.77,1.77,0,0,1,1.7-1.546h6.272a1.781,1.781,0,0,1,1.714,1.546l1.68,10.147a.545.545,0,0,1,.011.134c0,.213-.011.414-.022.616" transform="translate(-177.553 -65.01)" fill="#fafaf5" stroke="#fff" stroke-width="1"/>
      <path id="Path_1027" data-name="Path 1027" d="M216.762,88.02a5.043,5.043,0,0,1-4.682,4.211c-2.486,0-4.547-2.206-4.827-5.051h2.99a.839.839,0,0,0,.84.84Z" transform="translate(-173.989 -62.35)" fill="#ffcb66"/>
      <path id="Path_1028" data-name="Path 1028" d="M205.791,110.045a18.1,18.1,0,0,1,0-36.2.84.84,0,0,1,0,1.68,16.42,16.42,0,0,0,0,32.84.84.84,0,0,1,0,1.68" transform="translate(-176.336 -63.95)" fill="#142033"/>
      <path id="Path_1029" data-name="Path 1029" d="M205.4,106.034a14.478,14.478,0,1,1,0-28.956.84.84,0,0,1,0,1.68,12.8,12.8,0,1,0,0,25.6.84.84,0,1,1,0,1.68" transform="translate(-175.948 -63.562)" fill="#142033"/>
      <path id="Path_1030" data-name="Path 1030" d="M199.953,87.27v7.885a.846.846,0,0,1-.84.84.787.787,0,0,1-.6-.269.8.8,0,0,1-.235-.571V87.27a.8.8,0,0,1,.235-.571.787.787,0,0,1,.6-.269.846.846,0,0,1,.84.84" transform="translate(-175.067 -62.44)" fill="#142033"/>
      <path id="Path_1031" data-name="Path 1031" d="M198.431,95.132a.8.8,0,0,0,.235.571,1.331,1.331,0,0,1-1.714-1.288V87.964a1.331,1.331,0,0,1,1.714-1.288.8.8,0,0,0-.235.571Z" transform="translate(-175.225 -62.417)" fill="#2e9942"/>
      <path id="Path_1032" data-name="Path 1032" d="M202.209,102.453a.84.84,0,0,1-.84-.84V82.06a.84.84,0,1,1,1.68,0v19.553a.84.84,0,0,1-.84.84" transform="translate(-174.695 -63.065)" fill="#142033"/>
      <path id="Path_1033" data-name="Path 1033" d="M218.793,87.733l-1.68-10.147A1.781,1.781,0,0,0,215.4,76.04h-6.272a1.77,1.77,0,0,0-1.7,1.546l-1.691,10.147a.545.545,0,0,0-.011.134c0,3.741,2.486,6.854,5.7,7.314v12.925H208.6a.84.84,0,1,0,0,1.68h7.325a.84.84,0,1,0,0-1.68H213.1V95.181a7.024,7.024,0,0,0,5.656-6.5.247.247,0,0,0,.011-.09.19.19,0,0,0,.011-.078v-.034c.011-.2.022-.4.022-.616a.545.545,0,0,0-.011-.134m-7.526,1.624h5.678a5.043,5.043,0,0,1-4.682,4.211c-2.486,0-4.547-2.206-4.827-5.051a4.934,4.934,0,0,1-.034-.582l1.68-10.08a.552.552,0,0,1,.045-.134h6.25c.011,0,.056.045.078.134l1.624,9.822h-5.813a.84.84,0,1,0,0,1.68" transform="translate(-174.173 -63.686)" fill="#142033"/>
    </g>
  </g>
</svg>
