<svg id="Group_669" data-name="Group 669" xmlns="http://www.w3.org/2000/svg" xmlns:xlink="http://www.w3.org/1999/xlink" width="50" height="50" viewBox="0 0 50 50">
  <defs>
    <clipPath id="clip-path">
      <rect id="Rectangle_3073" data-name="Rectangle 3073" width="50" height="50" fill="none"/>
    </clipPath>
  </defs>
  <g id="Group_668" data-name="Group 668" clip-path="url(#clip-path)">
    <path id="Path_2735" data-name="Path 2735" d="M40,50H10A10,10,0,0,1,0,40V10A10,10,0,0,1,10,0H40A10,10,0,0,1,50,10V40A10,10,0,0,1,40,50" fill="#fafaf5"/>
    <path id="Path_2736" data-name="Path 2736" d="M27.849,37.2a.031.031,0,0,1-.01.02l-.03.01a.138.138,0,0,1,.04-.03" fill="#142033"/>
    <path id="Path_2737" data-name="Path 2737" d="M26.089,38.437a4.339,4.339,0,0,0,.06.76l-14.79-4.92a1.489,1.489,0,0,1-.46-1.19,1.824,1.824,0,0,1,.25-.87c.01-.02.04-.03.08-.03h.05l15.03,4.83a4.187,4.187,0,0,0-.22,1.42" fill="#ffcb66"/>
    <path id="Path_2738" data-name="Path 2738" d="M27.809,37.227l.03-.01a.031.031,0,0,0,.01-.02.138.138,0,0,0-.04.03" fill="#142033"/>
    <path id="Path_2739" data-name="Path 2739" d="M37.569,28.447l-10.18,3.51-13.69-4.4,1.47-.57a.752.752,0,0,0,.42-.98.353.353,0,0,0-.08-.13l.49-.22a1.742,1.742,0,0,0,.49.59,15.207,15.207,0,0,0,8.94,2.86,15.452,15.452,0,0,0,8.97-2.84l1.26.46a.776.776,0,0,0-.12.22.754.754,0,0,0,.46.96Z" fill="#2e9942"/>
    <path id="Path_2740" data-name="Path 2740" d="M39.609,35.217l-11.86,4.27a3.252,3.252,0,0,1-.16-1.05,2.546,2.546,0,0,1,.25-1.22l-.03.01a.138.138,0,0,1,.04-.03.031.031,0,0,1-.01.02l12.28-4.42a.749.749,0,0,0,.45-.96.741.741,0,0,0-.96-.45l-11.94,4.3a2.442,2.442,0,0,1-.17-.99,2.635,2.635,0,0,1,.19-1.25l.02-.01,12.4-4.28a.746.746,0,0,0,.5-.71.755.755,0,0,0-.5-.71l-3.61-1.25a.753.753,0,0,0-.84.24.776.776,0,0,0-.12.22.754.754,0,0,0,.46.96l1.57.54-10.18,3.51-13.69-4.4,1.47-.57a.752.752,0,0,0,.42-.98.353.353,0,0,0-.08-.13.739.739,0,0,0-.89-.29l-3.38,1.33a1.6,1.6,0,0,0-1.37,1.09,5.154,5.154,0,0,0-.21.86,3.434,3.434,0,0,0,.45,2.26,1.755,1.755,0,0,0-.24.3,3.407,3.407,0,0,0-.47,1.55,2.968,2.968,0,0,0,.92,2.38,1.7,1.7,0,0,0,.61.36l16.23,5.4c.02.01.04.01.06.02a.881.881,0,0,0,.17.02,1.1,1.1,0,0,0,.18-.02.292.292,0,0,0,.09-.02l12.46-4.49a.749.749,0,0,0,.45-.96.741.741,0,0,0-.96-.45m-28.47-6.1a3.445,3.445,0,0,1,.15-.63.113.113,0,0,1,.12-.08l14.78,4.74A5.2,5.2,0,0,0,26,34.7a4.31,4.31,0,0,0,.04.64l-14.59-4.88a2,2,0,0,1-.31-1.34M26.149,39.2l-14.79-4.92a1.489,1.489,0,0,1-.46-1.19,1.824,1.824,0,0,1,.25-.87c.01-.02.04-.03.08-.03h.05l15.03,4.83a4.187,4.187,0,0,0-.22,1.42,4.339,4.339,0,0,0,.06.76" fill="#142033"/>
    <path id="Path_2741" data-name="Path 2741" d="M38.9,14.267l-12.81-5.3a1.6,1.6,0,0,0-1.25,0l-12.81,5.3a1.646,1.646,0,0,0-.06,3.01l3.87,1.77v5.89a1.6,1.6,0,0,0,.65,1.31,15.207,15.207,0,0,0,8.94,2.86,15.452,15.452,0,0,0,8.97-2.84c.01-.01.02-.01.03-.02a1.6,1.6,0,0,0,.66-1.31v-5.89l3.87-1.77a1.639,1.639,0,0,0-.06-3.01m-.57,1.64-7.32,3.37a.735.735,0,0,0-.37.99.746.746,0,0,0,.99.37l1.96-.9v5.2a.119.119,0,0,1-.04.1,14,14,0,0,1-8.12,2.57,13.611,13.611,0,0,1-8.04-2.56.153.153,0,0,1-.05-.11v-5.2l7.44,3.41a1.639,1.639,0,0,0,1.37,0l1.2-.55a.743.743,0,0,0,.37-.99.754.754,0,0,0-1-.37l-1.2.55a.108.108,0,0,1-.11,0L12.6,15.907a.123.123,0,0,1-.08-.13.117.117,0,0,1,.08-.12l12.81-5.31a.2.2,0,0,1,.11,0l12.81,5.31a.135.135,0,0,1,.09.12.118.118,0,0,1-.09.13" fill="#142033"/>
    <path id="Path_2742" data-name="Path 2742" d="M30.069,26.117h-1.56a.651.651,0,0,1-.61-.88l.63-1.64a.275.275,0,0,1-.02-.13v-7.16h-1.79a1.859,1.859,0,0,1-1.25.44c-.9,0-1.63-.53-1.63-1.19s.73-1.2,1.63-1.2a1.842,1.842,0,0,1,1.26.45h2.53a.743.743,0,0,1,.75.75v7.91a.772.772,0,0,1-.02.15v.01l.68,1.58a.654.654,0,0,1-.6.91" fill="#142033"/>
  </g>
</svg>
