<svg id="Group_673" data-name="Group 673" xmlns="http://www.w3.org/2000/svg" xmlns:xlink="http://www.w3.org/1999/xlink" width="50" height="50" viewBox="0 0 50 50">
  <defs>
    <clipPath id="clip-path">
      <rect id="Rectangle_3075" data-name="Rectangle 3075" width="50" height="50" fill="none"/>
    </clipPath>
  </defs>
  <g id="Group_672" data-name="Group 672" clip-path="url(#clip-path)">
    <path id="Path_2749" data-name="Path 2749" d="M40,50H10A10,10,0,0,1,0,40V10A10,10,0,0,1,10,0H40A10,10,0,0,1,50,10V40A10,10,0,0,1,40,50" fill="#fafaf5"/>
    <path id="Path_2750" data-name="Path 2750" d="M17.807,9.59h0a2.723,2.723,0,0,0-2.723,2.723v1.028H20.53V12.313A2.723,2.723,0,0,0,17.807,9.59" fill="#ffcb66"/>
    <path id="Path_2751" data-name="Path 2751" d="M32.34,36.3a1.427,1.427,0,0,1-1.221-1.567V12.274a1.427,1.427,0,0,1,1.221-1.567,1.427,1.427,0,0,1,1.221,1.567V34.729A1.427,1.427,0,0,1,32.34,36.3" fill="#2e9942"/>
    <path id="Path_2752" data-name="Path 2752" d="M17.807,8.84a3.477,3.477,0,0,0-3.473,3.473V34.545a.744.744,0,0,0,.068.305l0,.011,2.723,5.865a.75.75,0,0,0,1.36,0l2.723-5.865,0-.011a.744.744,0,0,0,.068-.305V12.313A3.477,3.477,0,0,0,17.807,8.84m-1.973,5.251H19.78v19.7H15.834Zm0-1.778a1.973,1.973,0,0,1,3.946,0v.278H15.834Zm1.973,26.316-1.548-3.334h3.1Z" fill="#142033"/>
    <path id="Path_2753" data-name="Path 2753" d="M17.44,15.933a.75.75,0,0,0-.75.75V31.2a.75.75,0,0,0,1.5,0V16.683a.75.75,0,0,0-.75-.75" fill="#142033"/>
    <path id="Path_2754" data-name="Path 2754" d="M34.856,11.587,33.4,9.061a.439.439,0,0,0-.761,0l-1.458,2.526a.439.439,0,0,0,.38.659h.708V34.1a1.445,1.445,0,1,1-2.891,0V25.583a2.946,2.946,0,1,0-5.892,0V40.41a.75.75,0,0,0,1.5,0V25.583a1.446,1.446,0,1,1,2.892,0V34.1a2.945,2.945,0,1,0,5.891,0V12.246h.709a.439.439,0,0,0,.38-.659" fill="#142033"/>
  </g>
</svg>
